<svg width="48" height="42" viewBox="0 0 48 42" fill="none" xmlns="http://www.w3.org/2000/svg">
<g clip-path="url(#clip0)">
<path d="M35.4737 1.3544e-05H12.415C12.2542 -9.01284e-05 12.0961 0.0423953 11.9568 0.1232C11.8174 0.204005 11.7017 0.320279 11.6213 0.460314L0.12251 20.5294C0.0422189 20.6712 0 20.8316 0 20.9948C0 21.158 0.0422189 21.3184 0.12251 21.4602L11.6518 41.5293C11.7318 41.6705 11.8471 41.7883 11.9863 41.8708C12.1256 41.9534 12.2839 41.9979 12.4455 41.9998H35.5042C35.6676 41.9996 35.828 41.956 35.9692 41.8734C36.1104 41.7907 36.2273 41.672 36.3081 41.5293L47.8374 21.4602C47.9177 21.3184 47.9599 21.158 47.9599 20.9948C47.9599 20.8316 47.9177 20.6712 47.8374 20.5294L36.2775 0.470541C36.1976 0.327088 36.0808 0.207785 35.9395 0.125038C35.7981 0.0422909 35.6372 -0.000878316 35.4737 1.3544e-05Z" fill="#1A2029"/>
<path d="M1.47343 22.8412C1.39263 22.7013 1.35009 22.5425 1.35009 22.3809C1.35009 22.2193 1.39263 22.0606 1.47343 21.9206L13.0735 1.84126C13.1544 1.70123 13.2707 1.58496 13.4108 1.50415C13.5508 1.42335 13.7097 1.38086 13.8714 1.38097H37L36.4681 0.460365C36.3864 0.318815 36.2684 0.201566 36.1264 0.120671C35.9844 0.0397752 35.8234 -0.00185117 35.66 6.31709e-05H12.4802C12.3185 -4.05019e-05 12.1596 0.0424451 12.0196 0.12325C11.8795 0.204055 11.7632 0.320329 11.6823 0.460365L0.123153 20.5295C0.0424406 20.6713 0 20.8317 0 20.9949C0 21.1581 0.0424406 21.3185 0.123153 21.4603L11.713 41.5295C11.7934 41.6707 11.9093 41.7885 12.0493 41.871C12.1893 41.9536 12.3484 41.998 12.5109 42L1.47343 22.8412Z" fill="#2C323D"/>
<path d="M46.5343 19.1588C46.6147 19.2988 46.657 19.4575 46.657 19.6191C46.657 19.7807 46.6147 19.9395 46.5343 20.0794L34.9948 40.1587C34.9143 40.2988 34.7986 40.415 34.6593 40.4959C34.52 40.5767 34.3619 40.6191 34.2011 40.619L11.1933 40.619L11.7225 41.5396C11.8037 41.6812 11.921 41.7984 12.0623 41.8793C12.2036 41.9602 12.3638 42.0018 12.5263 41.9999L35.585 41.9999C35.7458 42 35.9039 41.9576 36.0432 41.8767C36.1826 41.7959 36.2983 41.6797 36.3787 41.5396L47.8775 21.4706C47.9578 21.3287 48 21.1683 48 21.0051C48 20.842 47.9578 20.6816 47.8775 20.5397L36.3482 0.470666C36.2682 0.329416 36.1529 0.211664 36.0137 0.129114C35.8744 0.0465636 35.7161 0.00209951 35.5545 0.000138739L46.5343 19.1588Z" fill="#030B14"/>
<g filter="url(#filter0_d)">
<path d="M29.4167 24.625V21.5417C29.4167 24.1417 26.9917 26 24 26C21.0083 26 18.5833 24.1417 18.5833 21.5417V24.625C18.5833 27.225 21.0083 29.3334 24 29.3334C26.9917 29.3334 29.4167 27.225 29.4167 24.625Z" stroke="#27C29D" stroke-linecap="round" stroke-linejoin="round"/>
<path d="M28.8417 19.4334C29.2083 18.8334 29.4167 18.1334 29.4167 17.375C29.4167 16.075 28.8083 14.9 27.8333 14.0417C26.85 13.1917 25.5 12.6667 24 12.6667C22.5 12.6667 21.15 13.1917 20.1667 14.05C19.1917 14.9 18.5833 16.075 18.5833 17.375C18.5833 18.1334 18.7917 18.8334 19.1583 19.4334C20.05 20.9 21.8833 21.8334 24 21.8334C26.1167 21.8334 27.95 20.9 28.8417 19.4334Z" stroke="#27C29D" stroke-linecap="round" stroke-linejoin="round"/>
<path d="M29.4167 21.5417V17.375C29.4167 16.075 28.8083 14.9 27.8333 14.0417C26.85 13.1917 25.5 12.6667 24 12.6667C21.0083 12.6667 18.5833 14.775 18.5833 17.375V21.5417C18.5833 24.1417 21.0083 26 24 26C26.9917 26 29.4167 24.1417 29.4167 21.5417Z" stroke="#27C29D" stroke-linecap="round" stroke-linejoin="round"/>
</g>
</g>
<defs>
<filter id="filter0_d" x="10" y="7" width="28" height="28" filterUnits="userSpaceOnUse" color-interpolation-filters="sRGB">
<feFlood flood-opacity="0" result="BackgroundImageFix"/>
<feColorMatrix in="SourceAlpha" type="matrix" values="0 0 0 0 0 0 0 0 0 0 0 0 0 0 0 0 0 0 127 0" result="hardAlpha"/>
<feOffset/>
<feGaussianBlur stdDeviation="1"/>
<feComposite in2="hardAlpha" operator="out"/>
<feColorMatrix type="matrix" values="0 0 0 0 0.152941 0 0 0 0 0.760784 0 0 0 0 0.615686 0 0 0 1 0"/>
<feBlend mode="normal" in2="BackgroundImageFix" result="effect1_dropShadow"/>
<feBlend mode="normal" in="SourceGraphic" in2="effect1_dropShadow" result="shape"/>
</filter>
<clipPath id="clip0">
<rect width="48" height="42" fill="white"/>
</clipPath>
</defs>
</svg>
