<svg width="16" height="16" viewBox="0 0 16 16" fill="none" xmlns="http://www.w3.org/2000/svg">
<path d="M12 5.33334H6.66665C5.93027 5.33334 5.33331 5.9303 5.33331 6.66668V12C5.33331 12.7364 5.93027 13.3333 6.66665 13.3333H12C12.7364 13.3333 13.3333 12.7364 13.3333 12V6.66668C13.3333 5.9303 12.7364 5.33334 12 5.33334Z" stroke="white" stroke-linecap="round" stroke-linejoin="round"/>
<path d="M10.6667 5.33332V3.99999C10.6667 3.64637 10.5262 3.30723 10.2762 3.05718C10.0261 2.80713 9.68698 2.66666 9.33335 2.66666H4.00002C3.6464 2.66666 3.30726 2.80713 3.05721 3.05718C2.80716 3.30723 2.66669 3.64637 2.66669 3.99999V9.33332C2.66669 9.68695 2.80716 10.0261 3.05721 10.2761C3.30726 10.5262 3.6464 10.6667 4.00002 10.6667H5.33335" stroke="white" stroke-linecap="round" stroke-linejoin="round"/>
</svg>
