<svg width="24" height="24" viewBox="0 0 24 24" fill="none" xmlns="http://www.w3.org/2000/svg">
<path fill-rule="evenodd" clip-rule="evenodd" d="M17 9.63626L10.7136 16L7 12.2407L7.62563 11.6044L10.7136 13.8316L16.3744 9L17 9.63626Z" fill="#27C29D"/>
<path d="M24 12C24 18.6274 18.6274 24 12 24C5.37258 24 0 18.6274 0 12C0 5.37258 5.37258 0 12 0C18.6274 0 24 5.37258 24 12ZM1.8 12C1.8 17.6333 6.36669 22.2 12 22.2C17.6333 22.2 22.2 17.6333 22.2 12C22.2 6.36669 17.6333 1.8 12 1.8C6.36669 1.8 1.8 6.36669 1.8 12Z" fill="#27C29D"/>
</svg>
