<svg width="80" height="80" viewBox="0 0 80 80" fill="none" xmlns="http://www.w3.org/2000/svg">
<circle cx="40" cy="40" r="40" fill="#2F3641"/>
<rect x="26.6665" y="26.6667" width="26.6667" height="26.6667" rx="3.33333" stroke="white" stroke-width="1.5"/>
<path d="M33.8638 32.803C33.5709 32.5101 33.0961 32.5101 32.8032 32.803C32.5103 33.0959 32.5103 33.5708 32.8032 33.8637L33.8638 32.803ZM47.1972 33.8637C47.4901 33.5708 47.4901 33.0959 47.1972 32.803C46.9043 32.5101 46.4294 32.5101 46.1365 32.803L47.1972 33.8637ZM46.1365 47.197C46.4294 47.4899 46.9043 47.4899 47.1972 47.197C47.4901 46.9041 47.4901 46.4292 47.1972 46.1363L46.1365 47.197ZM32.8032 46.1363C32.5103 46.4292 32.5103 46.9041 32.8032 47.197C33.0961 47.4899 33.5709 47.4899 33.8638 47.197L32.8032 46.1363ZM44.2502 40C44.2502 42.3472 42.3474 44.25 40.0002 44.25V45.75C43.1758 45.75 45.7502 43.1756 45.7502 40H44.2502ZM40.0002 44.25C37.653 44.25 35.7502 42.3472 35.7502 40H34.2502C34.2502 43.1756 36.8245 45.75 40.0002 45.75V44.25ZM35.7502 40C35.7502 37.6528 37.653 35.75 40.0002 35.75V34.25C36.8245 34.25 34.2502 36.8244 34.2502 40H35.7502ZM40.0002 35.75C42.3474 35.75 44.2502 37.6528 44.2502 40H45.7502C45.7502 36.8244 43.1758 34.25 40.0002 34.25V35.75ZM37.1972 36.1363L33.8638 32.803L32.8032 33.8637L36.1365 37.197L37.1972 36.1363ZM43.8638 37.197L47.1972 33.8637L46.1365 32.803L42.8032 36.1363L43.8638 37.197ZM42.8032 43.8637L46.1365 47.197L47.1972 46.1363L43.8638 42.803L42.8032 43.8637ZM36.1365 42.803L32.8032 46.1363L33.8638 47.197L37.1972 43.8637L36.1365 42.803Z" fill="white"/>
</svg>
