<svg width="24" height="24" viewBox="0 0 24 24" fill="none" xmlns="http://www.w3.org/2000/svg">
<path d="M18.5 20V19.5H18H6H5.5V20V21.5H4.5V20V19.5H4H3C2.86739 19.5 2.74021 19.4473 2.64645 19.3536C2.55268 19.2598 2.5 19.1326 2.5 19V4C2.5 3.86739 2.55268 3.74021 2.64645 3.64645C2.74021 3.55268 2.86739 3.5 3 3.5H21C21.1326 3.5 21.2598 3.55268 21.3536 3.64645C21.4473 3.74021 21.5 3.86739 21.5 4V19C21.5 19.1326 21.4473 19.2598 21.3536 19.3536C21.2598 19.4473 21.1326 19.5 21 19.5H20H19.5V20V21.5H18.5V20ZM3.5 18V18.5H4H20H20.5V18V5V4.5H20H4H3.5V5V18ZM12.8755 13.3897L12.5 13.4863V13.874V16.5H11.5V13.874V13.4879L11.1264 13.3902C10.3034 13.1752 9.58682 12.668 9.11043 11.9633C8.63404 11.2586 8.43041 10.4046 8.53758 9.56077C8.64475 8.71694 9.05538 7.94095 9.6928 7.37771C10.3301 6.81458 11.1505 6.5026 12.001 6.5C12.8533 6.49927 13.6766 6.80958 14.3164 7.3727C14.9563 7.93593 15.3687 8.71335 15.4761 9.55904C15.5835 10.4047 15.3785 11.2605 14.8997 11.9659C14.4209 12.6712 13.7011 13.1775 12.8755 13.3897ZM12 12.5C12.663 12.5 13.2989 12.2366 13.7678 11.7678C14.2366 11.2989 14.5 10.663 14.5 10C14.5 9.33696 14.2366 8.70107 13.7678 8.23223C13.2989 7.76339 12.663 7.5 12 7.5C11.337 7.5 10.7011 7.76339 10.2322 8.23223C9.76339 8.70107 9.5 9.33696 9.5 10C9.5 10.663 9.76339 11.2989 10.2322 11.7678C10.7011 12.2366 11.337 12.5 12 12.5Z" fill="#6C6C6C" stroke="#6C6C6C"/>
</svg>
