<svg width="184" height="34" viewBox="0 0 184 34" fill="none" xmlns="http://www.w3.org/2000/svg">
<g clip-path="url(#clip0)">
<path d="M7.69986 21.9512L5.05139 26.3197H9.94878C8.87569 25.0847 8.09371 23.5923 7.69986 21.9512Z" fill="#27C29D"/>
<path d="M25.44 26.314H30.3374L27.6889 21.9454C27.2951 23.5922 26.5131 25.0846 25.44 26.314Z" fill="#27C29D"/>
<path d="M17.6943 9.26311C18.5505 9.26311 19.3781 9.36604 20.1772 9.56617L17.6943 5.47781L15.2114 9.56617C16.0105 9.36604 16.8381 9.26311 17.6943 9.26311Z" fill="#27C29D"/>
<path d="M7.42016 19.6873C7.42016 19.6415 7.42016 19.5958 7.42016 19.5558C7.42016 15.5303 9.72616 12.0481 13.0824 10.3555L16.119 5.34659C8.98413 6.12995 3.42462 12.191 3.42462 19.5558C3.42462 21.3683 3.76139 23.1066 4.37784 24.7019L7.42016 19.6873Z" fill="#FEFEFE"/>
<path d="M22.3068 10.3551C25.663 12.0477 27.969 15.5299 27.969 19.5554C27.969 19.6011 27.969 19.6468 27.969 19.6869L31.0113 24.7015C31.6278 23.1062 31.9646 21.368 31.9646 19.5554C31.9646 12.1906 26.4051 6.12955 19.2645 5.34619L22.3068 10.3551Z" fill="#FEFEFE"/>
<path d="M24.1675 27.549C22.398 28.9842 20.1491 29.8476 17.6947 29.8476C15.2403 29.8476 12.9914 28.9842 11.2219 27.549H5.86218C8.42504 31.3515 12.7688 33.8502 17.6947 33.8502C22.6206 33.8502 26.9643 31.3515 29.5272 27.549H24.1675Z" fill="#FEFEFE"/>
<path d="M16.1247 5.34634L17.6943 2.75609L19.264 5.34634C19.9033 5.41495 20.5312 5.52931 21.1419 5.6837L17.6943 3.05176e-05L14.2468 5.6837C14.8575 5.52931 15.4854 5.41495 16.1247 5.34634Z" fill="#27C29D"/>
<path d="M28.2596 29.1616H35.3888L31.5759 22.8775C31.4275 23.5008 31.2392 24.1126 31.0109 24.7015L32.7346 27.5434H29.5268C29.1444 28.1152 28.722 28.6527 28.2596 29.1616Z" fill="#27C29D"/>
<path d="M5.86203 27.5491H2.65418L4.37797 24.7015C4.14965 24.1126 3.96129 23.5008 3.81289 22.8775L0 29.1616H7.12918C6.66684 28.6527 6.24446 28.1152 5.86203 27.5491Z" fill="#27C29D"/>
</g>
<path d="M51.4903 15.7488V14.8323H53.3826V22.5294H51.4903V21.6391C51.1826 21.985 50.8036 22.2601 50.3794 22.4455C49.9552 22.6309 49.4959 22.7223 49.033 22.7134C48.5201 22.7288 48.0098 22.6335 47.537 22.434C47.0642 22.2344 46.64 21.9353 46.2932 21.557C45.5698 20.7637 45.1844 19.7194 45.219 18.6464C45.2003 18.12 45.2869 17.5952 45.4736 17.1028C45.6603 16.6103 45.9434 16.1601 46.3064 15.7784C46.6543 15.4058 47.0771 15.111 47.547 14.9134C48.017 14.7158 48.5234 14.6199 49.033 14.6319C49.4991 14.6287 49.9603 14.7269 50.3847 14.9198C50.809 15.1127 51.1863 15.3956 51.4903 15.7488ZM51.5199 18.6726C51.5269 18.089 51.3038 17.5261 50.899 17.1056C50.704 16.8925 50.4656 16.7235 50.1998 16.6102C49.934 16.4969 49.6471 16.4418 49.3583 16.4486C49.0673 16.4403 48.7779 16.4947 48.5098 16.6081C48.2417 16.7214 48.0012 16.8911 47.8044 17.1056C47.4094 17.5344 47.1962 18.0997 47.2098 18.6825C47.1963 19.2697 47.4147 19.8385 47.8175 20.2659C48.0123 20.4794 48.2506 20.6486 48.5165 20.7619C48.7823 20.8753 49.0694 20.9302 49.3583 20.923C49.6471 20.9298 49.934 20.8747 50.1998 20.7613C50.4656 20.648 50.704 20.4791 50.899 20.2659C51.3064 19.8404 51.5295 19.2715 51.5199 18.6825V18.6726Z" fill="white"/>
<path d="M61.201 21.81C60.5769 22.4123 59.7129 22.7134 58.6091 22.7134C57.5052 22.7134 56.6413 22.4101 56.0171 21.8034C55.6944 21.4706 55.4441 21.0747 55.2818 20.6405C55.1196 20.2063 55.0489 19.7433 55.0742 19.2804V14.8323H57.0683V19.2804C57.0454 19.7096 57.1917 20.1306 57.4757 20.4532C57.6224 20.6019 57.799 20.7178 57.9938 20.7931C58.1886 20.8684 58.3972 20.9015 58.6058 20.8902C58.8144 20.9021 59.0232 20.8693 59.2181 20.794C59.413 20.7186 59.5896 20.6024 59.7359 20.4532C60.021 20.1312 60.1685 19.7101 60.1465 19.2804V14.8323H62.1373V19.2804C62.1406 20.3645 61.8285 21.2055 61.201 21.81Z" fill="white"/>
<path d="M68.8229 20.5089L69.4175 22.0792C68.74 22.5128 67.9482 22.7337 67.1441 22.7133C66.7737 22.7399 66.4019 22.6849 66.0551 22.5521C65.7082 22.4192 65.3948 22.2118 65.1369 21.9446C64.6836 21.4321 64.4602 20.6732 64.4602 19.6778V16.4978H63.202V14.8322H64.4733V12.1121H66.4444V14.8388H68.9871V16.5043H66.451V19.5562C66.451 20.4608 66.8134 20.913 67.5384 20.913C67.9946 20.8937 68.4377 20.7543 68.8229 20.5089Z" fill="white"/>
<path d="M69.8575 18.6824C69.8441 18.1507 69.9398 17.6219 70.1387 17.1286C70.3376 16.6354 70.6355 16.1881 71.0139 15.8144C71.814 15.0532 72.876 14.6286 73.9804 14.6286C75.0847 14.6286 76.1468 15.0532 76.9469 15.8144C77.3228 16.1893 77.6181 16.6371 77.8147 17.1303C78.0113 17.6235 78.105 18.1516 78.0901 18.6824C78.1036 19.2168 78.0077 19.7483 77.8082 20.2443C77.6088 20.7403 77.3101 21.1903 76.9305 21.5667C76.1256 22.3184 75.0653 22.7365 73.964 22.7365C72.8626 22.7365 71.8024 22.3184 70.9975 21.5667C70.6212 21.1888 70.3261 20.7381 70.13 20.2421C69.934 19.7461 69.8413 19.2154 69.8575 18.6824ZM72.4561 20.2527C72.6511 20.4599 72.8877 20.6235 73.1504 20.7328C73.4131 20.842 73.696 20.8945 73.9804 20.8867C74.2629 20.8915 74.5434 20.8376 74.8041 20.7285C75.0648 20.6193 75.3 20.4573 75.4948 20.2527C75.8942 19.8286 76.1112 19.2647 76.0993 18.6824C76.1036 18.3952 76.0509 18.11 75.9443 17.8433C75.8377 17.5766 75.6794 17.3337 75.4784 17.1285C75.2836 16.9238 75.0483 16.7618 74.7877 16.6527C74.527 16.5435 74.2465 16.4897 73.964 16.4944C73.6795 16.4866 73.3967 16.5391 73.134 16.6484C72.8713 16.7576 72.6346 16.9213 72.4397 17.1285C72.2388 17.3333 72.0812 17.5764 71.9762 17.8433C71.8713 18.1103 71.8211 18.3956 71.8286 18.6824C71.8207 19.2623 72.04 19.8224 72.4397 20.2428L72.4561 20.2527Z" fill="white"/>
<path d="M81.4803 22.5294H79.4895V14.8323H81.4376V15.9032C81.6583 15.5052 81.9922 15.1817 82.3969 14.9735C82.9721 14.6748 83.6254 14.5605 84.2679 14.6464C84.9104 14.7322 85.5109 15.0139 85.9875 15.4531C86.5701 16.0072 86.8614 16.7979 86.8614 17.825V22.5294H84.8706V18.3539C84.9025 17.8475 84.747 17.347 84.4337 16.9479C84.2855 16.7807 84.1017 16.6489 83.896 16.5619C83.6902 16.4749 83.4676 16.4351 83.2444 16.4453C83.0045 16.4373 82.7658 16.4819 82.545 16.5762C82.3242 16.6704 82.1267 16.8118 81.9665 16.9906C81.6329 17.3812 81.4593 17.8834 81.4803 18.3966V22.5294Z" fill="white"/>
<path d="M90.8332 12.7396C90.837 12.9023 90.8075 13.064 90.7465 13.2148C90.6854 13.3657 90.5942 13.5025 90.4784 13.6167C90.2429 13.8426 89.9292 13.9687 89.6029 13.9687C89.2765 13.9687 88.9629 13.8426 88.7274 13.6167C88.6115 13.5025 88.5203 13.3657 88.4593 13.2148C88.3982 13.064 88.3687 12.9023 88.3726 12.7396C88.3678 12.5792 88.397 12.4197 88.4581 12.2714C88.5192 12.123 88.611 11.9893 88.7274 11.8789C88.9621 11.6515 89.2761 11.5243 89.6029 11.5243C89.9297 11.5243 90.2436 11.6515 90.4784 11.8789C90.5947 11.9893 90.6865 12.123 90.7476 12.2714C90.8088 12.4197 90.8379 12.5792 90.8332 12.7396ZM90.5933 14.8322V22.5293H88.5992V14.8322H90.5933Z" fill="white"/>
<path d="M91.9634 18.6824C91.95 18.1507 92.0457 17.6219 92.2446 17.1286C92.4435 16.6354 92.7413 16.1881 93.1198 15.8144C93.9198 15.0532 94.9819 14.6286 96.0863 14.6286C97.1906 14.6286 98.2527 15.0532 99.0528 15.8144C99.4316 16.1879 99.73 16.6351 99.9294 17.1284C100.129 17.6216 100.225 18.1505 100.212 18.6824C100.226 19.2168 100.13 19.7483 99.9305 20.2443C99.7311 20.7403 99.4324 21.1903 99.0528 21.5667C98.2479 22.3184 97.1876 22.7365 96.0863 22.7365C94.9849 22.7365 93.9247 22.3184 93.1198 21.5667C92.7406 21.1902 92.4424 20.7401 92.2435 20.244C92.0446 19.748 91.9493 19.2166 91.9634 18.6824ZM94.562 20.2527C94.7603 20.4537 94.9966 20.6133 95.2571 20.7223C95.5177 20.8312 95.7973 20.8873 96.0797 20.8873C96.3621 20.8873 96.6417 20.8312 96.9022 20.7223C97.1628 20.6133 97.3991 20.4537 97.5974 20.2527C98.0028 19.8312 98.2258 19.2671 98.2183 18.6824C98.2226 18.3952 98.1699 18.11 98.0633 17.8433C97.9567 17.5766 97.7984 17.3337 97.5974 17.1285C97.3991 16.9274 97.1628 16.7678 96.9022 16.6589C96.6417 16.5499 96.3621 16.4938 96.0797 16.4938C95.7973 16.4938 95.5177 16.5499 95.2571 16.6589C94.9966 16.7678 94.7603 16.9274 94.562 17.1285C94.3611 17.3331 94.2037 17.5762 94.0992 17.8433C93.9948 18.1103 93.9455 18.3957 93.9542 18.6824C93.944 19.2621 94.1623 19.8227 94.562 20.2428V20.2527Z" fill="white"/>
<path d="M102.472 22.7559C102.318 22.7599 102.165 22.7328 102.022 22.6764C101.879 22.62 101.748 22.5353 101.638 22.4274C101.529 22.3198 101.443 22.1906 101.387 22.0481C101.33 21.9056 101.304 21.7528 101.31 21.5996C101.305 21.4499 101.332 21.3009 101.388 21.1623C101.445 21.0237 101.53 20.8984 101.638 20.7947C101.748 20.6871 101.879 20.6027 102.022 20.5463C102.165 20.4899 102.319 20.4626 102.472 20.4662C102.621 20.4647 102.768 20.493 102.905 20.5494C103.042 20.6059 103.167 20.6893 103.271 20.7947C103.378 20.8991 103.462 21.0244 103.519 21.1629C103.576 21.3014 103.603 21.45 103.599 21.5996C103.604 21.7527 103.577 21.9051 103.521 22.0474C103.464 22.1898 103.379 22.3191 103.271 22.4274C103.167 22.5332 103.042 22.6168 102.905 22.6732C102.768 22.7297 102.621 22.7578 102.472 22.7559Z" fill="#27C29D"/>
<path d="M109.211 13.2225C108.828 13.1916 108.448 13.3092 108.149 13.551C108.024 13.681 107.926 13.8357 107.863 14.0053C107.799 14.1749 107.772 14.3558 107.781 14.5365V14.8059H110.17V16.4715H107.781V22.5293H105.791V16.4977H104.605V14.8322H105.791V14.5201C105.791 13.5345 106.08 12.7625 106.651 12.2468C107.276 11.7041 108.085 11.4209 108.912 11.455C109.678 11.4549 110.432 11.6493 111.103 12.0201L110.446 13.5444C110.059 13.3562 109.64 13.2468 109.211 13.2225Z" fill="white"/>
<path d="M110.567 18.6824C110.554 18.1507 110.649 17.6219 110.848 17.1287C111.047 16.6354 111.345 16.1881 111.723 15.8144C112.523 15.0532 113.586 14.6287 114.69 14.6287C115.794 14.6287 116.856 15.0532 117.656 15.8144C118.034 16.1888 118.33 16.6364 118.528 17.1296C118.725 17.6228 118.82 18.1512 118.806 18.6824C118.82 19.2168 118.724 19.7483 118.524 20.2444C118.325 20.7404 118.026 21.1904 117.647 21.5667C116.842 22.3184 115.781 22.7365 114.68 22.7365C113.579 22.7365 112.518 22.3184 111.714 21.5667C111.336 21.1894 111.04 20.7389 110.843 20.2429C110.645 19.7469 110.552 19.2159 110.567 18.6824ZM113.166 20.2527C113.364 20.4537 113.6 20.6134 113.861 20.7223C114.121 20.8313 114.401 20.8874 114.683 20.8874C114.966 20.8874 115.245 20.8313 115.506 20.7223C115.766 20.6134 116.003 20.4537 116.201 20.2527C116.611 19.8333 116.839 19.2689 116.835 18.6824C116.839 18.3952 116.787 18.11 116.68 17.8433C116.574 17.5766 116.415 17.3337 116.214 17.1285C116.016 16.9275 115.78 16.7678 115.519 16.6589C115.258 16.5499 114.979 16.4938 114.696 16.4938C114.414 16.4938 114.134 16.5499 113.874 16.6589C113.613 16.7678 113.377 16.9275 113.179 17.1285C112.977 17.3326 112.818 17.5755 112.712 17.8425C112.607 18.1096 112.557 18.3953 112.564 18.6824C112.552 19.2612 112.768 19.8216 113.166 20.2428V20.2527Z" fill="white"/>
<path d="M126.237 21.8099C125.613 22.4122 124.749 22.7133 123.645 22.7133C122.541 22.7133 121.677 22.41 121.053 21.8033C120.732 21.4697 120.484 21.0734 120.323 20.6392C120.163 20.2051 120.094 19.7424 120.12 19.2803V14.8322H122.114V19.2803C122.091 19.7095 122.238 20.1305 122.522 20.4531C122.831 20.7345 123.234 20.8905 123.652 20.8905C124.07 20.8905 124.473 20.7345 124.782 20.4531C125.067 20.131 125.214 19.7099 125.192 19.2803V14.8322H127.183V19.2803C127.177 20.3644 126.865 21.2054 126.237 21.8099Z" fill="white"/>
<path d="M130.879 22.5293H128.888V14.8322H130.836V15.9031C131.057 15.5051 131.391 15.1816 131.796 14.9734C132.371 14.6747 133.024 14.5604 133.667 14.6463C134.309 14.7321 134.91 15.0138 135.386 15.4531C135.967 16.0072 136.258 16.7978 136.26 17.8249V22.5293H134.269V18.3538C134.3 17.8476 134.144 17.3477 133.832 16.9478C133.684 16.7806 133.5 16.6488 133.295 16.5618C133.089 16.4748 132.866 16.435 132.643 16.4452C132.403 16.4372 132.165 16.4818 131.944 16.5761C131.723 16.6703 131.525 16.8118 131.365 16.9905C131.031 17.3805 130.857 17.8831 130.879 18.3966V22.5293Z" fill="white"/>
<path d="M143.721 15.7258V11.7836H145.712V22.5294H143.773V21.5832C143.491 21.9435 143.128 22.2331 142.714 22.4292C142.3 22.6253 141.846 22.7226 141.388 22.7133C140.879 22.7281 140.372 22.6337 139.901 22.4366C139.431 22.2394 139.008 21.944 138.662 21.5701C137.932 20.7881 137.537 19.7518 137.561 18.6824C137.533 17.6168 137.923 16.5825 138.649 15.8014C138.995 15.4264 139.418 15.1291 139.888 14.9292C140.358 14.7293 140.865 14.6313 141.375 14.6417C141.822 14.6373 142.264 14.7323 142.67 14.9198C143.076 15.1073 143.435 15.3826 143.721 15.7258ZM143.819 18.6824C143.836 18.1021 143.622 17.5389 143.225 17.1154C143.031 16.9004 142.793 16.7302 142.527 16.6167C142.261 16.5032 141.973 16.4492 141.684 16.4584C141.393 16.4506 141.104 16.5051 140.836 16.6185C140.568 16.7318 140.327 16.9013 140.13 17.1154C139.735 17.5402 139.523 18.1028 139.539 18.6824C139.524 19.2707 139.736 19.8421 140.13 20.279C140.33 20.4885 140.571 20.6534 140.839 20.7633C141.107 20.8731 141.395 20.9252 141.684 20.9164C141.971 20.9265 142.258 20.8749 142.524 20.7649C142.789 20.655 143.028 20.4893 143.225 20.279C143.622 19.844 143.836 19.2716 143.819 18.6824Z" fill="white"/>
<path d="M153.382 15.7489V14.8323H155.271V22.5294H153.379V21.6392C153.071 21.985 152.692 22.2601 152.268 22.4455C151.844 22.631 151.385 22.7224 150.922 22.7134C150.408 22.7291 149.898 22.6339 149.424 22.4344C148.951 22.2348 148.526 21.9356 148.179 21.557C147.456 20.7634 147.072 19.7191 147.108 18.6464C147.089 18.12 147.176 17.5953 147.362 17.1028C147.549 16.6104 147.832 16.1601 148.195 15.7784C148.543 15.4058 148.966 15.111 149.436 14.9134C149.906 14.7158 150.412 14.6199 150.922 14.6319C151.389 14.6285 151.85 14.7266 152.275 14.9194C152.7 15.1123 153.078 15.3953 153.382 15.7489ZM153.409 18.6727C153.416 18.089 153.193 17.5261 152.788 17.1056C152.593 16.892 152.355 16.7227 152.089 16.6093C151.823 16.496 151.536 16.4412 151.247 16.4486C150.956 16.4408 150.667 16.4953 150.399 16.6087C150.131 16.722 149.89 16.8915 149.693 17.1056C149.302 17.5323 149.09 18.0936 149.102 18.6727C149.087 19.2601 149.306 19.8295 149.71 20.2561C149.91 20.462 150.149 20.6258 150.413 20.7376C150.678 20.8494 150.962 20.907 151.249 20.907C151.536 20.907 151.82 20.8494 152.084 20.7376C152.349 20.6258 152.588 20.462 152.788 20.2561C153.193 19.8331 153.416 19.2681 153.409 18.6825V18.6727Z" fill="white"/>
<path d="M162.042 20.509L162.633 22.0793C161.956 22.5134 161.164 22.7343 160.36 22.7133C159.99 22.74 159.618 22.6849 159.271 22.5521C158.924 22.4193 158.611 22.2119 158.353 21.9446C157.903 21.4321 157.676 20.6732 157.676 19.6778V16.4978H156.418V14.8322H157.689V12.1121H159.66V14.8388H162.203V16.5044H159.66V19.5563C159.66 20.4597 160.025 20.913 160.748 20.913C161.207 20.895 161.654 20.7556 162.042 20.509Z" fill="white"/>
<path d="M165.839 12.7395C165.843 12.9018 165.814 13.0632 165.753 13.214C165.693 13.3648 165.603 13.5017 165.488 13.6166C165.374 13.732 165.237 13.8227 165.086 13.8832C164.935 13.9437 164.773 13.9726 164.611 13.9681C164.449 13.9729 164.288 13.9441 164.137 13.8836C163.987 13.8232 163.851 13.7322 163.737 13.6166C163.621 13.5023 163.53 13.3656 163.469 13.2147C163.408 13.0639 163.378 12.9021 163.382 12.7395C163.377 12.5791 163.407 12.4195 163.468 12.2712C163.529 12.1229 163.621 11.9892 163.737 11.8787C163.85 11.7627 163.987 11.6712 164.137 11.6102C164.287 11.5491 164.449 11.5198 164.611 11.5239C164.773 11.5201 164.935 11.5496 165.086 11.6106C165.237 11.6716 165.374 11.7629 165.488 11.8787C165.603 11.9898 165.694 12.1238 165.755 12.272C165.815 12.4202 165.844 12.5794 165.839 12.7395ZM165.6 14.8321V22.5292H163.609V14.8321H165.6Z" fill="white"/>
<path d="M166.97 18.6824C166.957 18.1505 167.053 17.6216 167.253 17.1284C167.452 16.6351 167.751 16.188 168.129 15.8144C168.93 15.0532 169.992 14.6287 171.096 14.6287C172.2 14.6287 173.262 15.0532 174.062 15.8144C174.441 16.1881 174.739 16.6354 174.938 17.1287C175.137 17.6219 175.232 18.1507 175.219 18.6824C175.233 19.2166 175.138 19.748 174.939 20.2441C174.74 20.7401 174.442 21.1902 174.062 21.5667C173.258 22.3184 172.197 22.7365 171.096 22.7365C169.995 22.7365 168.934 22.3184 168.129 21.5667C167.75 21.1904 167.451 20.7404 167.252 20.2444C167.052 19.7483 166.956 19.2168 166.97 18.6824ZM169.568 20.2527C169.767 20.4534 170.004 20.6128 170.265 20.7215C170.525 20.8303 170.805 20.8863 171.088 20.8863C171.37 20.8863 171.65 20.8303 171.911 20.7215C172.172 20.6128 172.408 20.4534 172.607 20.2527C173.012 19.8312 173.236 19.2671 173.228 18.6824C173.232 18.3952 173.18 18.11 173.073 17.8433C172.966 17.5766 172.808 17.3337 172.607 17.1285C172.408 16.9278 172.172 16.7684 171.911 16.6597C171.65 16.5509 171.37 16.4949 171.088 16.4949C170.805 16.4949 170.525 16.5509 170.265 16.6597C170.004 16.7684 169.767 16.9278 169.568 17.1285C169.369 17.3337 169.212 17.5771 169.108 17.844C169.004 18.111 168.955 18.3961 168.964 18.6824C168.954 19.2615 169.171 19.8216 169.568 20.2428V20.2527Z" fill="white"/>
<path d="M178.596 22.5292H176.625V14.8321H178.576V15.903C178.797 15.505 179.131 15.1815 179.535 14.9733C180.11 14.6749 180.763 14.5608 181.405 14.6466C182.047 14.7324 182.647 15.014 183.123 15.453C183.707 16.0071 184 16.7977 184 17.8248V22.5292H182.006V18.3538C182.031 17.8486 181.869 17.3518 181.552 16.9576C181.405 16.7905 181.222 16.6586 181.017 16.5716C180.811 16.4846 180.589 16.4448 180.366 16.4549C180.127 16.4469 179.888 16.4916 179.667 16.5858C179.446 16.68 179.249 16.8215 179.089 17.0003C178.751 17.3892 178.575 17.892 178.596 18.4063V22.5292Z" fill="white"/>
<defs>
<clipPath id="clip0">
<rect width="35.3891" height="33.8503" fill="white"/>
</clipPath>
</defs>
</svg>
