<svg width="8" height="8" viewBox="0 0 8 8" fill="none" xmlns="http://www.w3.org/2000/svg">
<path d="M3.2 1.04001L4.24 0.290009C4.56 0.816675 4.87333 1.28334 5.18 1.69001C5.49333 2.09668 5.81333 2.46001 6.14 2.78001C6.46667 3.10001 6.81667 3.39668 7.19 3.67001V3.73001C6.81667 3.99668 6.46667 4.29001 6.14 4.61001C5.81333 4.93001 5.49333 5.29334 5.18 5.70001C4.87333 6.10668 4.56 6.57334 4.24 7.10001L3.2 6.36001C3.51333 5.88668 3.83667 5.47668 4.17 5.13001C4.50333 4.78334 4.83333 4.49001 5.16 4.25001C4.88667 4.29001 4.59667 4.32334 4.29 4.35001C3.98333 4.37001 3.66 4.38001 3.32 4.38001H0.529999V3.01001H3.32C3.66 3.01001 3.98333 3.02334 4.29 3.05001C4.59667 3.07001 4.88667 3.10001 5.16 3.14001C4.83333 2.90667 4.50333 2.61667 4.17 2.27001C3.83667 1.91667 3.51333 1.50668 3.2 1.04001Z" fill="#27C29D"/>
</svg>
