<svg width="24" height="24" viewBox="0 0 24 24" fill="none" xmlns="http://www.w3.org/2000/svg">
<g opacity="0.48">
<rect x="4" y="4" width="16" height="16" rx="2" stroke="white"/>
<path d="M8.35355 7.64645C8.15829 7.45118 7.84171 7.45118 7.64645 7.64645C7.45118 7.84171 7.45118 8.15829 7.64645 8.35355L8.35355 7.64645ZM16.3536 8.35355C16.5488 8.15829 16.5488 7.84171 16.3536 7.64645C16.1583 7.45118 15.8417 7.45118 15.6464 7.64645L16.3536 8.35355ZM15.6464 16.3536C15.8417 16.5488 16.1583 16.5488 16.3536 16.3536C16.5488 16.1583 16.5488 15.8417 16.3536 15.6464L15.6464 16.3536ZM7.64645 15.6464C7.45118 15.8417 7.45118 16.1583 7.64645 16.3536C7.84171 16.5488 8.15829 16.5488 8.35355 16.3536L7.64645 15.6464ZM14.5 12C14.5 13.3807 13.3807 14.5 12 14.5V15.5C13.933 15.5 15.5 13.933 15.5 12H14.5ZM12 14.5C10.6193 14.5 9.5 13.3807 9.5 12H8.5C8.5 13.933 10.067 15.5 12 15.5V14.5ZM9.5 12C9.5 10.6193 10.6193 9.5 12 9.5V8.5C10.067 8.5 8.5 10.067 8.5 12H9.5ZM12 9.5C13.3807 9.5 14.5 10.6193 14.5 12H15.5C15.5 10.067 13.933 8.5 12 8.5V9.5ZM10.3536 9.64645L8.35355 7.64645L7.64645 8.35355L9.64645 10.3536L10.3536 9.64645ZM14.3536 10.3536L16.3536 8.35355L15.6464 7.64645L13.6464 9.64645L14.3536 10.3536ZM13.6464 14.3536L15.6464 16.3536L16.3536 15.6464L14.3536 13.6464L13.6464 14.3536ZM9.64645 13.6464L7.64645 15.6464L8.35355 16.3536L10.3536 14.3536L9.64645 13.6464Z" fill="white"/>
</g>
</svg>
