<svg width="16" height="16" viewBox="0 0 16 16" fill="none" xmlns="http://www.w3.org/2000/svg">
<path d="M6.55208 6.11468C6.17917 5.74166 5.70402 5.4876 5.18672 5.38464C4.66941 5.28168 4.13319 5.33445 3.64588 5.53626C3.15856 5.73807 2.74203 6.07986 2.44898 6.51841C2.15593 6.95696 1.99951 7.47256 1.99951 8.00001C1.99951 8.52746 2.15593 9.04307 2.44898 9.48162C2.74203 9.92016 3.15856 10.262 3.64588 10.4638C4.13319 10.6656 4.66941 10.7183 5.18672 10.6154C5.70402 10.5124 6.17917 10.2584 6.55208 9.88534C7.1438 9.34873 7.63426 8.71013 8.00008 8.00001C8.3659 7.28989 8.85636 6.6513 9.44808 6.11468C9.82099 5.74166 10.2961 5.4876 10.8134 5.38464C11.3308 5.28168 11.867 5.33445 12.3543 5.53626C12.8416 5.73807 13.2581 6.07986 13.5512 6.51841C13.8442 6.95696 14.0007 7.47256 14.0007 8.00001C14.0007 8.52746 13.8442 9.04307 13.5512 9.48162C13.2581 9.92016 12.8416 10.262 12.3543 10.4638C11.867 10.6656 11.3308 10.7183 10.8134 10.6154C10.2961 10.5124 9.82099 10.2584 9.44808 9.88534C8.85636 9.34873 8.3659 8.71013 8.00008 8.00001C7.63426 7.28989 7.1438 6.6513 6.55208 6.11468" stroke="#2BD5AD" stroke-linecap="round" stroke-linejoin="round"/>
</svg>
