<svg width="16" height="16" viewBox="0 0 16 16" fill="none" xmlns="http://www.w3.org/2000/svg">
<g opacity="0.48">
<path d="M11.3334 7.33334H4.66671C3.93033 7.33334 3.33337 7.93029 3.33337 8.66667V12.6667C3.33337 13.403 3.93033 14 4.66671 14H11.3334C12.0698 14 12.6667 13.403 12.6667 12.6667V8.66667C12.6667 7.93029 12.0698 7.33334 11.3334 7.33334Z" stroke="white" stroke-linecap="round" stroke-linejoin="round"/>
<path d="M8.00004 11.3333C8.36823 11.3333 8.66671 11.0349 8.66671 10.6667C8.66671 10.2985 8.36823 10 8.00004 10C7.63185 10 7.33337 10.2985 7.33337 10.6667C7.33337 11.0349 7.63185 11.3333 8.00004 11.3333Z" stroke="white" stroke-linecap="round" stroke-linejoin="round"/>
<path d="M5.33337 7.33334V4C5.33337 3.29276 5.61433 2.61448 6.11442 2.11438C6.61452 1.61429 7.2928 1.33334 8.00004 1.33334C8.70728 1.33334 9.38556 1.61429 9.88566 2.11438C10.3858 2.61448 10.6667 3.29276 10.6667 4" stroke="white" stroke-linecap="round" stroke-linejoin="round"/>
</g>
</svg>
