<svg id="Layer_1" data-name="Layer 1" xmlns="http://www.w3.org/2000/svg" xmlns:xlink="http://www.w3.org/1999/xlink" viewBox="0 0 1000 649.83"><defs><style>.cls-1{fill:url(#linear-gradient);}.cls-10,.cls-13,.cls-16,.cls-2,.cls-6,.cls-7{fill:#fff;}.cls-2{opacity:0.36;}.cls-3{fill:url(#linear-gradient-2);}.cls-4{fill:url(#linear-gradient-3);}.cls-5{fill:url(#linear-gradient-4);}.cls-6{opacity:0.22;}.cls-7{opacity:0.83;}.cls-8{fill:url(#linear-gradient-5);}.cls-14,.cls-9{fill:#0051ff;}.cls-10{font-size:39.38px;font-family:Rubik-Bold, Rubik;font-weight:700;}.cls-11{letter-spacing:-0.01em;}.cls-12{letter-spacing:-0.02em;}.cls-14{opacity:0.57;}.cls-15{fill:none;stroke-linecap:round;stroke-width:6px;}.cls-15,.cls-16{stroke:#00ffda;stroke-miterlimit:10;}.cls-16{stroke-width:5px;}</style><linearGradient id="linear-gradient" x1="548.77" y1="185.83" x2="1005.52" y2="362.64" gradientUnits="userSpaceOnUse"><stop offset="0" stop-color="#0051ff"/><stop offset="0.11" stop-color="#025bfd"/><stop offset="0.3" stop-color="#0875f7"/><stop offset="0.55" stop-color="#129fed"/><stop offset="0.83" stop-color="#1fd9e0"/><stop offset="1" stop-color="#27ffd8"/></linearGradient><linearGradient id="linear-gradient-2" x1="410.12" y1="185.37" x2="1106.3" y2="460.4" xlink:href="#linear-gradient"/><linearGradient id="linear-gradient-3" x1="905.4" y1="97.63" x2="894.35" y2="499.13" xlink:href="#linear-gradient"/><linearGradient id="linear-gradient-4" x1="843.06" y1="366.19" x2="975.34" y2="366.19" xlink:href="#linear-gradient"/><linearGradient id="linear-gradient-5" x1="229.83" y1="-126.77" x2="229.83" y2="573.08" gradientUnits="userSpaceOnUse"><stop offset="0" stop-color="#00ffd3"/><stop offset="1" stop-color="#1486ff" stop-opacity="0"/></linearGradient></defs><path class="cls-1" d="M625.74,128h0c9.21-13.34,33-21.7,51.6-22.5a45.08,45.08,0,0,1,15,1.93l4.33,1.31a46,46,0,0,1,5.43,2l213.42,95.39a45.69,45.69,0,0,1,27,41.71V452.19a10,10,0,0,1-13,9.51l-87.26-27.78Z"/><path class="cls-2" d="M638.36,133.65l48.16-14.26,223.87,104.4a12.92,12.92,0,0,1,7.46,11.51L921,436.79,850.43,411Z"/><path class="cls-3" d="M625.74,128,866.65,236a16.2,16.2,0,0,1,9.57,14.77V488.27a16.19,16.19,0,0,1-23.7,14.34L634.42,388.53a16.18,16.18,0,0,1-8.68-14.34Z"/><polygon class="cls-4" points="917.85 235.3 876.22 250.81 876.22 444.74 921.03 436.79 917.85 235.3"/><path class="cls-5" d="M822.81,332.12,871,351.74a13.39,13.39,0,0,0,10.43-.15l59-26.08a4.7,4.7,0,0,1,6.6,4.3v42.57a4.69,4.69,0,0,1-2.74,4.27L880.42,406a13.36,13.36,0,0,1-10.92.11L817,383.26a16,16,0,0,1-9.57-14.63V342.45A11.15,11.15,0,0,1,822.81,332.12Z"/><ellipse class="cls-6" cx="830.38" cy="361.39" rx="15.55" ry="21.37" transform="translate(-21.68 54.59) rotate(-3.72)"/><ellipse class="cls-7" cx="828.32" cy="361.26" rx="13.51" ry="21.37" transform="translate(-21.68 54.46) rotate(-3.72)"/><rect class="cls-8" x="72.36" y="80.94" width="314.94" height="416.39" rx="27.11"/><rect class="cls-9" x="99.99" y="392.19" width="254.16" height="82.88" rx="22.21"/><text class="cls-10" transform="translate(133.14 448.34)">CONN<tspan class="cls-11" x="112.32" y="0">E</tspan><tspan x="137.25" y="0">C</tspan><tspan class="cls-12" x="164.9" y="0">T</tspan></text><rect class="cls-9" x="99.99" y="132.65" width="81.96" height="81.96" rx="9.57"/><rect class="cls-9" x="99.99" y="248.68" width="81.96" height="81.96" rx="9.57"/><rect class="cls-13" x="203.13" y="136.45" width="151.02" height="30.1"/><rect class="cls-13" x="203.13" y="178.52" width="151.02" height="30.1"/><rect class="cls-13" x="203.13" y="253.57" width="151.02" height="30.1"/><rect class="cls-13" x="203.13" y="295.65" width="151.02" height="30.1"/><ellipse class="cls-14" cx="827.91" cy="361.26" rx="6.12" ry="8.49"/><polyline class="cls-15" points="825.84 361.26 779.7 361.26 779.7 546.9 227.07 546.9 227.07 475.07"/><circle class="cls-16" cx="227.07" cy="473.13" r="9.33"/></svg>