<svg id="Layer_1" data-name="Layer 1" xmlns="http://www.w3.org/2000/svg" xmlns:xlink="http://www.w3.org/1999/xlink" viewBox="0 0 1000 649.83"><defs><style>.cls-1{fill:url(#linear-gradient);}.cls-2{fill:#fff;}.cls-3{fill:none;}.cls-4{fill:url(#linear-gradient-2);}.cls-5{fill:url(#linear-gradient-3);}</style><linearGradient id="linear-gradient" x1="265.02" y1="324.91" x2="938.89" y2="324.91" gradientUnits="userSpaceOnUse"><stop offset="0" stop-color="#00ffd3"/><stop offset="1" stop-color="#1486ff" stop-opacity="0"/></linearGradient><linearGradient id="linear-gradient-2" x1="434.53" y1="152.57" x2="276.7" y2="310.4" gradientTransform="matrix(-1, 0, 0, 1, 630.82, 0)" gradientUnits="userSpaceOnUse"><stop offset="0" stop-color="#00ffd3"/><stop offset="1" stop-color="#145cff"/></linearGradient><linearGradient id="linear-gradient-3" x1="348.75" y1="40.8" x2="348.75" y2="483.76" gradientTransform="matrix(-1, 0, 0, 1, 630.82, 0)" gradientUnits="userSpaceOnUse"><stop offset="0" stop-color="#00ffd3"/><stop offset="1" stop-color="#1486ff"/></linearGradient></defs><path class="cls-1" d="M885,620.82c-47.51-3.3-88.48-33.43-133.71-48.36C716.3,560.91,679,558.58,643,551c-40.18-8.42-78.92-23.35-119.52-29.39-42.91-6.4-86.58-2.69-130-2.09s-86.7,1-126-17.26c-5-11.39-1.8-25.22,5.8-35.07s18.94-16.16,30.67-20.31c27.86-9.85,58.22-8.61,87.78-8.61,27.07,0,55.26-1.43,79.49-13h-1.5c-14.25-1.9-26.16-12.47-33.34-24.92S426,373.62,422.86,359.59q-6.53-29.49-13-59c-2.06-9.29-4-19.38,0-28,3.55-7.56,11-12.38,18.11-16.79,23.52-14.63,46.9-30.32,70.42-44.94-29.26-50.63-81-84.73-135.24-106.52-22.72-9.12-46.88-16.86-64.81-33.51-6-5.53-11.24-12.25-13-20.18s.66-17.21,7.45-21.69c48.52,14,95.7,29.15,144.23,43.19,18.45,5.34,37,10.72,54.24,19.22,43.1,21.26,74.41,60.1,104.27,97.75l-5.72-7c16.92-7.47,37.32-1.54,51.91,9.83s24.71,27.38,35,42.78a1002.69,1002.69,0,0,0,81.15,106c19.08,21.74,39.37,42.88,63.82,58.34a179.27,179.27,0,0,0,89.54,27.51S988.46,543.37,885,620.82"/><path class="cls-2" d="M518.9,379.72h0a34.75,34.75,0,0,1-33.35-42.37c3.28-14.64,15.2-25.16,28.17-35.53a1,1,0,0,1,1.25,1.57c-12.68,10.13-24.33,20.39-27.47,34.4a32.75,32.75,0,0,0,31.44,39.93,1,1,0,0,1,1,1A1,1,0,0,1,518.9,379.72Z"/><path class="cls-2" d="M536.37,337.41a1,1,0,0,1-.78-.36,151.87,151.87,0,0,1-32.31-70.94,1,1,0,0,1,2-.33,149.86,149.86,0,0,0,31.89,70,1,1,0,0,1-.77,1.63Z"/><path class="cls-2" d="M541.61,317a1,1,0,0,1-.57-.18c-24.85-17.41-39.28-48.2-36.77-78.44a1,1,0,0,1,1.08-.91,1,1,0,0,1,.91,1.08c-2.45,29.54,11.65,59.62,35.93,76.63a1,1,0,0,1,.24,1.4A1,1,0,0,1,541.61,317Z"/><path class="cls-2" d="M471.17,426.28a1,1,0,0,1-.43-1.9c2.22-1.06,4.4-2.21,6.49-3.42C502.61,406.34,517.75,381.37,526,363c10.57-23.62,16.12-49.34,21.48-74.21a1,1,0,1,1,2,.42c-5.39,25-10.95,50.8-21.62,74.6-8.35,18.64-23.72,44-49.57,58.88-2.13,1.23-4.36,2.4-6.63,3.48A1,1,0,0,1,471.17,426.28Z"/><path class="cls-2" d="M490.25,327.65a1.13,1.13,0,0,1-.44-.1,346.38,346.38,0,0,1-50.25-30,1,1,0,1,1,1.17-1.62,343.61,343.61,0,0,0,50,29.78,1,1,0,0,1-.44,1.9Z"/><path class="cls-2" d="M450.64,380.55a1,1,0,0,1-.61-1.8,70.53,70.53,0,0,1,43.48-14.08,1,1,0,0,1,1,1,1,1,0,0,1-1,1,68.4,68.4,0,0,0-42.23,13.68A1.05,1.05,0,0,1,450.64,380.55Z"/><path class="cls-2" d="M666.86,257.89a1,1,0,0,1-.92-.6,73.92,73.92,0,0,0-51.67-42.19,1,1,0,0,1,.41-2,75.93,75.93,0,0,1,53.09,43.35,1,1,0,0,1-.52,1.32A1.09,1.09,0,0,1,666.86,257.89Z"/><path class="cls-3" d="M885,620.82c-47.51-3.3-88.48-33.43-133.71-48.36C716.3,560.91,679,558.58,643,551c-40.18-8.42-78.92-23.35-119.52-29.39-42.91-6.4-86.58-2.69-130-2.09s-86.7,1-126-17.26c-5-11.39-1.8-25.22,5.8-35.07s18.94-16.16,30.67-20.31c27.86-9.85,58.22-8.61,87.78-8.61,27.07,0,55.26-1.43,79.49-13h-1.5c-14.25-1.9-26.16-12.47-33.34-24.92S426,373.62,422.86,359.59q-6.53-29.49-13-59c-2.06-9.29-4-19.38,0-28,3.55-7.56,11-12.38,18.11-16.79,23.52-14.63,46.9-30.32,70.42-44.94-29.26-50.63-81-84.73-135.24-106.52-22.72-9.12-46.88-16.86-64.81-33.51-6-5.53-11.24-12.25-13-20.18s.66-17.21,7.45-21.69c48.52,14,95.7,29.15,144.23,43.19,18.45,5.34,37,10.72,54.24,19.22,43.1,21.26,74.41,60.1,104.27,97.75l-5.72-7c16.92-7.47,37.32-1.54,51.91,9.83s24.71,27.38,35,42.78a1002.69,1002.69,0,0,0,81.15,106c19.08,21.74,39.37,42.88,63.82,58.34a179.27,179.27,0,0,0,89.54,27.51"/><path class="cls-2" d="M531.33,353.4a1.07,1.07,0,0,1-.39-.07,71.86,71.86,0,0,0-44.94-3.5,1,1,0,0,1-.48-1.94,73.84,73.84,0,0,1,46.19,3.59,1,1,0,0,1-.38,1.92Z"/><path class="cls-2" d="M329.36,518.78a1.15,1.15,0,0,1-.36-.07,1,1,0,0,1-.57-1.3c3.79-9.76,3.56-20.16-.62-27.82-4.64-8.5-14.51-14.57-26.41-16.23-10.87-1.51-21.9.41-32.56,2.27a1,1,0,1,1-.35-2c10.82-1.88,22-3.84,33.18-2.28,12.53,1.75,23,8.19,27.89,17.25,4.53,8.29,4.79,19.05.73,29.51A1,1,0,0,1,329.36,518.78Z"/><ellipse class="cls-4" cx="313.86" cy="270.14" rx="157.27" ry="181.29"/><ellipse class="cls-5" cx="282.07" cy="270.14" rx="157.27" ry="181.29"/><path class="cls-2" d="M379.2,270.24c0-54.24-28.69-100.73-69.52-120.48-1.42-.8-2.86-1.58-4.32-2.31a87.68,87.68,0,0,0-66.62-5c-1.32.36-3.32.89-5.23,1.61s-3.89,1.33-5.15,1.89a117.11,117.11,0,0,0-30.71,19.45,142.14,142.14,0,0,0-24.8,28.44,88.88,88.88,0,0,0-7.2,13.09c-1.54,3.45-2.27,5.62-2.27,5.62-1.16,2.8-2,5.72-.56,3.18s3.76-7.2,6.06-10.94,4.37-6.7,4.55-6.54a9.58,9.58,0,0,1-.91,1.58c-.58.93-1.34,2.17-2.1,3.41.19.15-.67,2.23-1.69,4.62s-2.19,5.1-2.86,6.39-2.66,6.05-4.45,10.89a97.19,97.19,0,0,0-3.54,11.23c-.53,2.16-.38,2.22.22.92s1.66-3.84,3.12-6.93a215.21,215.21,0,0,1,10.3-19.08c3-4.78.46.35.75.56,2.68-5,4.41-7.13,7.41-11.82,0,0,.17-.2.45-.57l1.18-1.6c1-1.37,2.39-3.2,4-5.23a150,150,0,0,1,10.08-11.47l1.62-1.72c.57-.63,1.36-1.38,2.36-2.33s2.21-2.12,3.74-3.4c2-1.74,2-1.85,1.88-2a1.48,1.48,0,0,1,.13.21c1-.94,2.53-2.17,4.1-3.39s3.22-2.28,4.26-3.11l.11.22a105.52,105.52,0,0,1,13.35-8.07,2.34,2.34,0,0,1,.09.24c1.14-.63,2.33-1.11,3.2-1.52a6,6,0,0,1,1.49-.57l.08.24,4.42-1.85,1.11-.45a74.81,74.81,0,0,0-11.7,15.21c-7.33,12.4-10.42,28.44-9.51,43.59a80.39,80.39,0,0,0,4.84,22.78,73.13,73.13,0,0,0,11.45,19.67c9.37,11.26,20.27,18.43,30.15,25.21s19.31,12.94,26.4,20.77c7.23,7.64,11.77,17.43,13.48,29.09a65.54,65.54,0,0,1-3.71,34.59c-3.75,9.45-9.75,18-16.81,25.61-.73.16-1.46.33-2.19.47a96.25,96.25,0,0,1-32,.35,94.94,94.94,0,0,1-10.08-2.6A88.43,88.43,0,0,1,207.33,373c-9.64-7.31-17.86-17-24.21-26.38-3.2-4.71-5.89-8.95-7.85-12l-3.14-4.89c-1.45-2.54-3-5-2-2.21s3.36,7.44,5.46,11.33,3.92,7.08,3.75,7.22a41.28,41.28,0,0,1-3.12-5c-.18.15-1.53-1.59-3-3.71a52.19,52.19,0,0,1-3.59-6.08c-.76-1.29-3.15-6-5.24-10.88s-3.86-10-4.33-11.47c-.64-2.22-.8-2.17-.64-.65a57.35,57.35,0,0,0,1.69,8.17c1,3.61,2.28,7.8,3.76,11.77s3.1,7.7,4.45,10.48c2.7,5.57-.5.35-.77.53,1.49,2.7,2.55,4.78,3.68,6.8l1.77,3.11c.66,1.06,1.38,2.2,2.23,3.47,0,0,.13.26.41.71s.7,1.06,1.21,1.84l1.85,2.72,2.39,3.23a114.84,114.84,0,0,0,11.22,12.75s.14.12.44.41.77.76,1.48,1.35c1.42,1.19,3.59,3.25,7.11,5.94,2.3,1.86,2.42,1.65,2.46,1.57a1.39,1.39,0,0,1-.11.21c1.27.72,3,2,4.88,3.23s3.71,2.32,5,3l-.09.23c2.63,1.17,5.14,2.65,7.8,3.71,1.31.57,2.62,1.17,4,1.71l4,1.36a1.82,1.82,0,0,1-.07.25l2,.69,1.75.49a7.12,7.12,0,0,1,1.69.57l-.05.25c2.71,1,8.33,1.67,8.29,1.94a2.42,2.42,0,0,0,0-.25,106.24,106.24,0,0,0,15,1.5c2.28.17,4.46,0,6.6,0a58,58,0,0,0,6.34-.33,91,91,0,0,0,31.35-8.2C347.43,375.78,379.2,327.31,379.2,270.24ZM308.48,370.78c6.95-12.34,10-27.89,9.2-42.71-.6-14.91-6-30.72-15-42.25S283,266.58,273.25,259.55s-19.19-13.45-26.07-21.33a53.42,53.42,0,0,1-13.24-28.32,62.59,62.59,0,0,1,3.11-33.67c3.73-9.92,10.09-19,17.43-27.32a77.47,77.47,0,0,1,8.7-.72,83,83,0,0,1,29.19,4.51c39,20,66.19,65.08,66.19,117.47,0,49.05-23.84,91.67-58.9,113.34A75.42,75.42,0,0,0,308.48,370.78Z"/></svg>