<svg id="Layer_1" data-name="Layer 1" xmlns="http://www.w3.org/2000/svg" xmlns:xlink="http://www.w3.org/1999/xlink" viewBox="0 0 1000 649.83"><defs><style>.cls-1{fill:none;}.cls-2{fill:url(#linear-gradient);}.cls-3{fill:url(#linear-gradient-2);}.cls-4{fill:#e6f5ff;}.cls-5{fill:#00ffda;opacity:0.92;}.cls-6{fill:url(#linear-gradient-3);}.cls-7{fill:#003faf;}.cls-8{fill:url(#linear-gradient-4);}.cls-9{opacity:0.5;fill:url(#linear-gradient-5);}.cls-10{clip-path:url(#clip-path);}.cls-11{fill:url(#linear-gradient-6);}.cls-12{fill:url(#linear-gradient-7);}.cls-13{fill:#fff;}.cls-14{fill:url(#linear-gradient-8);}.cls-15{fill:url(#linear-gradient-9);}.cls-16{fill:url(#linear-gradient-10);}.cls-17{fill:url(#linear-gradient-11);}.cls-18{fill:url(#linear-gradient-12);}.cls-19{fill:url(#linear-gradient-13);}.cls-20{fill:url(#linear-gradient-14);}.cls-21{fill:url(#linear-gradient-15);}.cls-22{fill:url(#linear-gradient-16);}.cls-23{fill:url(#linear-gradient-17);}.cls-24{fill:#1486ff;}.cls-25{fill:url(#linear-gradient-18);}</style><linearGradient id="linear-gradient" x1="102.18" y1="298.06" x2="-94.84" y2="298.06" gradientTransform="matrix(-0.86, -0.52, -0.52, 0.86, 824.52, 118.35)" gradientUnits="userSpaceOnUse"><stop offset="0" stop-color="#00ffd3"/><stop offset="1" stop-color="#145cff"/></linearGradient><linearGradient id="linear-gradient-2" x1="14.37" y1="-58.85" x2="14.37" y2="295.61" gradientTransform="matrix(-0.86, -0.52, -0.52, 0.86, 824.52, 118.35)" gradientUnits="userSpaceOnUse"><stop offset="0" stop-color="#00ffd3"/><stop offset="1" stop-color="#1486ff"/></linearGradient><linearGradient id="linear-gradient-3" x1="670.58" y1="454.2" x2="670.58" y2="52.73" gradientTransform="translate(232.72 -238.19) rotate(31.07)" xlink:href="#linear-gradient-2"/><linearGradient id="linear-gradient-4" x1="644.57" y1="426.4" x2="691.78" y2="426.4" gradientTransform="translate(232.72 -238.19) rotate(31.07)" xlink:href="#linear-gradient-2"/><linearGradient id="linear-gradient-5" x1="603.34" y1="361.97" x2="434.8" y2="132.14" gradientUnits="userSpaceOnUse"><stop offset="0" stop-color="#00ffd3"/><stop offset="1" stop-color="#1486ff" stop-opacity="0"/></linearGradient><clipPath id="clip-path"><polygon class="cls-1" points="725.26 279.51 599.51 487.8 532.79 493.82 442.33 375.02 475.77 220.72 558.26 180.41 704.5 251.43 725.26 279.51"/></clipPath><linearGradient id="linear-gradient-6" x1="515.37" y1="241.82" x2="457.21" y2="181.56" gradientTransform="translate(1046.15 512.22) rotate(180)" xlink:href="#linear-gradient-2"/><linearGradient id="linear-gradient-7" x1="424.55" y1="259.2" x2="424.55" y2="-43.81" gradientTransform="translate(1046.15 512.22) rotate(180)" xlink:href="#linear-gradient-2"/><linearGradient id="linear-gradient-8" x1="573.69" y1="401.72" x2="540.54" y2="367.37" gradientTransform="translate(1123.43 380.29) rotate(167.13)" xlink:href="#linear-gradient-2"/><linearGradient id="linear-gradient-9" x1="521.92" y1="411.63" x2="521.92" y2="238.92" gradientTransform="translate(1123.43 380.29) rotate(167.13)" xlink:href="#linear-gradient-2"/><linearGradient id="linear-gradient-10" x1="603.79" y1="276.15" x2="578.82" y2="250.27" gradientTransform="matrix(-0.84, 0.54, -0.54, -0.84, 1117.5, 156.51)" xlink:href="#linear-gradient-2"/><linearGradient id="linear-gradient-11" x1="564.8" y1="283.61" x2="564.8" y2="153.51" gradientTransform="matrix(-0.84, 0.54, -0.54, -0.84, 1117.5, 156.51)" xlink:href="#linear-gradient-2"/><linearGradient id="linear-gradient-12" x1="644.37" y1="185.45" x2="626.64" y2="167.08" gradientTransform="matrix(-0.52, 0.86, -0.86, -0.52, 940.79, -105.24)" xlink:href="#linear-gradient-2"/><linearGradient id="linear-gradient-13" x1="616.68" y1="190.75" x2="616.68" y2="98.37" gradientTransform="matrix(-0.52, 0.86, -0.86, -0.52, 940.79, -105.24)" xlink:href="#linear-gradient-2"/><linearGradient id="linear-gradient-14" x1="644.28" y1="232.69" x2="629.86" y2="217.76" gradientTransform="translate(1100.16 274.88) rotate(159.72)" xlink:href="#linear-gradient-2"/><linearGradient id="linear-gradient-15" x1="621.77" y1="237" x2="621.77" y2="161.91" gradientTransform="translate(1100.16 274.88) rotate(159.72)" xlink:href="#linear-gradient-2"/><linearGradient id="linear-gradient-16" x1="711.81" y1="371.77" x2="668.82" y2="327.23" gradientTransform="translate(1083.42 431.57) rotate(173.35)" xlink:href="#linear-gradient-2"/><linearGradient id="linear-gradient-17" x1="644.68" y1="384.62" x2="644.68" y2="160.65" gradientTransform="translate(1083.42 431.57) rotate(173.35)" xlink:href="#linear-gradient-2"/><linearGradient id="linear-gradient-18" x1="587.24" y1="547.82" x2="428.11" y2="388.7" gradientTransform="matrix(1, 0, 0, 1, 0, 0)" xlink:href="#linear-gradient-2"/></defs><path class="cls-2" d="M871.71,214.55l10.36,13.51a31.17,31.17,0,0,1,1.95,35L673,613.43a31.19,31.19,0,0,1-24.13,15l-17.92,1.48Z"/><path class="cls-3" d="M450.87,512.61,618.08,626.84c10.16,6.93,24,3.31,30.92-8.13L875.12,243.39C882,232,878.73,218,867.86,212.26L688.72,117.82c-9.81-5.17-23-.6-29.49,10.19L446.09,481.78C439.59,492.57,441.71,506.36,450.87,512.61Z"/><path class="cls-4" d="M726.3,152.74l-.65,13,74.92,40.09,11.91-7.29,46.57,24.75c7.37,3.92,9.44,13.62,4.6,21.65L646.55,605.29c-4.84,8-14.39,10.74-21.3,6.06L460.55,499.79c-6.25-4.23-7.59-13.82-3-21.42L663,137.3c4.58-7.6,13.68-10.91,20.35-7.36Z"/><path class="cls-5" d="M793,379.74h0a13,13,0,0,0,17.91-4.44l30.06-49.89a13,13,0,0,0-4.45-17.91h0Z"/><path class="cls-6" d="M593.87,485,574.55,472.1a7.59,7.59,0,0,1-2.29-10.24l119.1-197.69a7.59,7.59,0,0,1,10.13-2.76l21.6,11.67A5,5,0,0,1,725,280L602.63,483.05A6.21,6.21,0,0,1,593.87,485Z"/><path class="cls-7" d="M711.38,266.75,590.52,467.34l15.83,9.54L725.26,279.51a4.41,4.41,0,0,0-1.68-6.16Z"/><path class="cls-8" d="M590.52,467.34l-16,.53a1.93,1.93,0,0,0-1,3.53l20.84,13.92a5.66,5.66,0,0,0,8-1.79l4-6.65Z"/><path class="cls-9" d="M235.5,51.42c3.32,40.14,42.4,178,69.82,207.47s62,51.53,98,69.6c62.16,31.21,129.18,51.33,195.8,71.29q26.86-46.44,53.74-92.89c-45-13.74-63.83-68-63.31-115s9.34-106.55,0-152.61C479.08,44.32,349.15,40.37,235.5,51.42Z"/><g class="cls-10"><path class="cls-11" d="M520.71,362.32c2.73-54.52,48.37-102.61,100.74-104.13,51.26-1.49,85.06,42.56,76.94,95.32C690.75,403.2,648.13,443.91,602,447,555,450.24,518.15,413.56,520.71,362.32Z"/><path class="cls-12" d="M532.86,372.26c3-54,48.53-101.68,100.49-103.27,50.85-1.55,84.18,42,75.87,94.29-7.83,49.25-50.34,89.65-96.14,92.82C566.39,459.33,530,423,532.86,372.26Z"/><path class="cls-13" d="M674.52,400.84c18.43-26.18,21-57.95,8.78-80.78-.39-.85-.79-1.7-1.22-2.52A47.79,47.79,0,0,0,653,293.4c-.73-.25-1.84-.65-3-.92s-2.25-.62-3-.76a66.11,66.11,0,0,0-20.81-.62A82.94,82.94,0,0,0,605,296.75a54.44,54.44,0,0,0-7.78,4c-1.88,1.16-3,2-3,2-1.48,1-2.88,2.1-1.33,1.35s4.18-2.25,6.51-3.3a19.52,19.52,0,0,1,4.33-1.68,5.81,5.81,0,0,1-1,.47l-2.13,1a11.55,11.55,0,0,1-2.35,1.68c-1.29.82-2.74,1.74-3.49,2.15s-3.29,2.05-5.76,3.81a59.13,59.13,0,0,0-5.45,4.26c-1,.88-.93,1-.21.52s2.07-1.31,3.79-2.33c3.44-2,8.26-4.5,11.25-5.85s.09.31.16.51c2.92-1.52,4.46-2,7.44-3.29l.4-.13,1.09-.39c.92-.34,2.19-.76,3.61-1.23a88.45,88.45,0,0,1,8.56-2.26l1.34-.3c.47-.12,1.09-.22,1.88-.35s1.74-.31,2.88-.43c1.52-.18,1.53-.25,1.54-.33l0,.15c.77-.14,1.91-.22,3-.31s2.27-.05,3-.11l0,.15a58.52,58.52,0,0,1,8.91.45l0,.14c.74.07,1.46.23,2,.31a3.64,3.64,0,0,1,.88.21l0,.14,2.67.55.67.14a43.87,43.87,0,0,0-10.58,3.53c-7.6,3.6-14.48,10.34-19.21,17.95a49.05,49.05,0,0,0-5.5,12.56,43.66,43.66,0,0,0-1.39,13.23c.51,8.49,3.12,15.49,5.39,22s4.53,12.54,5.15,18.62a31.49,31.49,0,0,1-3.64,18.43,40.25,40.25,0,0,1-13.47,15.49A49.62,49.62,0,0,1,588.76,427l-1.17-.49a52.49,52.49,0,0,1-14.91-10.24,53.18,53.18,0,0,1-3.78-4.54,49.25,49.25,0,0,1-8.8-17.28,65.28,65.28,0,0,1-2.24-20.62c.12-3.31.32-6.23.44-8.34s.21-3.38.21-3.38c.19-1.7.32-3.42-.18-1.73s-1,4.69-1.33,7.25a42.42,42.42,0,0,1-.72,4.7,26.9,26.9,0,0,1,.25-3.4,8.82,8.82,0,0,1-.14-2.78,32.3,32.3,0,0,1,.41-4.1c.08-.87.57-3.91,1.27-7s1.6-6.06,1.89-6.95c.46-1.27.37-1.3-.07-.52a34.72,34.72,0,0,0-2,4.5c-.78,2-1.59,4.5-2.26,6.9s-1.18,4.73-1.5,6.51c-.64,3.56-.35,0-.53,0-.23,1.79-.45,3.14-.61,4.49-.08.67-.16,1.34-.24,2.07s-.11,1.51-.15,2.4c0,0,0,.17-.05.48s0,.74-.06,1.28,0,1.19-.07,1.92,0,1.5,0,2.33a65.12,65.12,0,0,0,.86,9.81l.06.34c0,.24.1.62.23,1.13.25,1,.55,2.74,1.27,5.18.43,1.65.56,1.59.6,1.57l-.12.06c.34.76.72,2,1.16,3.15s.93,2.33,1.29,3.07l-.12.08c.82,1.42,1.48,2.95,2.35,4.33.41.7.82,1.42,1.25,2.11l1.4,2-.11.09.69,1,.64.81a5.12,5.12,0,0,1,.59.82l-.11.11c.91,1.36,3.28,3.52,3.18,3.64l.1-.12a57.2,57.2,0,0,0,6.44,5.62,36.18,36.18,0,0,0,3,2.15,30.28,30.28,0,0,0,3,1.91,49.72,49.72,0,0,0,17.29,6.25C624,441.43,655.13,428.39,674.52,400.84Zm-66.87,25.5c7.41-3.7,14.1-10.21,18.77-17.62a46.07,46.07,0,0,0,7.44-25.26c-.18-8.51-2.57-15.7-4.72-22.28s-4.3-12.73-4.81-18.78a32.11,32.11,0,0,1,3.5-18,38.46,38.46,0,0,1,12.88-15.24,53.93,53.93,0,0,1,17.34-7.51,43.05,43.05,0,0,1,4.27,2.49,45.09,45.09,0,0,1,12,11.68c11.24,22.36,8.51,53-9.29,78.25-16.66,23.67-42.17,36.48-65.75,35.52A44.7,44.7,0,0,0,607.65,426.34Z"/></g><path class="cls-14" d="M480.75,168.82c-5.41-30.64,13.85-63.16,42.76-70.65,28.29-7.34,52.66,12.84,54.85,43.19,2.06,28.58-16.45,56.61-41.68,64.21C511,213.32,485.83,197.61,480.75,168.82Z"/><path class="cls-15" d="M488.76,172.8c-5.19-30.39,14.06-62.66,42.73-70.14,28.06-7.32,52.1,12.65,54.13,42.75,1.9,28.36-16.59,56.21-41.64,63.78C518.45,216.92,493.64,201.36,488.76,172.8Z"/><path class="cls-13" d="M571.11,170.69c6.91-16.89,4.28-34.86-5.39-46-.32-.42-.65-.84-1-1.25a28.76,28.76,0,0,0-8.83-7,28.35,28.35,0,0,0-10.4-2.76c-.45,0-1.11-.13-1.77-.14s-1.33-.06-1.78,0a37.86,37.86,0,0,0-11.64,2.3,47.63,47.63,0,0,0-11,5.83,30.12,30.12,0,0,0-3.81,3.19c-.9.89-1.4,1.48-1.4,1.48-.7.72-1.34,1.53-.57.92s2-1.79,3.2-2.67a11.86,11.86,0,0,1,2.19-1.48,3,3,0,0,1-.47.38l-1.06.81a6.76,6.76,0,0,1-1.09,1.23c-.62.62-1.31,1.32-1.67,1.64s-1.57,1.56-2.72,2.84a36.39,36.39,0,0,0-2.49,3.07c-.43.61-.39.64-.05.31s1-1,1.82-1.77c1.65-1.58,4-3.55,5.5-4.69s.09.17.16.27c1.43-1.22,2.22-1.68,3.71-2.77l.21-.13.55-.35c.47-.31,1.13-.7,1.86-1.15a48.9,48.9,0,0,1,4.47-2.33l.7-.34c.25-.13.58-.26,1-.44s.93-.39,1.55-.6c.82-.3.81-.34.81-.38v.08c.41-.17,1-.36,1.65-.55s1.26-.32,1.67-.45v.08a33.5,33.5,0,0,1,5-.88v.09c.42-.06.83-.06,1.14-.08a1.78,1.78,0,0,1,.52,0v.09l1.56,0h.39a24.82,24.82,0,0,0-5.43,3.3,27.35,27.35,0,0,0-8.4,12.41,28.16,28.16,0,0,0-1.46,7.68,24.91,24.91,0,0,0,.91,7.52c1.36,4.66,3.7,8.22,5.78,11.54s4.12,6.38,5.23,9.69a17.94,17.94,0,0,1,.32,10.7,23,23,0,0,1-5.52,10.32,28,28,0,0,1-8.28,5.91c-.24,0-.48-.07-.71-.12a29.83,29.83,0,0,1-9.59-3.79,32.95,32.95,0,0,1-9.76-10.53,37.37,37.37,0,0,1-3.86-11.17c-.35-1.86-.61-3.51-.81-4.69s-.32-1.91-.32-1.91c-.11-1-.25-1.94-.32-.93s.06,2.72.19,4.19a26.23,26.23,0,0,1,.19,2.71,16,16,0,0,1-.29-1.93,4.75,4.75,0,0,1-.43-1.52,17.45,17.45,0,0,1-.3-2.33c-.06-.5-.17-2.25-.17-4s.12-3.57.17-4.1c.09-.77,0-.77-.11-.28a19,19,0,0,0-.54,2.75c-.18,1.24-.31,2.7-.38,4.12s-.06,2.78,0,3.81c.1,2.06-.19.05-.29.07.1,1,.15,1.8.23,2.57,0,.38.08.77.13,1.18s.13.85.22,1.35c0,0,0,.1,0,.27s.08.42.13.73.13.66.2,1.07.2.83.31,1.3a37.19,37.19,0,0,0,1.72,5.33l.08.19c.06.12.13.33.27.6.27.54.65,1.45,1.36,2.71.45.86.51.81.54.79l-.06.06c.28.38.65,1,1,1.6s.81,1.17,1.11,1.54l-.06.06c.64.68,1.2,1.45,1.86,2.11.32.34.63.68,1,1l1,.92-.05.07.51.46.45.36a2.6,2.6,0,0,1,.44.39l-.05.07c.68.64,2.27,1.54,2.23,1.62l0-.08a31.64,31.64,0,0,0,4.29,2.3,20,20,0,0,0,2,.81,17,17,0,0,0,1.93.68,28.3,28.3,0,0,0,10.4,1.27C548.17,199.66,563.83,188.46,571.11,170.69Zm-33.92,22.66a27.87,27.87,0,0,0,8.19-12.17,26.24,26.24,0,0,0,.92-15c-1.17-4.71-3.42-8.4-5.44-11.78s-4-6.53-5.06-9.83a18.21,18.21,0,0,1-.34-10.43,21.88,21.88,0,0,1,5.22-10.1,30.63,30.63,0,0,1,8.68-6.38,23.5,23.5,0,0,1,2.69.84,25.85,25.85,0,0,1,8.13,5c9.09,11,11.46,28.35,4.78,44.66-6.26,15.27-18.8,25.62-32,28.08A26.31,26.31,0,0,0,537.19,193.35Z"/><path class="cls-16" d="M478.23,287.52c-11.71-20.3-6.45-48.28,12.09-61,18.14-12.48,40.59-4.46,50,16.46,8.81,19.71,2.92,44.32-13,56.19C511.07,311.26,489.24,306.6,478.23,287.52Z"/><path class="cls-17" d="M484.93,288.28c-11.5-20.18-6.18-48,12.2-60.66,18-12.4,40.15-4.45,49.33,16.34,8.64,19.59,2.72,44.07-13.07,55.88C517.3,311.88,495.74,307.25,484.93,288.28Z"/><path class="cls-13" d="M542.69,265.59c.55-13.73-5.94-25.78-15.65-31.18-.34-.22-.68-.43-1-.63a21.78,21.78,0,0,0-8-2.65,21.27,21.27,0,0,0-8.08.73,12.32,12.32,0,0,0-1.28.35c-.48.16-1,.3-1.27.43a28.54,28.54,0,0,0-7.65,4.63,35.8,35.8,0,0,0-6.31,7,23.17,23.17,0,0,0-1.88,3.24c-.41.86-.61,1.41-.61,1.41-.31.69-.55,1.43-.17.79s1-1.78,1.59-2.71a8.13,8.13,0,0,1,1.17-1.61,2.68,2.68,0,0,1-.24.39c-.15.23-.35.54-.54.85a5.26,5.26,0,0,1-.46,1.15c-.28.59-.58,1.27-.76,1.59s-.71,1.51-1.19,2.71a25.26,25.26,0,0,0-1,2.81c-.16.55-.12.56,0,.24s.44-1,.83-1.73c.76-1.54,1.93-3.54,2.69-4.73s.11.1.18.15c.7-1.23,1.14-1.76,1.92-2.92l.11-.14.3-.39c.25-.34.62-.79,1-1.29.81-1,1.85-2.1,2.56-2.81l.41-.42c.15-.15.35-.33.6-.56s.56-.52.94-.83.49-.45.48-.47l0,.05c.24-.23.63-.52,1-.82s.81-.54,1.07-.74l0,.05a25,25,0,0,1,3.32-1.91l0,.06a8.11,8.11,0,0,1,.79-.35c.22-.09.36-.15.37-.13v.06l1.1-.42.27-.11a18.68,18.68,0,0,0-3,3.74,21.32,21.32,0,0,0-1.81,16.76,18.6,18.6,0,0,0,2.58,5.09,33.42,33.42,0,0,0,7.06,6.68,34.18,34.18,0,0,1,6.2,5.52,13.48,13.48,0,0,1,3,7.49,17.24,17.24,0,0,1-1.25,8.73,21.15,21.15,0,0,1-4.34,6.32c-.18,0-.35.07-.53.09a22.21,22.21,0,0,1-7.77-.22,23.3,23.3,0,0,1-2.42-.75,21.38,21.38,0,0,1-7.2-4.19,28.15,28.15,0,0,1-5.61-6.91c-.72-1.22-1.33-2.33-1.78-3.11l-.71-1.27c-.33-.66-.68-1.31-.47-.58s.74,1.92,1.21,2.92.88,1.83.84,1.86a9.57,9.57,0,0,1-.71-1.28,3.7,3.7,0,0,1-.69-1,13.65,13.65,0,0,1-.82-1.58c-.17-.33-.7-1.54-1.16-2.8s-.83-2.56-.93-3c-.13-.57-.17-.55-.15-.17a14.88,14.88,0,0,0,.33,2.09c.19.92.47,2,.79,3s.67,2,1,2.7c.6,1.44-.12.09-.19.13.34.7.57,1.23.83,1.76l.39.8.51.9.09.18.28.48.42.71.55.84a29.28,29.28,0,0,0,2.59,3.34l.1.11.35.35c.33.32.84.86,1.66,1.57.54.5.57.45.59.43l0,.05c.3.19.71.54,1.15.86s.88.63,1.18.81l0,.06c.63.32,1.22.72,1.86,1l.94.47,1,.39,0,.06.48.19.42.15.4.15v.07c.64.28,2,.5,2,.57v-.06a25.74,25.74,0,0,0,3.63.52,14.59,14.59,0,0,0,1.6.07c.52,0,1,0,1.55,0a21.5,21.5,0,0,0,7.69-1.77C533.91,292,542.11,280.05,542.69,265.59ZM524.5,290.37a21,21,0,0,0,2.67-10.73A19.71,19.71,0,0,0,524,268.8a31.71,31.71,0,0,0-6.89-6.94A35.64,35.64,0,0,1,511,256.2a13.83,13.83,0,0,1-2.93-7.3,16.57,16.57,0,0,1,1.1-8.49,23.07,23.07,0,0,1,4.51-6.75,17,17,0,0,1,2.12-.1,19.44,19.44,0,0,1,7,1.43c9.26,5.44,15.4,17.12,14.87,30.39-.5,12.42-6.72,23-15.44,28.12A18.84,18.84,0,0,0,524.5,290.37Z"/><path class="cls-18" d="M471.83,368.08c-13.81-9.29-19.19-28.77-11.35-42.69,7.68-13.61,24.5-15.51,37-5.09,11.77,9.81,15.7,27.35,9.26,39.88C500.18,373,484.8,376.81,471.83,368.08Z"/><path class="cls-19" d="M476.33,366.47c-13.62-9.28-18.91-28.67-11.15-42.48,7.59-13.53,24.21-15.37,36.55-5,11.63,9.79,15.5,27.25,9.12,39.71C504.35,371.41,489.15,375.2,476.33,366.47Z"/><path class="cls-13" d="M506.08,334c-3.93-8.93-11.83-14.59-19.71-15-.28,0-.57-.06-.85-.08a15.39,15.39,0,0,0-6,.82,15.12,15.12,0,0,0-4.92,3c-.18.15-.46.38-.71.63s-.51.49-.67.67a19.81,19.81,0,0,0-3.44,5.34,25.59,25.59,0,0,0-1.85,6.41,16.11,16.11,0,0,0-.18,2.65,10,10,0,0,0,0,1.09c0,.54.09,1.08.14.56s.07-1.45.16-2.22a6.63,6.63,0,0,1,.24-1.4,1.61,1.61,0,0,1,0,.33c0,.19-.06.45-.09.7a3.41,3.41,0,0,1,.07.88c0,.47,0,1,0,1.25s0,1.18.09,2.1a19.48,19.48,0,0,0,.26,2.1c.07.39.1.39.1.14s0-.75,0-1.36a37.15,37.15,0,0,1,.24-3.86c.12-1,.1,0,.16,0,.06-1,.18-1.48.31-2.46l0-.13.07-.34c0-.3.14-.7.24-1.14.21-.89.53-1.92.76-2.59l.13-.4q.07-.21.21-.54a8.63,8.63,0,0,1,.34-.82c.19-.43.17-.44.16-.45l0,0c.09-.22.24-.53.4-.84s.34-.6.45-.81l0,0a18.59,18.59,0,0,1,1.52-2.26l0,0c.14-.18.29-.34.4-.47a2.05,2.05,0,0,1,.19-.2l0,0,.57-.61.14-.16a13.41,13.41,0,0,0-.74,3.32,14.62,14.62,0,0,0,1.66,7.84,14.9,14.9,0,0,0,2.42,3.41,13.26,13.26,0,0,0,3.23,2.45,24.08,24.08,0,0,0,6.59,2.05,24.73,24.73,0,0,1,5.67,1.58,9.58,9.58,0,0,1,4.24,3.85,12.33,12.33,0,0,1,1.93,6,15,15,0,0,1-.8,5.38,3.55,3.55,0,0,1-.31.23,15.9,15.9,0,0,1-5,2.29,17.35,17.35,0,0,1-1.78.27,15.1,15.1,0,0,1-5.9-.42,19.9,19.9,0,0,1-5.73-2.66c-.85-.55-1.58-1.07-2.11-1.43l-.85-.59c-.41-.31-.84-.62-.48-.22s1.07,1,1.68,1.49,1.14.89,1.12.92a6.69,6.69,0,0,1-.85-.59,3,3,0,0,1-.75-.41,8.83,8.83,0,0,1-1-.75c-.21-.16-.93-.76-1.61-1.42s-1.33-1.38-1.52-1.59-.28-.3-.15-.06a12.06,12.06,0,0,0,.86,1.22c.41.53.93,1.13,1.45,1.68s1,1.05,1.46,1.42c.83.72-.05.09-.08.14.43.34.75.61,1.08.86l.5.39.6.42.12.08.32.22.49.32.62.37a21.31,21.31,0,0,0,2.69,1.32l.1,0,.33.12c.31.1.8.29,1.55.49.5.14.51.1.51.08v.05c.26,0,.63.12,1,.19s.75.12,1,.14v.05c.5,0,1,.08,1.5.07H491l.74-.06v.05l.36,0,.31,0,.31,0v0c.5,0,1.44-.3,1.45-.25v0a18.19,18.19,0,0,0,2.48-.79c.37-.13.71-.31,1-.46a10,10,0,0,0,1-.5,15,15,0,0,0,4.35-3.53C508.73,353.56,510.23,343.37,506.08,334Zm-3.86,21.47a15,15,0,0,0-1.65-7.67,14.06,14.06,0,0,0-5.42-5.92,22.72,22.72,0,0,0-6.56-2.27,25.37,25.37,0,0,1-5.66-1.7,9.88,9.88,0,0,1-4.15-3.74,11.83,11.83,0,0,1-1.95-5.76,16.28,16.28,0,0,1,.77-5.71,13.24,13.24,0,0,1,1.32-.73,13.71,13.71,0,0,1,4.93-1.28c7.61.58,15.17,6.11,19,14.73,3.56,8.08,2.89,16.75-1.07,22.76A13.12,13.12,0,0,0,502.22,355.45Z"/><path class="cls-20" d="M420.72,302.12c-4.05-12.91,2.43-28,14.47-32.86,11.79-4.74,23.43,2.59,26.08,15.55,2.49,12.21-3.92,25.34-14.38,30C436.24,319.62,424.52,314.25,420.72,302.12Z"/><path class="cls-21" d="M424.4,303.39c-3.94-12.81,2.55-27.81,14.49-32.64,11.69-4.72,23.18,2.54,25.73,15.41,2.42,12.12-4,25.16-14.37,29.83C439.67,320.75,428.1,315.43,424.4,303.39Z"/><path class="cls-13" d="M459.79,297.87c2-7.67-.11-15.27-4.9-19.54l-.5-.48a12.66,12.66,0,0,0-4.2-2.5,12.33,12.33,0,0,0-4.64-.61c-.19,0-.48,0-.77,0s-.58.05-.77.08a16.33,16.33,0,0,0-4.89,1.65,20.49,20.49,0,0,0-4.43,3.13,12.86,12.86,0,0,0-1.46,1.59c-.34.43-.52.71-.52.71-.27.36-.49.74-.2.43s.78-.88,1.23-1.33a5.29,5.29,0,0,1,.86-.76s-.07.08-.18.19l-.41.41a3.09,3.09,0,0,1-.4.59c-.23.3-.49.64-.63.8s-.59.76-1,1.38a14.51,14.51,0,0,0-.9,1.46c-.16.29-.14.3,0,.14s.37-.48.69-.87a31.19,31.19,0,0,1,2.11-2.32c.58-.57.05.06.08.1.55-.6.86-.85,1.45-1.4l.08-.07.22-.18c.18-.16.44-.37.73-.6.58-.46,1.31-1,1.8-1.26l.28-.18.41-.25c.17-.1.38-.22.63-.34s.34-.19.33-.21v0l.68-.33.7-.28v0a14.83,14.83,0,0,1,2.12-.66v0a4.27,4.27,0,0,1,.49-.1.6.6,0,0,1,.22,0v0l.67-.11.17,0a11.08,11.08,0,0,0-2.16,1.73,11.93,11.93,0,0,0-2.92,5.82,12.05,12.05,0,0,0-.2,3.4,11,11,0,0,0,.81,3.19,19.78,19.78,0,0,0,3.14,4.65,19.94,19.94,0,0,1,2.8,3.88,7.88,7.88,0,0,1,.74,4.6,10,10,0,0,1-1.8,4.76,12.39,12.39,0,0,1-3.24,3h-.32a12.85,12.85,0,0,1-4.34-1.1,12.28,12.28,0,0,1-1.27-.73,12.12,12.12,0,0,1-3.53-3.26,16.23,16.23,0,0,1-2.29-4.6c-.26-.78-.46-1.48-.62-2l-.24-.8c-.1-.41-.22-.83-.19-.39s.18,1.18.32,1.8a10.24,10.24,0,0,1,.23,1.16,5.28,5.28,0,0,1-.23-.82,2.08,2.08,0,0,1-.27-.63,6.7,6.7,0,0,1-.26-1,17.23,17.23,0,0,1-.3-1.73c-.11-.76-.15-1.54-.16-1.77s0-.34-.06-.12a9.58,9.58,0,0,0-.08,1.22c0,.54,0,1.18.07,1.8s.13,1.2.21,1.64c.15.88-.08,0-.13,0,.1.44.17.77.25,1.1l.12.5c.05.18.1.36.17.57l0,.12.1.3.14.45.21.55a16.86,16.86,0,0,0,1,2.2l0,.08c0,.05.08.13.15.24s.37.59.74,1.1c.25.34.27.32.28.31l0,0c.15.15.34.4.55.63s.41.47.56.61l0,0c.31.26.6.56.92.81l.47.38.49.34v0l.24.17.22.14a.79.79,0,0,1,.21.14l0,0c.33.24,1.07.54,1.05.57v0a14.72,14.72,0,0,0,2,.75,8.64,8.64,0,0,0,.9.24c.29.07.58.14.87.18a12.5,12.5,0,0,0,4.56,0C451.52,311.65,457.64,305.94,459.79,297.87Zm-13.36,11.67a12.21,12.21,0,0,0,2.85-5.71,11.42,11.42,0,0,0-.44-6.51,18.47,18.47,0,0,0-3-4.77,20.24,20.24,0,0,1-2.73-4,7.86,7.86,0,0,1-.73-4.48,9.6,9.6,0,0,1,1.68-4.65,13.39,13.39,0,0,1,3.39-3.23,11,11,0,0,1,5,1.9c4.53,4.23,6.53,11.58,4.56,19-1.84,6.93-6.67,12.1-12.23,13.9A11.44,11.44,0,0,0,446.43,309.54Z"/><path class="cls-22" d="M333.85,213c-2.67-40.26,26.73-79.47,65-85.07,37.5-5.47,66.09,24,64.64,63.4-1.36,37.14-29.17,70.67-62.76,76.92C366.53,274.64,336.35,250.86,333.85,213Z"/><path class="cls-23" d="M343.62,219.28c-2.42-39.9,26.93-78.8,64.94-84.41,37.2-5.49,65.39,23.64,63.77,62.73C470.79,234.42,443,267.72,409.68,274,375.68,280.33,345.89,256.79,343.62,219.28Z"/><path class="cls-13" d="M450.07,228.14c11.29-20.79,10.42-44.34-.47-60-.36-.6-.73-1.18-1.11-1.75a37.28,37.28,0,0,0-10.41-10.21,36.89,36.89,0,0,0-13-5c-.56-.13-1.4-.32-2.26-.43s-1.7-.26-2.28-.3a49,49,0,0,0-15.34,1.33,61.16,61.16,0,0,0-15,6,39.34,39.34,0,0,0-5.37,3.58c-1.28,1-2,1.7-2,1.7-1,.84-1.94,1.79-.86,1.11s2.88-2,4.5-3a14.63,14.63,0,0,1,3-1.6,4.75,4.75,0,0,1-.66.42l-1.48.89a8.59,8.59,0,0,1-1.58,1.43c-.88.71-1.87,1.52-2.38,1.88s-2.24,1.79-3.9,3.29a42.11,42.11,0,0,0-3.64,3.6c-.65.72-.6.78-.12.39s1.41-1.13,2.6-2c2.34-1.8,5.67-4,7.75-5.26s.1.22.16.36c2-1.36,3.1-1.85,5.18-3l.29-.13.76-.38c.64-.33,1.55-.74,2.55-1.21a61.48,61.48,0,0,1,6.09-2.39L402,157c.34-.12.79-.25,1.36-.42s1.25-.37,2.07-.55c1.11-.27,1.11-.32,1.1-.38v.11a21.43,21.43,0,0,1,2.21-.48c.83-.12,1.66-.23,2.21-.34v.1a44.34,44.34,0,0,1,6.58-.43v.11c.55,0,1.08,0,1.49.06a2,2,0,0,1,.66.08l0,.1,2,.18.5,0a32.86,32.86,0,0,0-7.46,3.5c-5.27,3.29-9.75,8.83-12.57,14.82a36.39,36.39,0,0,0-3,9.7,32.22,32.22,0,0,0,.11,9.82c1.1,6.19,3.62,11.11,5.84,15.68s4.4,8.82,5.37,13.23a23.24,23.24,0,0,1-1.1,13.84,29.77,29.77,0,0,1-8.56,12.53,36.46,36.46,0,0,1-11.51,6.46c-.3-.08-.6-.16-.9-.26a38.53,38.53,0,0,1-11.82-6.24,39,39,0,0,1-3.16-3,36.29,36.29,0,0,1-7.94-11.93,48.32,48.32,0,0,1-3.41-15c-.2-2.44-.3-4.6-.39-6.16s-.14-2.5-.14-2.5c0-1.26-.05-2.54-.28-1.25s-.31,3.53-.35,5.43a31.46,31.46,0,0,1-.13,3.52,19,19,0,0,1-.11-2.52,6.71,6.71,0,0,1-.34-2,23.14,23.14,0,0,1-.05-3.05c0-.64.09-2.92.34-5.21s.65-4.59.79-5.26c.23-1,.16-1-.1-.38a26.8,26.8,0,0,0-1.08,3.47c-.4,1.57-.78,3.44-1.06,5.26s-.47,3.57-.55,4.91c-.17,2.67-.26,0-.39,0,0,1.34-.06,2.35-.06,3.35v1.54c0,.54.05,1.12.1,1.78a3.09,3.09,0,0,0,0,.35c0,.23,0,.55.06.95s.07.88.11,1.41.14,1.11.21,1.72a48,48,0,0,0,1.47,7.12l.08.25c.05.17.12.44.26.81.27.74.64,2,1.37,3.7.46,1.17.55,1.11.58,1.09l-.09.06c.32.53.7,1.38,1.13,2.21s.88,1.63,1.21,2.14l-.08.07c.72,1,1.33,2,2.09,3,.37.48.72,1,1.1,1.44l1.2,1.33-.07.09.58.65.54.54a3.21,3.21,0,0,1,.51.56l-.07.08c.79.93,2.71,2.31,2.64,2.4l.06-.09a42.78,42.78,0,0,0,5.21,3.57,26.38,26.38,0,0,0,2.43,1.32,22,22,0,0,0,2.4,1.15,36.8,36.8,0,0,0,13.22,3.1C416.43,262.27,438.19,250,450.07,228.14Zm-46.92,24.44A36.19,36.19,0,0,0,415.42,238a33.94,33.94,0,0,0,3.3-19.18c-.85-6.23-3.23-11.3-5.36-16s-4.25-9-5.14-13.38a23.82,23.82,0,0,1,1-13.5,28.55,28.55,0,0,1,8.16-12.29,39.66,39.66,0,0,1,12.09-7,30.77,30.77,0,0,1,3.35,1.46,33.34,33.34,0,0,1,9.78,7.55c10.17,15.45,10.78,38.15-.12,58.24-10.21,18.81-27.85,30.39-45.24,31.7A32.16,32.16,0,0,0,403.15,252.58Z"/><path class="cls-24" d="M629.76,578.81,481.89,476.56a6.19,6.19,0,0,1-1.57-8.61l7.85-11.35a6.19,6.19,0,0,1,8.61-1.58L644.65,557.27a6.4,6.4,0,0,1,1.62,8.9l-7.62,11A6.38,6.38,0,0,1,629.76,578.81Z"/><path class="cls-25" d="M584.86,547.76l-102.53-70.9a6.73,6.73,0,0,1-1.71-9.35L487.87,457a6.71,6.71,0,0,1,9.35-1.7l102.53,70.9Z"/></svg>