<svg id="Layer_1" data-name="Layer 1" xmlns="http://www.w3.org/2000/svg" xmlns:xlink="http://www.w3.org/1999/xlink" viewBox="0 0 1000 649.83"><defs><style>.cls-1,.cls-2{fill:none;stroke:#00ffda;stroke-linecap:round;stroke-miterlimit:10;}.cls-1{stroke-width:16px;}.cls-2{stroke-width:12px;}.cls-3{fill:url(#linear-gradient);}.cls-4{fill:#fff;}.cls-5{fill:url(#linear-gradient-2);}.cls-6{fill:url(#linear-gradient-3);}.cls-7{fill:url(#linear-gradient-4);}.cls-8{fill:url(#linear-gradient-5);}.cls-9{fill:url(#linear-gradient-6);}.cls-10{fill:url(#linear-gradient-7);}.cls-11{fill:url(#linear-gradient-8);}.cls-12{fill:url(#linear-gradient-9);}.cls-13{fill:url(#linear-gradient-10);}</style><linearGradient id="linear-gradient" x1="200.09" y1="115.38" x2="200.09" y2="406.57" gradientUnits="userSpaceOnUse"><stop offset="0" stop-color="#0051ff"/><stop offset="0.11" stop-color="#025bfd"/><stop offset="0.3" stop-color="#0875f7"/><stop offset="0.55" stop-color="#129fed"/><stop offset="0.83" stop-color="#1fd9e0"/><stop offset="1" stop-color="#27ffd8"/></linearGradient><linearGradient id="linear-gradient-2" x1="102.71" y1="296.3" x2="102.71" y2="441.89" xlink:href="#linear-gradient"/><linearGradient id="linear-gradient-3" x1="323.77" y1="283.06" x2="323.77" y2="469.87" xlink:href="#linear-gradient"/><linearGradient id="linear-gradient-4" x1="898.1" y1="302.01" x2="898.1" y2="403.51" xlink:href="#linear-gradient"/><linearGradient id="linear-gradient-5" x1="712.29" y1="351.73" x2="712.29" y2="459.56" xlink:href="#linear-gradient"/><linearGradient id="linear-gradient-6" x1="894.39" y1="397.59" x2="894.39" y2="505.42" xlink:href="#linear-gradient"/><linearGradient id="linear-gradient-7" x1="432.37" y1="380.92" x2="432.37" y2="511.54" xlink:href="#linear-gradient"/><linearGradient id="linear-gradient-8" x1="592.41" y1="305.78" x2="592.41" y2="468.33" xlink:href="#linear-gradient"/><linearGradient id="linear-gradient-9" x1="791.86" y1="177.36" x2="791.86" y2="415.35" xlink:href="#linear-gradient"/><linearGradient id="linear-gradient-10" x1="520.98" y1="418.31" x2="520.98" y2="497.05" xlink:href="#linear-gradient"/></defs><line class="cls-1" x1="45.41" y1="528.73" x2="936.83" y2="528.73"/><line class="cls-2" x1="202.37" y1="524.65" x2="202.37" y2="304.37"/><path class="cls-2" d="M204.26,456.75s84.33,15.43,110.44-47.47"/><path class="cls-2" d="M202.37,397.56s-55.74,17.76-71-25.52"/><line class="cls-2" x1="792.53" y1="528.04" x2="792.53" y2="353.8"/><line class="cls-2" x1="432" y1="527.3" x2="432" y2="473.4"/><path class="cls-2" d="M795.86,498.77s66.7,12.21,87.35-37.54"/><path class="cls-2" d="M798.18,398s66.7,12.21,87.35-37.54"/><path class="cls-2" d="M792,447.67s-48.84,15.56-62.18-22.37"/><path class="cls-2" d="M590.63,488.75s-48.85,15.56-62.19-22.37"/><line class="cls-2" x1="592.41" y1="518.74" x2="592.41" y2="425.09"/><circle class="cls-3" cx="200.09" cy="235.71" r="114.61"/><path class="cls-4" d="M284.41,235.77a86.21,86.21,0,0,0-52.89-79.52c-1.08-.53-2.18-1.05-3.29-1.53a78.56,78.56,0,0,0-25.5-6.05,79.49,79.49,0,0,0-25.19,2.72c-1,.23-2.52.58-4,1.06s-3,.88-3.92,1.25a92,92,0,0,0-23.36,12.84,99.34,99.34,0,0,0-18.88,18.77,57.52,57.52,0,0,0-5.47,8.64c-1.17,2.28-1.73,3.71-1.73,3.71-.88,1.85-1.55,3.78-.43,2.1s2.87-4.75,4.61-7.22,3.33-4.42,3.47-4.32a7.7,7.7,0,0,1-.7,1.05c-.43.61-1,1.43-1.6,2.24.15.1-.51,1.48-1.28,3.06s-1.67,3.36-2.17,4.21-2,4-3.39,7.19a58.9,58.9,0,0,0-2.7,7.41c-.4,1.43-.28,1.47.17.61s1.26-2.53,2.38-4.57a139.66,139.66,0,0,1,7.83-12.6c2.26-3.15.35.23.57.37,2-3.27,3.36-4.71,5.64-7.8,0,0,.13-.13.34-.38l.9-1c.74-.91,1.82-2.11,3-3.46a105.78,105.78,0,0,1,7.67-7.57l1.23-1.13c.43-.42,1-.91,1.8-1.54s1.68-1.4,2.84-2.24c1.53-1.15,1.48-1.22,1.43-1.29l.1.14c.74-.62,1.93-1.43,3.12-2.24s2.45-1.5,3.24-2l.09.14a81,81,0,0,1,10.16-5.32l.06.15c.87-.41,1.77-.73,2.44-1a5,5,0,0,1,1.13-.37l.06.15,3.37-1.22.84-.3a50.58,50.58,0,0,0-8.9,10c-5.58,8.19-7.93,18.78-7.24,28.78a44.61,44.61,0,0,0,12.39,28c7.13,7.43,15.43,12.16,22.95,16.64s14.69,8.54,20.08,13.71A32.82,32.82,0,0,1,226,275.2,38,38,0,0,1,223.16,298a55.06,55.06,0,0,1-12.8,16.9c-.55.1-1.1.22-1.66.31a84.46,84.46,0,0,1-24.32.23c-1.95-.36-5.81-1.11-7.68-1.72a71.68,71.68,0,0,1-23.06-10.13,79.22,79.22,0,0,1-18.42-17.42c-2.43-3.1-4.48-5.91-6-7.91l-2.39-3.23c-1.11-1.68-2.29-3.33-1.54-1.46s2.56,4.92,4.16,7.48a48.21,48.21,0,0,1,2.85,4.77,26.7,26.7,0,0,1-2.37-3.28c-.14.1-1.17-1-2.3-2.44a34.6,34.6,0,0,1-2.74-4,78.52,78.52,0,0,1-4-7.18c-1.6-3.23-2.94-6.58-3.3-7.57-.48-1.47-.6-1.43-.48-.43a32.72,32.72,0,0,0,1.28,5.39,80.69,80.69,0,0,0,2.86,7.77c1.13,2.61,2.36,5.08,3.39,6.92,2,3.67-.38.23-.58.34,1.13,1.79,1.93,3.16,2.8,4.5l1.34,2.05c.5.7,1.05,1.45,1.7,2.29,0,0,.1.17.31.47l.92,1.21c.4.51.88,1.12,1.4,1.8l1.83,2.13a79.69,79.69,0,0,0,8.53,8.41l.34.28c.24.18.58.5,1.13.89,1.08.79,2.73,2.15,5.4,3.92,1.76,1.22,1.85,1.09,1.88,1l-.09.15c1,.47,2.32,1.34,3.72,2.13s2.82,1.53,3.8,2l-.08.15c2,.77,3.91,1.75,5.94,2.45,1,.38,2,.77,3,1.13l3.08.9,0,.16,1.5.46,1.34.32a6.56,6.56,0,0,1,1.28.37l0,.17c2.07.66,6.34,1.11,6.31,1.28a.9.9,0,0,0,0-.16,94.87,94.87,0,0,0,11.43,1c1.73.11,3.39,0,5,0s3.23,0,4.83-.21a78,78,0,0,0,23.85-5.42A86.23,86.23,0,0,0,284.41,235.77ZM230.6,302.14a47.18,47.18,0,0,0,7-28.19,46.13,46.13,0,0,0-11.38-27.89c-6.78-7.67-15-12.7-22.43-17.34s-14.6-8.88-19.84-14.08a33.47,33.47,0,0,1-10.07-18.7,36.2,36.2,0,0,1,2.37-22.22c2.83-6.55,7.67-12.53,13.26-18a66.13,66.13,0,0,1,6.62-.48,72.08,72.08,0,0,1,22.21,3,84.86,84.86,0,0,1,5.55,152.35A49.73,49.73,0,0,0,230.6,302.14Z"/><circle class="cls-5" cx="102.71" cy="356.46" r="57.3"/><path class="cls-4" d="M144.87,356.5a43.12,43.12,0,0,0-26.44-39.77c-.54-.26-1.09-.52-1.65-.76a39.26,39.26,0,0,0-12.75-3,40.13,40.13,0,0,0-12.59,1.36c-.5.12-1.26.29-2,.53s-1.48.44-2,.63a45.75,45.75,0,0,0-11.68,6.42,49.65,49.65,0,0,0-9.44,9.38,29.79,29.79,0,0,0-2.74,4.32c-.58,1.14-.86,1.86-.86,1.86-.44.92-.78,1.89-.22,1.05s1.44-2.38,2.31-3.61a11.27,11.27,0,0,1,1.73-2.16,3.28,3.28,0,0,1-.35.52c-.21.31-.5.72-.8,1.12a5.17,5.17,0,0,1-.64,1.53c-.39.79-.83,1.68-1.08,2.11s-1,2-1.7,3.59a30.28,30.28,0,0,0-1.35,3.71c-.2.71-.14.73.09.3s.63-1.26,1.19-2.28a69.14,69.14,0,0,1,3.91-6.3c1.13-1.58.18.11.29.18,1-1.63,1.68-2.35,2.82-3.9l.17-.18.45-.53c.37-.46.91-1.06,1.51-1.73,1.2-1.34,2.76-2.83,3.83-3.79l.62-.56a11.22,11.22,0,0,1,.9-.77c.38-.32.84-.7,1.42-1.12.76-.58.74-.61.71-.65l0,.07c.37-.31,1-.71,1.56-1.12s1.23-.75,1.62-1l0,.07a39.54,39.54,0,0,1,5.08-2.66l0,.07c.43-.2.88-.36,1.22-.5a2.63,2.63,0,0,1,.56-.18l0,.07,1.69-.61.42-.15a25.27,25.27,0,0,0-4.45,5,23.51,23.51,0,0,0-1.78,21.91A23.59,23.59,0,0,0,89,351.43c3.57,3.72,7.72,6.09,11.48,8.32s7.34,4.27,10,6.86a16.39,16.39,0,0,1,5.13,9.6,19.07,19.07,0,0,1-1.41,11.42,27.65,27.65,0,0,1-6.4,8.45c-.28.05-.55.11-.83.15a42.06,42.06,0,0,1-12.16.12c-1-.18-2.91-.56-3.84-.86a35.81,35.81,0,0,1-11.53-5.07,39.21,39.21,0,0,1-9.21-8.71c-1.22-1.55-2.24-2.95-3-3.95s-1.19-1.62-1.19-1.62c-.56-.83-1.15-1.66-.77-.73a42.23,42.23,0,0,0,2.08,3.74,22.15,22.15,0,0,1,1.42,2.39,13.62,13.62,0,0,1-1.18-1.64c-.07.05-.59-.52-1.15-1.22a17.74,17.74,0,0,1-1.37-2,39.44,39.44,0,0,1-2-3.59c-.8-1.61-1.47-3.29-1.65-3.79-.24-.73-.3-.71-.24-.21a15.71,15.71,0,0,0,.64,2.69,39.12,39.12,0,0,0,1.43,3.89c.56,1.3,1.18,2.54,1.69,3.46,1,1.83-.19.11-.29.17.57.89,1,1.58,1.4,2.25l.67,1c.25.35.53.73.85,1.15l.16.23.46.61.7.9.91,1.06a39.94,39.94,0,0,0,4.27,4.21l.17.14c.12.09.29.25.56.44.54.4,1.37,1.08,2.7,2,.88.62.93.55.94.52l0,.07c.48.24,1.16.67,1.86,1.07s1.41.76,1.9,1l0,.08c1,.38,2,.87,3,1.22l1.5.57,1.54.45,0,.08.75.23.67.16a3.38,3.38,0,0,1,.64.18l0,.09c1,.33,3.17.55,3.15.64l0-.08a48.23,48.23,0,0,0,5.71.49c.87.06,1.7,0,2.51,0s1.62,0,2.42-.1A39,39,0,0,0,116,397.2,43.11,43.11,0,0,0,144.87,356.5ZM118,389.68a23.63,23.63,0,0,0,3.5-14.1,23,23,0,0,0-5.69-13.94c-3.39-3.84-7.49-6.35-11.21-8.67s-7.3-4.44-9.92-7a16.79,16.79,0,0,1-5-9.35,18.14,18.14,0,0,1,1.19-11.11,29.38,29.38,0,0,1,6.63-9c1.13-.14,2.22-.21,3.31-.24a36.14,36.14,0,0,1,11.1,1.49,42.44,42.44,0,0,1,2.78,76.18A25.12,25.12,0,0,0,118,389.68Z"/><circle class="cls-6" cx="323.77" cy="360.25" r="73.52"/><path class="cls-4" d="M377.87,360.29a55.33,55.33,0,0,0-33.94-51c-.69-.34-1.39-.67-2.11-1a50.4,50.4,0,0,0-16.36-3.89,51.33,51.33,0,0,0-16.16,1.74c-.64.16-1.62.38-2.55.69s-1.9.56-2.51.8a59.24,59.24,0,0,0-15,8.23,64,64,0,0,0-12.11,12.05,36,36,0,0,0-3.51,5.54,25,25,0,0,0-1.11,2.38c-.57,1.19-1,2.43-.28,1.35s1.84-3.05,3-4.63a14.51,14.51,0,0,1,2.22-2.77,6,6,0,0,1-.44.67c-.28.39-.66.91-1,1.44a7.63,7.63,0,0,1-.82,2c-.5,1-1.07,2.15-1.4,2.7s-1.3,2.56-2.17,4.61a37.33,37.33,0,0,0-1.73,4.76c-.26.92-.18.94.11.39s.81-1.63,1.52-2.94a89.46,89.46,0,0,1,5-8.08c1.44-2,.22.15.37.24,1.3-2.1,2.15-3,3.61-5l.22-.24c.14-.17.33-.4.58-.68.47-.58,1.17-1.36,1.93-2.22,1.55-1.72,3.54-3.63,4.92-4.86l.79-.73c.28-.26.67-.58,1.16-1s1.07-.9,1.82-1.44c1-.74.95-.78.92-.83l.06.09c.47-.4,1.24-.92,2-1.43s1.57-1,2.08-1.32l.06.09a52.43,52.43,0,0,1,6.52-3.41l0,.1c.55-.27,1.13-.47,1.56-.64a3.65,3.65,0,0,1,.73-.25l0,.1,2.15-.78.55-.19a32.15,32.15,0,0,0-5.71,6.44,29.67,29.67,0,0,0-4.65,18.46,28.57,28.57,0,0,0,7.95,18c4.58,4.77,9.9,7.8,14.72,10.67s9.43,5.48,12.89,8.8a21.11,21.11,0,0,1,6.58,12.32,24.37,24.37,0,0,1-1.81,14.65,35.17,35.17,0,0,1-8.21,10.84l-1.07.2a54.09,54.09,0,0,1-15.6.15c-1.25-.23-3.73-.72-4.92-1.1a46,46,0,0,1-14.8-6.51,50.59,50.59,0,0,1-11.82-11.17c-1.56-2-2.87-3.79-3.83-5.07l-1.53-2.08c-.71-1.07-1.47-2.13-1-.93s1.64,3.15,2.67,4.8a32.67,32.67,0,0,1,1.83,3.05,15.81,15.81,0,0,1-1.52-2.1,6.84,6.84,0,0,1-1.48-1.57,22,22,0,0,1-1.75-2.57,49.16,49.16,0,0,1-2.56-4.61c-1-2.07-1.88-4.22-2.12-4.86-.3-.94-.38-.92-.31-.27a21.83,21.83,0,0,0,.83,3.46,49.66,49.66,0,0,0,1.83,5c.73,1.68,1.52,3.26,2.18,4.44,1.31,2.36-.25.15-.38.22.73,1.15,1.24,2,1.8,2.88l.86,1.32c.32.45.68.93,1.09,1.47l.2.3.59.78.9,1.15,1.17,1.37a52.08,52.08,0,0,0,5.48,5.4l.21.17c.15.12.38.32.73.57.69.51,1.75,1.38,3.46,2.52,1.13.79,1.19.7,1.21.66l-.06.09c.62.31,1.49.86,2.38,1.37s1.82,1,2.44,1.27l-.05.09c1.29.5,2.51,1.13,3.81,1.58.65.24,1.28.49,1.93.72l2,.58,0,.1,1,.29.86.21a3.42,3.42,0,0,1,.82.24l0,.11c1.32.42,4.07.71,4.05.82v-.11a59.17,59.17,0,0,0,7.34.64c1.11.07,2.17,0,3.22,0a29.11,29.11,0,0,0,3.1-.14,49.78,49.78,0,0,0,15.3-3.47A55.33,55.33,0,0,0,377.87,360.29Zm-34.53,42.58a30.27,30.27,0,0,0,4.5-18.09,29.63,29.63,0,0,0-7.3-17.89c-4.35-4.92-9.61-8.15-14.39-11.12s-9.37-5.7-12.73-9a21.49,21.49,0,0,1-6.46-12,23.24,23.24,0,0,1,1.52-14.26A38.16,38.16,0,0,1,317,308.91a41.44,41.44,0,0,1,4.24-.3,46.28,46.28,0,0,1,14.25,1.91A54.44,54.44,0,0,1,339,408.26,32,32,0,0,0,343.34,402.87Z"/><circle class="cls-7" cx="898.1" cy="343.95" r="39.95"/><path class="cls-4" d="M927.49,344a30.05,30.05,0,0,0-18.43-27.72l-1.15-.53a27.11,27.11,0,0,0-8.89-2.11,27.81,27.81,0,0,0-8.78.95c-.35.08-.88.2-1.39.37s-1,.3-1.36.43a32.21,32.21,0,0,0-8.15,4.48,34.85,34.85,0,0,0-6.58,6.54,19.35,19.35,0,0,0-1.9,3c-.41.8-.61,1.3-.61,1.3-.31.64-.54,1.31-.15.73s1-1.66,1.61-2.52a7.58,7.58,0,0,1,1.21-1.5,2.27,2.27,0,0,1-.24.36c-.16.21-.36.5-.56.78a4,4,0,0,1-.45,1.07c-.27.55-.58,1.17-.76,1.47s-.7,1.39-1.18,2.5a21.76,21.76,0,0,0-.94,2.59c-.14.5-.1.51.06.21s.44-.88.83-1.59a48.09,48.09,0,0,1,2.73-4.4c.79-1.1.12.08.2.13.71-1.14,1.17-1.64,2-2.72l.12-.13.31-.36c.26-.32.63-.74,1-1.21.84-.93,1.92-2,2.67-2.64l.43-.4c.15-.14.36-.31.63-.53s.58-.49,1-.78.52-.43.5-.45l0,.05c.26-.22.67-.5,1.09-.78s.85-.53,1.13-.72l0,0a29,29,0,0,1,3.54-1.85l0,.05c.3-.14.61-.25.84-.35a2,2,0,0,1,.4-.13l0,.06,1.17-.43.3-.1a17.47,17.47,0,0,0-3.11,3.5,16.13,16.13,0,0,0-2.52,10,15.46,15.46,0,0,0,4.32,9.76,35.88,35.88,0,0,0,8,5.8,37.28,37.28,0,0,1,7,4.78,11.47,11.47,0,0,1,3.58,6.7,13.26,13.26,0,0,1-1,8,19.22,19.22,0,0,1-4.46,5.89l-.58.1a29.08,29.08,0,0,1-8.48.09c-.67-.13-2-.39-2.67-.6a25,25,0,0,1-8-3.54,27.25,27.25,0,0,1-6.42-6.07c-.85-1.08-1.56-2.06-2.08-2.75l-.84-1.13c-.38-.58-.79-1.16-.53-.51s.89,1.71,1.45,2.61a17,17,0,0,1,1,1.66,10.57,10.57,0,0,1-.83-1.14,4.4,4.4,0,0,1-.8-.85,12.48,12.48,0,0,1-1-1.4c-.2-.3-.83-1.38-1.39-2.51s-1-2.29-1.15-2.64c-.17-.51-.21-.5-.17-.15a12.37,12.37,0,0,0,.45,1.88,26.83,26.83,0,0,0,1,2.71,26,26,0,0,0,1.18,2.41c.71,1.28-.13.08-.21.12.4.63.68,1.1,1,1.57l.47.72c.17.24.37.5.59.79l.11.17.32.42.49.63.64.74a27.1,27.1,0,0,0,3,2.93l.12.1c.08.06.2.17.39.31.38.27.95.75,1.89,1.36.61.43.64.38.65.37l0,0c.34.16.81.46,1.29.74s1,.53,1.33.69l0,.05c.7.27,1.37.61,2.07.85l1,.4,1.07.31v.06l.52.15.47.12a1.37,1.37,0,0,1,.44.13v.05c.72.24,2.21.39,2.2.45V374a30.4,30.4,0,0,0,4,.35c.61,0,1.19,0,1.76,0s1.12,0,1.68-.07a27.22,27.22,0,0,0,8.31-1.89A30.06,30.06,0,0,0,927.49,344Zm-18.75,23.14a16.48,16.48,0,0,0,2.44-9.83,16.08,16.08,0,0,0-4-9.72,33.49,33.49,0,0,0-7.82-6.05,38,38,0,0,1-6.91-4.91,11.6,11.6,0,0,1-3.51-6.51,12.64,12.64,0,0,1,.82-7.75,20.62,20.62,0,0,1,4.63-6.28c.79-.1,1.55-.15,2.3-.17a25,25,0,0,1,7.75,1A29.58,29.58,0,0,1,906.4,370,17.73,17.73,0,0,0,908.74,367.11Z"/><circle class="cls-8" cx="712.29" cy="396.29" r="42.44"/><path class="cls-4" d="M743.52,396.32a31.92,31.92,0,0,0-19.59-29.45c-.4-.2-.81-.39-1.22-.57a28.93,28.93,0,0,0-9.44-2.24,29.47,29.47,0,0,0-9.33,1c-.37.09-.93.22-1.47.4s-1.1.33-1.45.46a33.88,33.88,0,0,0-8.66,4.76,37.12,37.12,0,0,0-7,6.95,21.26,21.26,0,0,0-2,3.2,13.79,13.79,0,0,0-.64,1.37c-.33.68-.58,1.4-.16.78s1.06-1.76,1.71-2.67a8.42,8.42,0,0,1,1.28-1.6,2.63,2.63,0,0,1-.26.38l-.59.83a4.36,4.36,0,0,1-.48,1.14c-.29.58-.61,1.24-.8,1.56s-.75,1.48-1.25,2.66a20.79,20.79,0,0,0-1,2.74c-.15.53-.11.55.06.23s.47-.94.88-1.69a49.92,49.92,0,0,1,2.9-4.67c.83-1.17.13.09.21.14a35.41,35.41,0,0,1,2.09-2.89l.13-.14.33-.39c.27-.34.67-.78,1.11-1.28a38.82,38.82,0,0,1,2.85-2.8l.45-.43c.16-.15.38-.33.67-.56s.62-.52,1-.84.55-.45.53-.47l0,0c.27-.23.71-.53,1.15-.83s.91-.56,1.2-.76l0,.05a32.9,32.9,0,0,1,3.77-2l0,.06c.32-.15.66-.27.9-.37a2,2,0,0,1,.42-.14l0,.06,1.25-.45.31-.11a19,19,0,0,0-3.29,3.71,17.44,17.44,0,0,0-1.32,16.23,17.62,17.62,0,0,0,3.22,4.81,38.43,38.43,0,0,0,8.5,6.16,38.92,38.92,0,0,1,7.44,5.08,12.1,12.1,0,0,1,3.8,7.11,14.08,14.08,0,0,1-1,8.45,20.16,20.16,0,0,1-4.73,6.26l-.62.12a31.67,31.67,0,0,1-9,.08c-.72-.13-2.15-.41-2.84-.63a26.67,26.67,0,0,1-8.54-3.76,29.46,29.46,0,0,1-6.82-6.45c-.9-1.15-1.66-2.19-2.21-2.93l-.89-1.19c-.41-.62-.85-1.24-.57-.54s.95,1.82,1.54,2.77a18.08,18.08,0,0,1,1.06,1.76,9.57,9.57,0,0,1-.88-1.21,4.18,4.18,0,0,1-.85-.91,11.58,11.58,0,0,1-1-1.48A29.35,29.35,0,0,1,683,408.6c-.59-1.2-1.09-2.44-1.22-2.81-.18-.54-.22-.53-.18-.16a12.69,12.69,0,0,0,.48,2,28.44,28.44,0,0,0,1.05,2.88c.42,1,.88,1.88,1.26,2.56.76,1.36-.14.09-.22.13.42.66.72,1.17,1,1.66.16.25.32.5.5.76s.39.54.63.85a1.38,1.38,0,0,0,.11.17l.34.45.52.67.68.79a28.65,28.65,0,0,0,3.16,3.11l.12.1c.09.07.22.19.42.33.4.3,1,.8,2,1.46.65.45.69.4.7.38l0,.05c.36.18.86.5,1.38.79s1,.57,1.41.73l0,.06c.74.28,1.45.65,2.2.91l1.11.41,1.14.34,0,.06.56.16.5.13a3.23,3.23,0,0,1,.47.13v.06c.76.25,2.35.41,2.34.48v-.06a34.47,34.47,0,0,0,4.24.36c.64,0,1.25,0,1.86,0s1.19,0,1.79-.08a29,29,0,0,0,8.83-2A31.93,31.93,0,0,0,743.52,396.32Zm-19.93,24.57a17.4,17.4,0,0,0,2.59-10.44A17.09,17.09,0,0,0,722,400.12a35.8,35.8,0,0,0-8.31-6.42,40.13,40.13,0,0,1-7.34-5.21,12.42,12.42,0,0,1-3.73-6.92,13.36,13.36,0,0,1,.88-8.23,21.94,21.94,0,0,1,4.91-6.68,23,23,0,0,1,2.45-.18,26.86,26.86,0,0,1,8.22,1.1A31.43,31.43,0,0,1,721.11,424,18,18,0,0,0,723.59,420.89Z"/><circle class="cls-9" cx="894.39" cy="442.15" r="42.44"/><path class="cls-4" d="M925.62,442.18A31.94,31.94,0,0,0,906,412.73c-.4-.2-.81-.39-1.22-.57A28.14,28.14,0,0,0,886,410.93c-.37.09-.94.21-1.47.39s-1.1.33-1.46.46a34.3,34.3,0,0,0-8.65,4.76,36.82,36.82,0,0,0-7,6.95,20.48,20.48,0,0,0-2,3.2c-.44.84-.65,1.37-.65,1.37-.32.69-.57,1.4-.15.78s1.06-1.76,1.7-2.67a8.23,8.23,0,0,1,1.29-1.6,2.63,2.63,0,0,1-.26.38c-.16.23-.38.53-.59.84a4.53,4.53,0,0,1-.48,1.13c-.29.58-.61,1.24-.8,1.56s-.75,1.48-1.26,2.66a23.06,23.06,0,0,0-1,2.74c-.15.53-.1.55.07.23s.46-.94.88-1.69a49.92,49.92,0,0,1,2.9-4.67c.83-1.17.13.09.21.14.76-1.21,1.24-1.74,2.09-2.89l.12-.14.34-.39c.27-.34.67-.78,1.11-1.28a38.82,38.82,0,0,1,2.84-2.8l.46-.42a8.22,8.22,0,0,1,.67-.57c.28-.24.62-.52,1-.83s.55-.45.53-.48l0,.05c.27-.23.71-.53,1.15-.83s.91-.55,1.2-.76l0,.06a31.33,31.33,0,0,1,3.76-2l0,.06c.32-.15.65-.27.9-.37a2.78,2.78,0,0,1,.42-.14l0,.06,1.25-.45.31-.11a18.78,18.78,0,0,0-3.3,3.72A17.45,17.45,0,0,0,881,433.62a17.47,17.47,0,0,0,3.22,4.81,38.2,38.2,0,0,0,8.5,6.16,39.38,39.38,0,0,1,7.44,5.08,12.21,12.21,0,0,1,3.8,7.11,14.08,14.08,0,0,1-1.05,8.45,20.35,20.35,0,0,1-4.74,6.26l-.61.12a31,31,0,0,1-9,.08c-.72-.13-2.15-.41-2.84-.63a26.46,26.46,0,0,1-8.54-3.76,29.06,29.06,0,0,1-6.82-6.45c-.9-1.15-1.66-2.18-2.21-2.93l-.89-1.19c-.41-.62-.85-1.24-.57-.54s.95,1.82,1.54,2.77,1.1,1.73,1.06,1.76a8.57,8.57,0,0,1-.88-1.21s-.43-.39-.85-.91a13,13,0,0,1-1-1.48c-.21-.32-.88-1.47-1.47-2.66a29.45,29.45,0,0,1-1.22-2.81c-.18-.54-.23-.53-.18-.15a12.56,12.56,0,0,0,.47,2c.27.88.65,1.91,1.06,2.88s.88,1.88,1.26,2.56c.76,1.36-.14.09-.22.13.42.66.72,1.17,1,1.66.16.25.32.5.5.76s.39.54.63.85a.83.83,0,0,0,.11.17l.34.46c.15.18.33.41.52.66l.68.79a27.78,27.78,0,0,0,3.16,3.11l.12.11c.09.06.22.18.42.33.4.29,1,.79,2,1.45.65.45.68.4.7.38l0,0c.36.18.86.5,1.38.79s1,.57,1.41.73l0,.06c.74.29,1.45.65,2.2.91l1.11.41,1.14.34,0,.06.56.17.49.12.48.13v.07c.76.24,2.34.41,2.33.47V474a36.54,36.54,0,0,0,4.24.37c.64,0,1.25,0,1.86,0s1.19,0,1.78-.08a29,29,0,0,0,8.84-2A31.93,31.93,0,0,0,925.62,442.18Zm-19.93,24.57a17.45,17.45,0,0,0,2.59-10.44A17,17,0,0,0,904.07,446a35.58,35.58,0,0,0-8.31-6.43,40.13,40.13,0,0,1-7.34-5.21,12.36,12.36,0,0,1-3.73-6.92,13.43,13.43,0,0,1,.87-8.23,22.11,22.11,0,0,1,4.91-6.68c.85-.1,1.65-.16,2.46-.18a26.62,26.62,0,0,1,8.22,1.11,31.42,31.42,0,0,1,2.06,56.41A19,19,0,0,0,905.69,466.75Z"/><circle class="cls-10" cx="432.37" cy="434.9" r="51.41"/><path class="cls-4" d="M470.19,434.92a38.68,38.68,0,0,0-23.72-35.67c-.49-.24-1-.47-1.48-.69a35.26,35.26,0,0,0-11.44-2.71,35.65,35.65,0,0,0-11.3,1.22,18.46,18.46,0,0,0-1.79.48c-.66.2-1.32.39-1.75.56a40.8,40.8,0,0,0-10.48,5.75,44.5,44.5,0,0,0-8.47,8.43,25.16,25.16,0,0,0-2.46,3.87c-.52,1-.77,1.67-.77,1.67-.4.82-.7,1.69-.19.94s1.28-2.13,2.06-3.24a10.86,10.86,0,0,1,1.56-1.94,3.6,3.6,0,0,1-.31.47l-.72,1a5.4,5.4,0,0,1-.58,1.37c-.35.7-.74,1.51-1,1.89s-.91,1.79-1.52,3.22a25.78,25.78,0,0,0-1.21,3.33c-.18.64-.13.66.07.27s.57-1.13,1.07-2a59.63,59.63,0,0,1,3.52-5.65c1-1.42.15.1.25.17.92-1.47,1.51-2.12,2.53-3.5l.15-.17.41-.48c.33-.4.81-.94,1.35-1.55a47,47,0,0,1,3.44-3.39L408,408c.2-.19.47-.41.81-.69s.75-.63,1.27-1c.69-.51.67-.54.65-.58l0,.07c.33-.28.87-.64,1.4-1s1.1-.67,1.45-.92l0,.07a37.31,37.31,0,0,1,4.56-2.39l0,.07c.39-.19.79-.33,1.09-.45a1.89,1.89,0,0,1,.51-.17l0,.07,1.51-.55.38-.13a22.76,22.76,0,0,0-4,4.5,21.13,21.13,0,0,0-1.59,19.66,21,21,0,0,0,3.91,5.82c3.19,3.34,6.92,5.46,10.29,7.47a47.67,47.67,0,0,1,9,6.15,14.67,14.67,0,0,1,4.6,8.61,17,17,0,0,1-1.27,10.25,24.75,24.75,0,0,1-5.73,7.58l-.75.14a37.68,37.68,0,0,1-10.91.1c-.87-.16-2.61-.5-3.44-.77a31.88,31.88,0,0,1-10.35-4.55,35.11,35.11,0,0,1-8.26-7.81c-1.1-1.39-2-2.65-2.68-3.55s-1.07-1.45-1.07-1.45c-.5-.75-1-1.49-.69-.65a36.74,36.74,0,0,0,1.86,3.35,22.4,22.4,0,0,1,1.28,2.14,11.15,11.15,0,0,1-1.07-1.47c-.06.05-.52-.47-1-1.09a15.13,15.13,0,0,1-1.22-1.81,33.8,33.8,0,0,1-1.79-3.22c-.72-1.44-1.32-2.95-1.48-3.39-.22-.66-.27-.65-.22-.2a15,15,0,0,0,.58,2.42,35.12,35.12,0,0,0,1.28,3.49c.51,1.17,1.06,2.28,1.52,3.1.92,1.65-.17.11-.26.16.51.8.87,1.41,1.26,2l.6.92c.22.32.47.65.76,1l.14.21.41.55.63.8.82,1a36.38,36.38,0,0,0,3.83,3.77l.15.12a5.77,5.77,0,0,0,.51.4c.48.36,1.22,1,2.42,1.76.79.55.83.49.84.47l0,.06c.44.21,1,.6,1.67,1s1.27.68,1.7.88l0,.07c.9.35,1.76.79,2.66,1.1l1.35.5,1.38.41,0,.07.68.21.6.14a2.61,2.61,0,0,1,.57.17V473c.92.3,2.84.5,2.83.58v-.08a40.23,40.23,0,0,0,5.13.45c.78,0,1.52,0,2.25,0s1.45,0,2.17-.1a34.73,34.73,0,0,0,10.7-2.43A38.67,38.67,0,0,0,470.19,434.92ZM446.05,464.7a21.13,21.13,0,0,0,3.15-12.65,20.74,20.74,0,0,0-5.11-12.51c-3-3.44-6.72-5.7-10.06-7.78s-6.55-4-8.9-6.32a15,15,0,0,1-4.52-8.38,16.33,16.33,0,0,1,1.06-10,26.87,26.87,0,0,1,5.95-8.09c1-.13,2-.19,3-.22a32.62,32.62,0,0,1,10,1.34,38.08,38.08,0,0,1,2.49,68.35A22.19,22.19,0,0,0,446.05,464.7Z"/><circle class="cls-11" cx="592.41" cy="372.95" r="63.98"/><path class="cls-4" d="M639.49,373A48.15,48.15,0,0,0,610,328.59c-.61-.29-1.22-.58-1.84-.85a43.82,43.82,0,0,0-14.23-3.38,44.59,44.59,0,0,0-14.06,1.52c-.57.13-1.41.33-2.23.59s-1.65.49-2.18.7a51.37,51.37,0,0,0-13,7.17,55,55,0,0,0-10.53,10.48,31.27,31.27,0,0,0-3.06,4.82c-.65,1.27-1,2.07-1,2.07-.5,1-.87,2.11-.24,1.17s1.6-2.65,2.57-4a13.43,13.43,0,0,1,1.93-2.41,3.07,3.07,0,0,1-.38.58l-.9,1.26a6,6,0,0,1-.71,1.7c-.44.88-.93,1.88-1.22,2.36s-1.13,2.23-1.88,4a32.94,32.94,0,0,0-1.51,4.14c-.23.79-.16.82.09.34s.71-1.42,1.33-2.56a79.73,79.73,0,0,1,4.37-7c1.26-1.76.2.13.32.21,1.14-1.83,1.87-2.63,3.15-4.36l.19-.21.5-.59c.41-.5,1-1.17,1.68-1.93a59.83,59.83,0,0,1,4.29-4.22l.68-.64c.25-.23.58-.5,1-.85s.93-.78,1.58-1.26c.86-.64.83-.68.8-.71l.06.07c.41-.34,1.07-.8,1.74-1.25s1.37-.84,1.81-1.14l0,.08a44.29,44.29,0,0,1,5.67-3l0,.08c.48-.23,1-.4,1.35-.55a3,3,0,0,1,.64-.22l0,.09,1.88-.68.47-.17a28.52,28.52,0,0,0-5,5.61,25.79,25.79,0,0,0-4,16.06,25,25,0,0,0,6.92,15.64c4,4.15,8.61,6.8,12.81,9.29s8.2,4.77,11.21,7.66A18.32,18.32,0,0,1,606.87,395a21.22,21.22,0,0,1-1.58,12.74,30.7,30.7,0,0,1-7.14,9.44l-.93.17a47.24,47.24,0,0,1-13.58.13c-1.08-.2-3.24-.62-4.28-1a39.66,39.66,0,0,1-12.87-5.66,44,44,0,0,1-10.29-9.72c-1.36-1.73-2.5-3.3-3.33-4.41l-1.34-1.81c-.61-.93-1.28-1.86-.85-.81s1.42,2.74,2.31,4.17a29,29,0,0,1,1.6,2.66,15.17,15.17,0,0,1-1.33-1.82,6.06,6.06,0,0,1-1.28-1.37,20.66,20.66,0,0,1-1.53-2.24c-.32-.48-1.33-2.21-2.22-4a45.63,45.63,0,0,1-1.84-4.23c-.27-.81-.34-.8-.27-.24a19.35,19.35,0,0,0,.71,3,44.16,44.16,0,0,0,1.6,4.34c.63,1.46,1.32,2.84,1.89,3.86,1.15,2.05-.21.13-.32.2.63,1,1.08,1.76,1.56,2.5.24.38.49.75.75,1.15s.59.81,1,1.28c0,0,0,.09.17.26l.52.68.78,1c.31.37.65.77,1,1.19a44.48,44.48,0,0,0,4.76,4.7l.19.15c.13.1.33.28.63.5.6.44,1.52,1.2,3,2.19,1,.68,1,.6,1,.57l0,.08c.54.27,1.3.75,2.08,1.19s1.58.86,2.12,1.1l0,.09c1.12.43,2.18,1,3.31,1.37.56.21,1.12.43,1.68.63l1.72.5,0,.09.85.25.74.18a4.47,4.47,0,0,1,.72.21l0,.09c1.16.37,3.54.62,3.53.72V421a52.25,52.25,0,0,0,6.38.55c1,.06,1.9,0,2.81,0a26.63,26.63,0,0,0,2.69-.12,43.18,43.18,0,0,0,13.31-3A48.13,48.13,0,0,0,639.49,373Zm-30,37a26.36,26.36,0,0,0,3.91-15.73A25.7,25.7,0,0,0,607,378.73c-3.78-4.28-8.36-7.09-12.52-9.68s-8.15-5-11.07-7.86a18.67,18.67,0,0,1-5.62-10.44,20.11,20.11,0,0,1,1.32-12.4,33,33,0,0,1,7.4-10.07,36.63,36.63,0,0,1,3.7-.27,40.49,40.49,0,0,1,12.4,1.66,47.37,47.37,0,0,1,3.09,85.05A27.86,27.86,0,0,0,609.45,410Z"/><circle class="cls-12" cx="791.86" cy="275.71" r="93.67"/><path class="cls-4" d="M860.78,275.76a70.47,70.47,0,0,0-43.23-65c-.88-.44-1.78-.85-2.68-1.25A64.59,64.59,0,0,0,794,204.56a65.45,65.45,0,0,0-20.59,2.22c-.82.2-2.06.49-3.25.88s-2.42.72-3.2,1a75,75,0,0,0-19.1,10.49,81.55,81.55,0,0,0-15.43,15.34,47.54,47.54,0,0,0-4.47,7.07c-1,1.86-1.41,3-1.41,3-.73,1.51-1.27,3.09-.35,1.71s2.34-3.88,3.76-5.9a19.6,19.6,0,0,1,2.83-3.53,4.7,4.7,0,0,1-.56.86l-1.31,1.83a8.88,8.88,0,0,1-1.05,2.5c-.64,1.28-1.36,2.75-1.77,3.44s-1.66,3.27-2.77,5.88a47.65,47.65,0,0,0-2.21,6.06c-.33,1.17-.23,1.2.14.49s1-2.06,1.94-3.73a112.56,112.56,0,0,1,6.41-10.3c1.84-2.58.28.19.46.3,1.67-2.67,2.75-3.84,4.61-6.37,0,0,.11-.11.28-.31s.43-.5.73-.86c.61-.74,1.49-1.73,2.47-2.83a83.61,83.61,0,0,1,6.27-6.18l1-.93c.35-.34.84-.75,1.47-1.26s1.37-1.14,2.32-1.83c1.25-.94,1.21-1,1.17-1.06l.08.12c.6-.51,1.57-1.17,2.55-1.83s2-1.23,2.65-1.68l.07.12a66.17,66.17,0,0,1,8.3-4.35l.06.13c.7-.35,1.44-.6,2-.82A4.33,4.33,0,0,1,769,214l.05.13,2.75-1,.69-.24a41.28,41.28,0,0,0-7.27,8.2c-4.56,6.69-6.49,15.35-5.92,23.52a36.43,36.43,0,0,0,10.13,22.9c5.83,6.08,12.61,9.95,18.75,13.61s12,7,16.42,11.2A26.84,26.84,0,0,1,813,308a31.08,31.08,0,0,1-2.3,18.67,45.11,45.11,0,0,1-10.46,13.81c-.45.09-.91.18-1.36.25a69.08,69.08,0,0,1-19.88.2c-1.59-.3-4.74-.91-6.27-1.41a58.58,58.58,0,0,1-18.85-8.28A64.8,64.8,0,0,1,738.84,317c-2-2.54-3.66-4.83-4.88-6.46l-2-2.64c-.9-1.37-1.87-2.73-1.26-1.2s2.09,4,3.4,6.12a38.36,38.36,0,0,1,2.33,3.89,22.47,22.47,0,0,1-1.94-2.67,9.23,9.23,0,0,1-1.88-2,27.86,27.86,0,0,1-2.23-3.29,61.24,61.24,0,0,1-3.26-5.86c-1.31-2.64-2.4-5.38-2.7-6.19-.39-1.2-.49-1.17-.39-.36a27.09,27.09,0,0,0,1,4.41,62.56,62.56,0,0,0,2.34,6.35c.92,2.14,1.92,4.16,2.76,5.66,1.68,3-.31.19-.47.28.92,1.46,1.58,2.58,2.29,3.67.35.55.71,1.09,1.09,1.68s.86,1.18,1.39,1.87l.25.38.76,1c.33.42.72.91,1.15,1.47l1.49,1.74a65.69,65.69,0,0,0,7,6.87l.28.23c.19.15.48.41.92.73.88.64,2.23,1.75,4.42,3.2,1.43,1,1.51.89,1.53.85l-.07.11c.79.39,1.89,1.1,3,1.74s2.31,1.25,3.1,1.62l-.06.12c1.64.63,3.2,1.43,4.85,2,.82.31,1.64.63,2.46.92l2.52.74,0,.13,1.23.37,1.09.27a4.64,4.64,0,0,1,1.05.31l0,.13c1.69.54,5.18.91,5.16,1.05l0-.14a74.24,74.24,0,0,0,9.34.81c1.42.09,2.78,0,4.11,0s2.63,0,3.94-.18a64,64,0,0,0,19.5-4.42A70.48,70.48,0,0,0,860.78,275.76ZM816.8,330a38.58,38.58,0,0,0,5.73-23,37.71,37.71,0,0,0-9.31-22.8C807.69,277.9,801,273.78,794.89,270s-11.93-7.25-16.21-11.51a27.35,27.35,0,0,1-8.23-15.28A29.58,29.58,0,0,1,772.38,225c2.32-5.35,6.28-10.24,10.84-14.74a53.6,53.6,0,0,1,5.41-.39,59,59,0,0,1,18.16,2.43,69.37,69.37,0,0,1,4.53,124.53A41,41,0,0,0,816.8,330Z"/><circle class="cls-13" cx="520.98" cy="450.85" r="30.99"/><path class="cls-4" d="M543.78,450.86a23.31,23.31,0,0,0-14.3-21.5c-.29-.15-.59-.28-.89-.41a21.14,21.14,0,0,0-6.9-1.64,21.7,21.7,0,0,0-6.81.73c-.27.07-.68.16-1.07.29s-.8.24-1.06.34a24.84,24.84,0,0,0-6.32,3.47,26.67,26.67,0,0,0-5.1,5.08,15,15,0,0,0-1.48,2.33c-.32.62-.47,1-.47,1-.24.5-.42,1-.12.56s.78-1.28,1.25-1.95a7.33,7.33,0,0,1,.93-1.17,1.79,1.79,0,0,1-.18.29c-.12.16-.28.38-.43.6a3.52,3.52,0,0,1-.35.83c-.21.43-.45.91-.59,1.14s-.55,1.08-.91,1.94a13.68,13.68,0,0,0-.73,2c-.11.38-.08.4,0,.16s.34-.68.64-1.23c.6-1.11,1.52-2.55,2.12-3.41s.1.06.16.1c.55-.89.9-1.27,1.52-2.11l.09-.1.25-.29c.2-.24.49-.57.81-.93A26.42,26.42,0,0,1,506,435l.33-.31.49-.41c.2-.17.45-.38.76-.61s.4-.33.39-.35l0,0a9.48,9.48,0,0,1,.84-.6l.88-.56,0,0a21.78,21.78,0,0,1,2.75-1.44l0,0c.23-.11.47-.2.65-.27a1.36,1.36,0,0,1,.31-.1l0,0,.91-.33.23-.08a13.42,13.42,0,0,0-2.41,2.72,12.45,12.45,0,0,0-2,7.78,12.12,12.12,0,0,0,3.35,7.57,27.67,27.67,0,0,0,6.21,4.51,28.5,28.5,0,0,1,5.43,3.7,8.86,8.86,0,0,1,2.77,5.19,10.29,10.29,0,0,1-.76,6.18,14.79,14.79,0,0,1-3.46,4.57l-.45.08a23.07,23.07,0,0,1-6.58.07,20.68,20.68,0,0,1-2.07-.47,19.36,19.36,0,0,1-6.24-2.74,21.39,21.39,0,0,1-5-4.71c-.66-.84-1.21-1.6-1.62-2.14l-.64-.87c-.3-.45-.62-.9-.42-.4a23.06,23.06,0,0,0,1.13,2,14.68,14.68,0,0,1,.77,1.29,7.06,7.06,0,0,1-.64-.89s-.32-.28-.63-.66a9.64,9.64,0,0,1-.74-1.09c-.15-.23-.64-1.07-1.07-1.94a19.21,19.21,0,0,1-.89-2.05c-.13-.39-.17-.38-.14-.11a10.76,10.76,0,0,0,.35,1.46,21.23,21.23,0,0,0,.78,2.1,20.65,20.65,0,0,0,.91,1.87c.56,1-.1.06-.16.09.31.48.53.86.76,1.22l.36.55.46.62.09.13.25.33.38.48.49.58a20.36,20.36,0,0,0,2.31,2.27l.09.08.3.24c.3.21.74.58,1.47,1.06.47.33.49.29.5.28l0,0c.26.12.63.36,1,.57s.77.42,1,.54l0,0c.54.21,1.06.47,1.61.66l.81.3.83.25v0l.41.12.36.09a1.38,1.38,0,0,1,.34.1v.05c.56.18,1.72.3,1.71.35v-.05a26.23,26.23,0,0,0,3.09.27c.47,0,.92,0,1.36,0s.87,0,1.3-.06a21.21,21.21,0,0,0,6.45-1.46A23.32,23.32,0,0,0,543.78,450.86Zm-14.55,17.95a12.77,12.77,0,0,0,1.9-7.62,12.5,12.5,0,0,0-3.08-7.55A26,26,0,0,0,522,449a29.8,29.8,0,0,1-5.36-3.8,9,9,0,0,1-2.72-5.06,9.75,9.75,0,0,1,.64-6,15.83,15.83,0,0,1,3.58-4.87,16.05,16.05,0,0,1,1.79-.13,19.57,19.57,0,0,1,6,.8,22.95,22.95,0,0,1,1.5,41.2A13.47,13.47,0,0,0,529.23,468.81Z"/></svg>