<svg width="284" height="62" viewBox="0 0 284 62" fill="none" xmlns="http://www.w3.org/2000/svg">
<path d="M60.9994 31.0032C60.9994 47.5716 47.5681 61.0029 30.9997 61.0029C14.4314 61.0029 1.00001 47.5716 1.00001 31.0032C1.00001 14.4349 14.4314 1.00355 30.9997 1.00355C47.5681 1.00355 60.9994 14.4349 60.9994 31.0032Z" stroke="url(#paint0_linear)" stroke-width="0.2" stroke-miterlimit="10"/>
<path d="M31.5876 1.59223C47.8305 1.87518 60.8541 15.2084 60.6466 31.5428C60.5744 37.3065 58.8548 42.6734 55.9348 47.196C50.6152 55.4892 41.2154 60.9675 30.7233 60.7362C21.5759 60.5344 13.6827 56.3933 8.39078 49.4958C4.33017 44.2031 1.46544 37.4912 1.58802 30.4154C1.91291 14.1719 15.3434 1.30927 31.5876 1.59223Z" stroke="url(#paint1_linear)" stroke-width="0.2" stroke-miterlimit="10"/>
<path d="M32.1718 2.18016C48.0877 2.74598 60.7051 15.9811 60.2902 32.0815C60.1458 37.7622 58.366 43.0308 55.432 47.4718C50.0733 55.5833 40.7046 60.9316 30.4432 60.4688C21.4984 60.0654 14.0654 56.0648 8.98286 48.9726C5.10777 43.5656 1.90826 36.7605 2.17223 29.8269C2.77853 13.9066 16.25 1.61418 32.1718 2.18016Z" stroke="url(#paint2_linear)" stroke-width="0.2" stroke-miterlimit="10"/>
<path d="M32.7657 2.76822C48.353 3.61667 60.5657 16.754 59.9432 32.6203C59.7267 38.2181 57.8937 43.3927 54.9389 47.7478C49.5537 55.6852 40.2019 60.8956 30.1726 60.2015C21.4289 59.5964 14.4579 55.7394 9.58439 48.4496C5.89466 42.9304 2.37001 36.0296 2.76597 29.2385C3.6755 13.6408 17.1645 1.91904 32.7657 2.76822Z" stroke="url(#paint3_linear)" stroke-width="0.2" stroke-miterlimit="10"/>
<path d="M33.3492 3.35649C48.6066 4.48732 60.416 17.5271 59.5861 33.1595C59.2973 38.6743 57.4113 43.7547 54.4356 48.024C49.0243 55.7872 39.6875 60.8597 29.8918 59.9344C21.3477 59.1275 14.8401 55.4175 10.1758 47.9267C6.67084 42.298 2.8217 35.2986 3.34948 28.6503C4.56241 13.3743 18.067 2.22387 33.3492 3.35649Z" stroke="url(#paint4_linear)" stroke-width="0.2" stroke-miterlimit="10"/>
<path d="M33.9408 3.94469C48.8666 5.35742 60.2745 18.3001 59.2371 33.6986C58.8761 39.1302 56.9372 44.1165 53.9402 48.3001C48.5036 55.8891 39.1798 60.8233 29.6191 59.6673C21.2732 58.6581 15.23 55.0985 10.7752 47.4037C7.45438 41.6677 3.28149 34.5672 3.94117 28.062C5.45765 13.1067 18.9757 2.52823 33.9408 3.94469Z" stroke="url(#paint5_linear)" stroke-width="0.2" stroke-miterlimit="10"/>
<path d="M34.5276 4.5331C49.1201 6.22716 60.1281 19.0734 58.8832 34.2377C58.4501 39.5865 56.4587 44.4785 53.4401 48.5764C47.9785 55.9911 38.6656 60.7868 29.3416 59.4004C21.1922 58.1887 15.6144 54.7826 11.3698 46.8811C8.23215 41.0399 3.73672 33.8355 4.52798 27.474C6.34843 12.8383 19.8775 2.83231 34.5276 4.5331Z" stroke="url(#paint6_linear)" stroke-width="0.2" stroke-miterlimit="10"/>
<path d="M35.1158 5.12089C49.3732 7.09555 59.9831 19.846 58.5307 34.7764C58.0254 40.0421 55.9817 44.8397 52.9413 48.8521C47.4552 56.0924 38.1511 60.7488 29.0655 59.1328C21.111 57.718 15.9993 54.4689 11.9659 46.3577C9.01015 40.4138 4.19348 33.1027 5.11616 26.8853C7.24097 12.5681 20.7787 3.13512 35.1158 5.12089Z" stroke="url(#paint7_linear)" stroke-width="0.2" stroke-miterlimit="10"/>
<path d="M35.7051 5.70927C49.6257 7.96364 59.8393 20.6192 58.1793 35.3157C57.6018 40.4983 55.5062 45.2014 52.4437 49.1284C46.9336 56.1942 37.6361 60.7106 28.7904 58.8659C21.0291 57.2473 16.384 54.1586 12.563 45.835C9.78804 39.79 4.65151 32.3701 5.70544 26.2973C8.13511 12.2974 21.6787 3.43779 35.7051 5.70927Z" stroke="url(#paint8_linear)" stroke-width="0.2" stroke-miterlimit="10"/>
<path d="M36.2886 6.29795C49.8704 8.83089 59.6896 21.3927 57.8221 35.8551C57.1724 40.9547 55.025 45.5634 51.9403 49.405C46.4067 56.2963 37.1135 60.6716 28.5096 58.5992C20.9398 56.7759 16.7615 53.8509 13.1543 45.3125C10.5587 39.1685 5.10414 31.6373 6.289 25.7095C9.02409 12.0259 22.5709 3.73962 36.2886 6.29795Z" stroke="url(#paint9_linear)" stroke-width="0.2" stroke-miterlimit="10"/>
<path d="M36.8786 6.88611C50.1198 9.69624 59.5464 22.1657 57.4715 36.3941C56.7497 41.4108 54.5508 45.9248 51.4434 49.6811C45.8869 56.3979 36.5958 60.6306 28.2353 58.332C20.8552 56.303 17.1439 53.545 13.7522 44.7895C11.3344 38.5481 5.56355 30.9036 6.87901 25.1212C9.92026 11.7527 23.4672 4.03988 36.8786 6.88611Z" stroke="url(#paint10_linear)" stroke-width="0.2" stroke-miterlimit="10"/>
<path d="M37.4702 7.47396C50.3686 10.5597 59.4047 22.9384 57.1222 36.9329C56.3283 41.8664 54.0782 46.2859 50.9479 49.9568C45.3692 56.4992 36.0779 60.5878 27.9624 58.0646C20.7703 55.8284 17.5259 53.2408 14.3515 44.2663C12.1099 37.9289 6.0248 30.169 7.47046 24.5326C10.8188 11.4779 24.3628 4.33829 37.4702 7.47396Z" stroke="url(#paint11_linear)" stroke-width="0.2" stroke-miterlimit="10"/>
<path d="M38.0555 8.06284C50.6096 11.4222 59.2569 23.7121 56.7669 37.4726C55.9007 42.3231 53.5999 46.648 50.4463 50.2337C44.8459 56.6016 35.5523 60.5441 27.6834 57.7982C20.6776 55.3534 17.8997 52.9395 14.9446 43.744C12.8776 37.3121 6.4804 29.435 8.05578 23.945C11.7122 11.2031 25.2499 4.63619 38.0555 8.06284Z" stroke="url(#paint12_linear)" stroke-width="0.2" stroke-miterlimit="10"/>
<path d="M38.6469 8.65019C50.8548 12.2812 59.1151 24.4843 56.4176 38.0108C55.4793 42.7782 53.1281 47.0085 49.9508 50.5089C44.3295 56.7024 35.0314 60.4965 27.4105 57.5302C20.5895 54.8751 18.2775 52.6382 15.5439 43.2202C13.6498 36.6949 6.94269 28.6991 8.64721 23.3559C12.6128 10.9256 26.1409 4.93061 38.6469 8.65019Z" stroke="url(#paint13_linear)" stroke-width="0.2" stroke-miterlimit="10"/>
<path d="M39.232 9.23859C51.092 13.1387 58.967 25.2576 56.0621 38.55C55.0516 43.2345 52.6501 47.37 49.449 50.7853C43.8072 56.8043 34.5029 60.4477 27.1314 57.2632C20.4936 54.3957 18.6468 52.3392 16.1368 42.6975C14.414 36.0796 7.39913 27.9639 9.2324 22.7679C13.5083 10.6482 27.0233 5.22381 39.232 9.23859Z" stroke="url(#paint14_linear)" stroke-width="0.2" stroke-miterlimit="10"/>
<path d="M39.8182 9.82711C51.3288 13.9936 58.82 26.0309 55.7076 39.0894C54.6249 43.6909 52.1738 47.7318 48.9484 51.0617C43.2869 56.9066 33.9744 60.3962 26.8532 56.9964C20.3976 53.9144 19.0149 52.0416 16.7309 42.1749C15.1777 35.4651 7.85743 27.2284 9.81863 22.1799C14.4065 10.3698 27.9048 5.51478 39.8182 9.82711Z" stroke="url(#paint15_linear)" stroke-width="0.2" stroke-miterlimit="10"/>
<path d="M40.4105 10.4155C51.5699 14.8453 58.679 26.804 55.3591 39.6286C54.2043 44.1469 51.7036 48.0934 48.4535 51.3379C42.7731 57.0089 33.4511 60.3415 26.581 56.7294C20.3064 53.4304 19.3866 51.7447 17.3309 41.6521C15.9456 34.8513 8.32237 26.4924 10.4108 21.5918C15.3122 10.0904 28.7903 5.80274 40.4105 10.4155Z" stroke="url(#paint16_linear)" stroke-width="0.2" stroke-miterlimit="10"/>
<path d="M40.9961 11.0031C51.8034 15.693 58.5315 27.5766 55.0042 40.1671C53.7771 44.6025 51.2274 48.4543 47.9523 51.6135C42.2535 57.1106 32.9208 60.2831 26.3024 56.4618C20.2081 52.9431 19.7496 51.4477 17.9243 41.1287C16.7054 34.2372 8.78163 25.7554 10.9964 21.0031C16.2132 9.80969 29.6675 6.08702 40.9961 11.0031Z" stroke="url(#paint17_linear)" stroke-width="0.2" stroke-miterlimit="10"/>
<path d="M41.5826 11.5913C52.0367 16.5377 58.3848 28.3496 54.65 40.7062C53.3507 45.0585 50.7524 48.8159 47.4519 51.8896C41.7355 57.2132 32.3912 60.2219 26.0246 56.1946C20.1102 52.4534 20.1111 51.1518 18.5187 40.6057C17.4646 33.6239 9.24256 25.0187 11.583 20.4148C17.1169 9.52882 30.5441 6.36841 41.5826 11.5913Z" stroke="url(#paint18_linear)" stroke-width="0.2" stroke-miterlimit="10"/>
<path d="M42.1749 12.1797C52.2752 17.3787 58.2441 29.1228 54.3016 41.2453C52.9302 45.5146 50.2837 49.1778 46.9573 52.1659C41.224 57.3162 31.8677 60.1574 25.7526 55.9277C20.0181 51.9611 20.4762 50.8563 19.1189 40.0829C18.228 33.011 9.7102 24.2821 12.1753 19.8267C18.0284 9.2477 31.4253 6.64637 42.1749 12.1797Z" stroke="url(#paint19_linear)" stroke-width="0.2" stroke-miterlimit="10"/>
<path d="M42.7607 12.7684C52.5067 18.216 58.0966 29.8963 53.9467 41.7848C52.5031 45.9712 49.8087 49.5401 46.456 52.4425C40.7068 57.4198 31.3382 60.0899 25.474 55.661C19.9197 51.4662 20.8323 50.5613 19.7124 39.5605C18.9834 32.3986 10.1722 23.5459 12.761 19.2389C18.9355 8.96679 32.299 6.92075 42.7607 12.7684Z" stroke="url(#paint20_linear)" stroke-width="0.2" stroke-miterlimit="10"/>
<path d="M43.3472 13.3568C52.739 19.0488 57.9499 30.6696 53.5925 42.3241C52.0767 46.4273 49.3349 49.9023 45.9556 52.719C40.191 57.5236 30.8106 60.0188 25.1962 55.3941C19.8229 50.968 21.1871 50.266 20.3068 39.0377C19.7381 31.7858 10.636 22.8093 13.3475 18.6509C19.8456 8.68565 33.1732 7.19074 43.3472 13.3568Z" stroke="url(#paint21_linear)" stroke-width="0.2" stroke-miterlimit="10"/>
<path d="M43.9393 13.9449C52.9774 19.8769 57.7856 31.4333 53.244 42.8631C51.6478 46.8801 48.8671 50.2644 45.4609 52.9948C39.6816 57.6275 30.29 59.9442 24.924 55.1269C19.7328 50.4665 21.5455 49.9702 20.9067 38.5147C20.4973 31.1726 11.1062 22.0727 13.9397 18.0625C20.7636 8.40456 34.0531 7.45617 43.9393 13.9449Z" stroke="url(#paint22_linear)" stroke-width="0.2" stroke-miterlimit="10"/>
<path d="M44.5256 14.5329C53.2109 20.7006 57.6385 32.2053 52.8896 43.402C51.2212 47.3356 48.394 50.6267 44.9602 53.2708C39.167 57.7317 29.7654 59.8665 24.6459 54.8596C19.6386 49.9623 21.896 49.6741 21.5009 37.9916C21.2495 30.5591 11.5717 21.3363 14.526 17.474C21.6779 8.12394 34.9278 7.71704 44.5256 14.5329Z" stroke="url(#paint23_linear)" stroke-width="0.2" stroke-miterlimit="10"/>
<path d="M45.1177 15.121C53.4513 21.52 57.4971 32.9775 52.5409 43.9408C50.8002 47.7912 47.9269 50.9893 44.4653 53.5468C38.6588 57.8365 29.2485 59.7861 24.3736 54.5922C19.5521 49.4554 22.2502 49.3777 22.1007 37.4685C22.0061 29.9454 12.0439 20.6003 15.118 16.8856C22.6002 7.84427 35.8093 7.97358 45.1177 15.121Z" stroke="url(#paint24_linear)" stroke-width="0.2" stroke-miterlimit="10"/>
<path d="M45.7029 15.7091C53.687 22.3353 57.349 33.7497 52.1855 44.4798C50.3725 48.2469 47.4534 51.3523 43.9635 53.8228C38.1447 57.942 28.7274 59.7033 24.0945 54.325C19.4611 48.9463 22.5959 49.0808 22.6937 36.9455C22.755 29.3315 12.5102 19.8648 15.7032 16.2973C23.5179 7.56592 36.6859 8.22568 45.7029 15.7091Z" stroke="url(#paint25_linear)" stroke-width="0.2" stroke-miterlimit="10"/>
<path d="M46.2888 16.2981C53.9257 23.1474 57.2018 34.5229 51.8307 45.0197C49.9457 48.7035 46.9811 51.7165 43.4625 54.0998C37.6319 58.0491 28.2096 59.6195 23.8161 54.0588C19.3736 48.436 22.9407 48.7842 23.2875 36.4234C23.5037 28.718 12.9781 19.131 16.2891 15.7099C24.4385 7.28996 37.5655 8.47433 46.2888 16.2981Z" stroke="url(#paint26_linear)" stroke-width="0.2" stroke-miterlimit="10"/>
<path d="M46.8804 16.8858C54.1726 23.9544 57.0604 35.2948 51.4817 45.5582C49.5245 49.1588 46.5148 52.0799 42.9672 54.3754C37.1255 58.1555 27.7002 59.5327 23.5434 53.7912C19.2946 47.9227 23.2894 48.4858 23.8869 35.9C24.2571 28.1029 13.4523 18.3965 16.8808 15.1212C25.3666 7.01434 38.4537 8.71748 46.8804 16.8858Z" stroke="url(#paint27_linear)" stroke-width="0.2" stroke-miterlimit="10"/>
<path d="M47.4662 17.4742C54.4168 24.7587 56.9133 36.0674 51.1268 46.0974C49.0975 49.6148 46.043 52.4443 42.4661 54.6517C36.6139 58.2633 27.1879 59.4454 23.2648 53.5242C19.213 47.4086 23.6307 48.1872 24.4805 35.3773C25.0039 27.4879 13.9215 17.6634 17.4665 14.533C26.2905 6.74133 39.3398 8.9574 47.4662 17.4742Z" stroke="url(#paint28_linear)" stroke-width="0.2" stroke-miterlimit="10"/>
<path d="M48.0577 18.0621C54.6702 25.5595 56.7719 36.8395 50.7774 46.6361C48.6762 50.0702 45.5774 52.8086 41.9706 54.9275C36.1084 58.3713 26.6842 59.3568 22.9919 53.2568C19.1401 46.8931 23.9764 47.8874 25.0798 34.854C25.7555 26.872 14.3969 16.9308 18.058 13.9445C27.2217 6.47006 40.2356 9.19323 48.0577 18.0621Z" stroke="url(#paint29_linear)" stroke-width="0.2" stroke-miterlimit="10"/>
<path d="M48.6433 18.6507C54.9216 26.3585 56.6249 37.6124 50.4225 47.1756C48.2492 50.5264 45.1061 53.1742 41.4693 55.2041C35.5979 58.481 26.1776 59.2686 22.7133 52.99C19.0648 46.3779 24.3148 47.5876 25.6732 34.3315C26.5007 26.2564 14.867 16.1996 18.6436 13.3566C28.1483 6.20175 41.1302 9.42666 48.6433 18.6507Z" stroke="url(#paint30_linear)" stroke-width="0.2" stroke-miterlimit="10"/>
<path d="M49.2347 19.2383C55.1825 27.1545 56.4836 38.3844 50.0731 47.7141C47.8278 50.9818 44.641 53.5394 40.9737 55.4796C35.0934 58.5906 25.6796 59.1794 22.4403 52.7223C18.9983 45.8613 24.6578 47.2861 26.2724 33.808C27.251 25.6392 15.3431 15.4686 19.2351 12.7678C29.0815 5.93495 42.0355 9.65648 49.2347 19.2383Z" stroke="url(#paint31_linear)" stroke-width="0.2" stroke-miterlimit="10"/>
<path d="M49.8195 19.8276C55.4411 27.9507 56.336 39.1582 49.7173 48.2542C47.4001 51.4388 44.1696 53.9068 40.4717 55.7568C34.5829 58.7027 25.1776 59.0922 22.1608 52.4563C18.9285 45.3467 24.9931 46.9855 26.8651 33.2862C27.9942 25.0232 15.8129 14.7402 19.8199 12.1806C30.0089 5.67242 42.9394 9.88595 49.8195 19.8276Z" stroke="url(#paint32_linear)" stroke-width="0.2" stroke-miterlimit="10"/>
<path d="M50.412 20.4153C55.7114 28.7444 56.196 39.9303 49.3691 48.7927C46.98 51.8942 43.7061 54.2733 39.9772 56.0324C34.0804 58.8143 24.6859 59.004 21.8889 52.1886C18.8693 44.8307 25.3349 46.6824 27.4653 32.7627C28.7444 24.4051 16.2904 14.011 20.4123 11.5919C30.9442 5.41068 43.8565 10.1122 50.412 20.4153Z" stroke="url(#paint33_linear)" stroke-width="0.2" stroke-miterlimit="10"/>
<path d="M50.9968 21.0036C55.9783 29.5382 56.0485 40.7033 49.0132 49.332C46.5522 52.3502 43.2351 54.6409 39.4751 56.3086C33.5707 58.9273 24.1888 58.9174 21.6094 51.9216C18.8051 44.316 25.6682 46.3791 28.058 32.2399C29.4867 23.7871 16.7604 13.2834 20.9971 11.0037C31.8721 5.15215 44.7716 10.3382 50.9968 21.0036Z" stroke="url(#paint34_linear)" stroke-width="0.2" stroke-miterlimit="10"/>
<path d="M51.5826 21.5923C56.2503 30.3327 55.9022 41.4767 48.6584 49.8714C46.1255 52.8067 42.7654 55.0097 38.9739 56.5853C33.062 59.0419 23.6949 58.8323 21.3309 51.6549C18.7447 43.8028 26.0015 46.0752 28.6517 31.7174C30.2295 23.1689 17.2312 12.5571 21.583 10.4159C32.8008 4.89644 45.6932 10.5641 51.5826 21.5923Z" stroke="url(#paint35_linear)" stroke-width="0.2" stroke-miterlimit="10"/>
<path d="M52.1755 22.18C56.5332 31.1268 55.7629 42.2493 48.3105 50.41C45.706 53.2623 42.3027 55.3783 38.4799 56.8609C32.5607 59.1566 23.2099 58.7475 21.0594 51.3873C18.6935 43.2897 26.3411 45.7696 29.2523 31.1941C30.979 22.5493 17.709 11.8308 22.1758 9.82724C33.7361 4.64204 46.6274 10.7894 52.1755 22.18Z" stroke="url(#paint36_linear)" stroke-width="0.2" stroke-miterlimit="10"/>
<path d="M52.7653 22.7684C56.8168 31.9227 55.6205 43.0227 47.9596 50.9493C45.2833 53.7185 41.8371 55.7482 37.9827 57.1372C32.0563 59.2729 22.7235 58.6649 20.7848 51.1204C18.6413 42.7786 26.6768 45.4639 29.8499 30.6713C31.725 21.9298 18.1832 11.1059 22.7656 9.23917C34.6677 4.39062 47.5638 11.0161 52.7653 22.7684Z" stroke="url(#paint37_linear)" stroke-width="0.2" stroke-miterlimit="10"/>
<path d="M53.3515 23.3563C57.1004 32.7195 55.4899 43.8112 47.6052 51.488C44.8624 54.1797 41.3679 56.1184 37.482 57.413C31.5484 59.3898 22.235 58.5832 20.5067 50.853C18.5875 42.2683 27.0084 45.1569 30.444 30.1481C32.4673 21.3093 18.6536 10.3813 23.3518 8.65063C35.5951 4.14069 48.5017 11.2437 53.3515 23.3563Z" stroke="url(#paint38_linear)" stroke-width="0.2" stroke-miterlimit="10"/>
<path d="M53.9408 23.9443C57.3902 33.5182 55.3461 44.5841 47.2538 52.0268C44.4388 54.6356 40.902 56.4894 36.9845 57.689C31.0435 59.5079 21.7508 58.5032 20.2317 50.5856C18.5383 41.7596 27.3423 44.8492 31.0411 29.6249C33.2123 20.6884 19.1266 9.65742 23.9411 8.06217C36.5245 3.89277 49.4474 11.473 53.9408 23.9443Z" stroke="url(#paint39_linear)" stroke-width="0.2" stroke-miterlimit="10"/>
<path d="M54.5253 24.5331C57.6782 34.3196 55.1974 45.3576 46.8977 52.5665C44.0104 55.0922 40.431 56.8621 36.482 57.9656C30.5337 59.6278 21.263 58.4255 19.9519 50.3191C18.4857 41.2533 27.671 44.5415 31.6335 29.1026C33.9523 20.0678 19.5945 8.93487 24.5257 7.47444C37.448 3.64729 50.3927 11.7052 54.5253 24.5331Z" stroke="url(#paint40_linear)" stroke-width="0.2" stroke-miterlimit="10"/>
<path d="M55.1131 25.1213C57.9721 35.123 55.052 46.1307 46.5448 53.1055C43.5854 55.5481 39.9632 57.2349 35.9828 58.2418C30.0269 59.7483 20.7793 58.3488 19.6753 50.052C18.4374 40.7478 28.0023 44.2324 32.229 28.5796C34.6954 19.4462 20.065 8.21246 25.1135 6.88621C38.3736 3.40277 51.345 11.9391 55.1131 25.1213Z" stroke="url(#paint41_linear)" stroke-width="0.2" stroke-miterlimit="10"/>
<path d="M55.7013 25.7092C58.2687 35.9285 54.907 46.9035 46.1923 53.6442C43.1607 56.0038 39.4956 57.6083 35.4841 58.5176C29.5201 59.8695 20.2967 58.2734 19.3992 49.7845C18.3906 40.2436 28.3336 43.9224 32.8251 28.0564C35.4387 18.8238 20.5354 7.49012 25.7017 6.29764C39.2985 3.15929 52.3013 12.1755 55.7013 25.7092Z" stroke="url(#paint42_linear)" stroke-width="0.2" stroke-miterlimit="10"/>
<path d="M56.2902 26.2972C58.568 36.7365 54.7627 47.6763 45.8406 54.1831C42.7368 56.4596 39.0286 57.9824 34.9861 58.7935C29.0136 59.9917 19.8153 58.1996 19.1238 49.5172C18.3451 39.741 28.6653 43.6117 33.4218 27.5333C36.1826 18.2012 21.006 6.76826 26.2905 5.70922C40.2226 2.9171 53.2612 12.4147 56.2902 26.2972Z" stroke="url(#paint43_linear)" stroke-width="0.2" stroke-miterlimit="10"/>
<path d="M56.8805 26.8858C58.8703 37.5479 54.6198 48.4498 45.4901 54.7226C42.3141 56.9161 38.5626 58.358 34.4893 59.0701C28.508 60.1156 19.3358 58.1278 18.8498 49.2505C18.3016 39.2403 28.9979 43.301 34.0199 27.0108C36.9277 17.5787 21.4775 6.04745 26.8809 5.12145C41.1469 2.67645 54.2251 12.6575 56.8805 26.8858Z" stroke="url(#paint44_linear)" stroke-width="0.2" stroke-miterlimit="10"/>
<path d="M57.4647 27.4744C59.168 38.3618 54.4709 49.2231 45.1337 55.2619C41.8855 57.3725 38.0903 58.7342 33.9867 59.3465C27.9957 60.2405 18.8506 58.0574 18.5697 48.9838C18.2526 38.741 29.3242 42.9895 34.612 26.4882C37.6666 16.9557 21.9424 5.32678 27.4651 4.53349C42.0637 2.43659 55.1851 12.9031 57.4647 27.4744Z" stroke="url(#paint45_linear)" stroke-width="0.2" stroke-miterlimit="10"/>
<path d="M58.0548 28.0625C59.4726 39.1778 54.3277 49.996 44.783 55.8009C41.4627 57.8284 37.6234 59.1107 33.4898 59.6226C27.4886 60.3656 18.3713 57.9878 18.2953 48.7164C18.2095 38.2426 29.6558 42.6769 35.2098 25.9652C38.4114 16.3318 22.4124 4.6059 28.0551 3.94516C42.9851 2.19675 56.1527 13.1513 58.0548 28.0625Z" stroke="url(#paint46_linear)" stroke-width="0.2" stroke-miterlimit="10"/>
<path d="M58.645 28.6506C59.7784 39.9966 54.1848 50.769 44.4326 56.3399C41.04 58.2844 37.1563 59.488 32.9931 59.8986C26.981 60.4916 17.8924 57.9196 18.0213 48.4493C18.1669 37.7455 29.9876 42.3637 35.8079 25.4422C39.1562 15.7077 22.8823 3.88521 28.6453 3.35679C43.9054 1.9576 57.122 13.4025 58.645 28.6506Z" stroke="url(#paint47_linear)" stroke-width="0.2" stroke-miterlimit="10"/>
<path d="M59.2349 29.2389C60.0844 40.8179 54.0414 51.5421 44.0818 56.879C40.6171 58.7404 36.6882 59.8659 32.4961 60.1747C26.4722 60.6185 17.4132 57.8525 17.7467 48.1822C18.1239 37.2496 30.3187 42.05 36.4056 24.9192C39.9005 15.0832 23.3512 3.16481 29.2353 2.76861C44.824 1.7189 58.0917 13.6566 59.2349 29.2389Z" stroke="url(#paint48_linear)" stroke-width="0.2" stroke-miterlimit="10"/>
<path d="M59.8235 29.827C60.3897 41.6415 53.8969 52.3151 43.7298 57.418C40.1929 59.1964 36.2185 60.2443 31.9977 60.4508C25.9613 60.7461 16.9327 57.7867 17.4711 47.915C18.0798 36.7547 30.6484 41.7357 37.0021 24.3964C40.6436 14.4583 23.8185 2.44439 29.8239 2.18026C45.7404 1.48035 59.0611 13.9134 59.8235 29.827Z" stroke="url(#paint49_linear)" stroke-width="0.2" stroke-miterlimit="10"/>
<path d="M60.4111 30.4149C60.694 42.4671 53.7512 53.0878 43.3766 57.9567C39.7675 59.652 35.7471 60.6231 31.4983 60.7266C25.4485 60.874 16.451 57.7214 17.1943 47.6476C18.0344 36.2607 30.9526 41.4113 37.5974 23.873C41.3717 13.8275 24.2843 1.73325 30.4114 1.5917C46.6549 1.2668 60.0297 14.1726 60.4111 30.4149Z" stroke="url(#paint50_linear)" stroke-width="0.2" stroke-miterlimit="10"/>
<path d="M60.9954 31.0038C60.9954 47.5722 47.5641 61.0035 30.9957 61.0035C24.9314 61.0035 15.9661 57.6582 16.9143 47.3812C17.9857 35.7686 31.3019 41.1057 38.1896 23.3508C42.1243 13.208 24.7461 1.00415 30.9957 1.00415C47.5641 1.00415 60.9954 14.4355 60.9954 31.0038Z" stroke="url(#paint51_linear)" stroke-width="0.2" stroke-miterlimit="10"/>
<path d="M84.5762 42.5059C83.2181 42.5059 81.4818 42.2096 79.3672 41.6172V38.7734C81.6458 39.8307 83.5189 40.3594 84.9863 40.3594C86.1165 40.3594 87.0234 40.0632 87.707 39.4707C88.3997 38.8783 88.7461 38.099 88.7461 37.1328C88.7461 36.3398 88.5182 35.6654 88.0625 35.1094C87.6159 34.5534 86.7865 33.9336 85.5742 33.25L84.1797 32.4434C82.457 31.459 81.2402 30.5339 80.5293 29.668C79.8275 28.793 79.4766 27.7767 79.4766 26.6191C79.4766 25.0605 80.0417 23.7799 81.1719 22.7773C82.3021 21.7656 83.7422 21.2598 85.4922 21.2598C87.0508 21.2598 88.696 21.5195 90.4277 22.0391V24.6641C88.2949 23.8255 86.7044 23.4062 85.6562 23.4062C84.6628 23.4062 83.8424 23.6706 83.1953 24.1992C82.5482 24.7279 82.2246 25.3932 82.2246 26.1953C82.2246 26.8698 82.4616 27.4668 82.9355 27.9863C83.4095 28.5059 84.2754 29.1257 85.5332 29.8457L86.9824 30.666C88.7324 31.6595 89.9538 32.5983 90.6465 33.4824C91.3392 34.3665 91.6855 35.4284 91.6855 36.668C91.6855 38.4271 91.0339 39.8398 89.7305 40.9062C88.4362 41.9727 86.7181 42.5059 84.5762 42.5059ZM95.7871 42V27.1523H98.4805V42H95.7871ZM95.7871 24.459V21.7656H98.4805V24.459H95.7871ZM103.881 42V27.1523H106.574V29.9414C107.996 27.8633 109.737 26.8242 111.797 26.8242C113.082 26.8242 114.107 27.2344 114.873 28.0547C115.639 28.8659 116.021 29.9596 116.021 31.3359V42H113.328V32.2109C113.328 31.1081 113.164 30.3242 112.836 29.8594C112.517 29.3854 111.984 29.1484 111.236 29.1484C109.587 29.1484 108.033 30.2285 106.574 32.3887V42H103.881ZM121.326 46.9355L121.641 44.5977C123.199 45.3359 124.735 45.7051 126.248 45.7051C129.283 45.7051 130.801 44.0964 130.801 40.8789V38.541C129.807 40.6191 128.176 41.6582 125.906 41.6582C124.129 41.6582 122.716 41.0111 121.668 39.7168C120.62 38.4225 120.096 36.6771 120.096 34.4805C120.096 32.2201 120.693 30.3789 121.887 28.957C123.081 27.5352 124.626 26.8242 126.521 26.8242C128.18 26.8242 129.607 27.4987 130.801 28.8477V27.1523H133.508V37.9531C133.508 40.2773 133.385 41.9954 133.139 43.1074C132.902 44.2285 132.451 45.1445 131.785 45.8555C130.609 47.1042 128.782 47.7285 126.303 47.7285C124.571 47.7285 122.912 47.4642 121.326 46.9355ZM130.801 36.8594V30.6934C129.616 29.4629 128.326 28.8477 126.932 28.8477C125.692 28.8477 124.721 29.3444 124.02 30.3379C123.318 31.3314 122.967 32.694 122.967 34.4258C122.967 37.6797 124.111 39.3066 126.398 39.3066C127.957 39.3066 129.424 38.4909 130.801 36.8594ZM148.027 42V39.2109C146.596 41.2982 144.86 42.3418 142.818 42.3418C141.524 42.3418 140.494 41.9362 139.729 41.125C138.963 40.3047 138.58 39.2018 138.58 37.8164V27.1523H141.273V36.9414C141.273 38.0534 141.433 38.8464 141.752 39.3203C142.08 39.7852 142.622 40.0176 143.379 40.0176C145.02 40.0176 146.569 38.9375 148.027 36.7773V27.1523H150.721V42H148.027ZM156.135 42V20.4121H158.828V42H156.135ZM171.885 40.1133C170.271 41.599 168.717 42.3418 167.223 42.3418C165.992 42.3418 164.971 41.959 164.16 41.1934C163.349 40.4186 162.943 39.4434 162.943 38.2676C162.943 36.6452 163.622 35.401 164.98 34.5352C166.348 33.6602 168.303 33.2227 170.846 33.2227H171.488V31.4316C171.488 29.709 170.604 28.8477 168.836 28.8477C167.414 28.8477 165.878 29.2852 164.229 30.1602V27.9316C166.042 27.1934 167.742 26.8242 169.328 26.8242C170.987 26.8242 172.208 27.1979 172.992 27.9453C173.785 28.6927 174.182 29.8548 174.182 31.4316V38.1582C174.182 39.6986 174.656 40.4688 175.604 40.4688C175.722 40.4688 175.895 40.4505 176.123 40.4141L176.314 41.9043C175.704 42.196 175.029 42.3418 174.291 42.3418C173.033 42.3418 172.231 41.599 171.885 40.1133ZM171.488 38.6504V34.8086L170.586 34.7812C169.109 34.7812 167.915 35.0638 167.004 35.6289C166.092 36.1849 165.637 36.9186 165.637 37.8301C165.637 38.4772 165.865 39.0241 166.32 39.4707C166.776 39.9173 167.332 40.1406 167.988 40.1406C169.109 40.1406 170.276 39.6439 171.488 38.6504ZM179.705 42V27.1523H182.398V29.9414C183.465 27.8633 185.014 26.8242 187.047 26.8242C187.32 26.8242 187.607 26.847 187.908 26.8926V29.4082C187.443 29.2533 187.033 29.1758 186.678 29.1758C184.973 29.1758 183.547 30.1875 182.398 32.2109V42H179.705ZM191.162 42V27.1523H193.855V42H191.162ZM191.162 24.459V21.7656H193.855V24.459H191.162ZM203.713 42.3418C202.346 42.3418 201.279 41.9499 200.514 41.166C199.748 40.3822 199.365 39.293 199.365 37.8984V29.1758H197.506V27.1523H199.365V24.459L202.059 24.1992V27.1523H205.941V29.1758H202.059V37.4062C202.059 39.3477 202.897 40.3184 204.574 40.3184C204.93 40.3184 205.363 40.2591 205.873 40.1406V42C205.044 42.2279 204.324 42.3418 203.713 42.3418ZM210.59 47.4004L212.996 42L207.254 27.1523H210.166L214.418 38.3359L218.957 27.1523H221.5L213.393 47.4004H210.59ZM224.275 42V21.7656H231.002C233.007 21.7656 234.625 21.9889 235.855 22.4355C237.095 22.8822 238.166 23.6387 239.068 24.7051C240.499 26.4004 241.215 28.6335 241.215 31.4043C241.215 34.7676 240.326 37.3743 238.549 39.2246C236.771 41.0749 234.27 42 231.043 42H224.275ZM227.146 39.8535H230.824C233.449 39.8535 235.309 39.1471 236.402 37.7344C237.578 36.2305 238.166 34.2116 238.166 31.6777C238.166 29.2988 237.587 27.4303 236.43 26.0723C235.728 25.2428 234.889 24.6777 233.914 24.377C232.939 24.0671 231.471 23.9121 229.512 23.9121H227.146V39.8535ZM255.502 34.2617L252.057 25.5391L248.598 34.2617H255.502ZM258.537 42L256.336 36.3945H247.764L245.535 42H242.869L250.895 21.7656H253.738L261.641 42H258.537ZM272.729 42.5059C269.921 42.5059 267.661 41.5352 265.947 39.5938C264.243 37.6432 263.391 35.0684 263.391 31.8691C263.391 28.6517 264.247 26.0814 265.961 24.1582C267.684 22.2259 269.98 21.2598 272.852 21.2598C275.714 21.2598 278.006 22.2214 279.729 24.1445C281.451 26.0677 282.312 28.6335 282.312 31.8418C282.312 35.1139 281.451 37.7116 279.729 39.6348C278.006 41.5488 275.673 42.5059 272.729 42.5059ZM272.77 40.3594C274.839 40.3594 276.438 39.6165 277.568 38.1309C278.699 36.6361 279.264 34.5306 279.264 31.8145C279.264 29.1803 278.694 27.1204 277.555 25.6348C276.424 24.1491 274.857 23.4062 272.852 23.4062C270.837 23.4062 269.265 24.1536 268.135 25.6484C267.005 27.1341 266.439 29.2031 266.439 31.8555C266.439 34.4987 267 36.5768 268.121 38.0898C269.242 39.6029 270.792 40.3594 272.77 40.3594Z" fill="white"/>
<path d="M84.5762 42.5059C83.2181 42.5059 81.4818 42.2096 79.3672 41.6172V38.7734C81.6458 39.8307 83.5189 40.3594 84.9863 40.3594C86.1165 40.3594 87.0234 40.0632 87.707 39.4707C88.3997 38.8783 88.7461 38.099 88.7461 37.1328C88.7461 36.3398 88.5182 35.6654 88.0625 35.1094C87.6159 34.5534 86.7865 33.9336 85.5742 33.25L84.1797 32.4434C82.457 31.459 81.2402 30.5339 80.5293 29.668C79.8275 28.793 79.4766 27.7767 79.4766 26.6191C79.4766 25.0605 80.0417 23.7799 81.1719 22.7773C82.3021 21.7656 83.7422 21.2598 85.4922 21.2598C87.0508 21.2598 88.696 21.5195 90.4277 22.0391V24.6641C88.2949 23.8255 86.7044 23.4062 85.6562 23.4062C84.6628 23.4062 83.8424 23.6706 83.1953 24.1992C82.5482 24.7279 82.2246 25.3932 82.2246 26.1953C82.2246 26.8698 82.4616 27.4668 82.9355 27.9863C83.4095 28.5059 84.2754 29.1257 85.5332 29.8457L86.9824 30.666C88.7324 31.6595 89.9538 32.5983 90.6465 33.4824C91.3392 34.3665 91.6855 35.4284 91.6855 36.668C91.6855 38.4271 91.0339 39.8398 89.7305 40.9062C88.4362 41.9727 86.7181 42.5059 84.5762 42.5059ZM95.7871 42V27.1523H98.4805V42H95.7871ZM95.7871 24.459V21.7656H98.4805V24.459H95.7871ZM103.881 42V27.1523H106.574V29.9414C107.996 27.8633 109.737 26.8242 111.797 26.8242C113.082 26.8242 114.107 27.2344 114.873 28.0547C115.639 28.8659 116.021 29.9596 116.021 31.3359V42H113.328V32.2109C113.328 31.1081 113.164 30.3242 112.836 29.8594C112.517 29.3854 111.984 29.1484 111.236 29.1484C109.587 29.1484 108.033 30.2285 106.574 32.3887V42H103.881ZM121.326 46.9355L121.641 44.5977C123.199 45.3359 124.735 45.7051 126.248 45.7051C129.283 45.7051 130.801 44.0964 130.801 40.8789V38.541C129.807 40.6191 128.176 41.6582 125.906 41.6582C124.129 41.6582 122.716 41.0111 121.668 39.7168C120.62 38.4225 120.096 36.6771 120.096 34.4805C120.096 32.2201 120.693 30.3789 121.887 28.957C123.081 27.5352 124.626 26.8242 126.521 26.8242C128.18 26.8242 129.607 27.4987 130.801 28.8477V27.1523H133.508V37.9531C133.508 40.2773 133.385 41.9954 133.139 43.1074C132.902 44.2285 132.451 45.1445 131.785 45.8555C130.609 47.1042 128.782 47.7285 126.303 47.7285C124.571 47.7285 122.912 47.4642 121.326 46.9355ZM130.801 36.8594V30.6934C129.616 29.4629 128.326 28.8477 126.932 28.8477C125.692 28.8477 124.721 29.3444 124.02 30.3379C123.318 31.3314 122.967 32.694 122.967 34.4258C122.967 37.6797 124.111 39.3066 126.398 39.3066C127.957 39.3066 129.424 38.4909 130.801 36.8594ZM148.027 42V39.2109C146.596 41.2982 144.86 42.3418 142.818 42.3418C141.524 42.3418 140.494 41.9362 139.729 41.125C138.963 40.3047 138.58 39.2018 138.58 37.8164V27.1523H141.273V36.9414C141.273 38.0534 141.433 38.8464 141.752 39.3203C142.08 39.7852 142.622 40.0176 143.379 40.0176C145.02 40.0176 146.569 38.9375 148.027 36.7773V27.1523H150.721V42H148.027ZM156.135 42V20.4121H158.828V42H156.135ZM171.885 40.1133C170.271 41.599 168.717 42.3418 167.223 42.3418C165.992 42.3418 164.971 41.959 164.16 41.1934C163.349 40.4186 162.943 39.4434 162.943 38.2676C162.943 36.6452 163.622 35.401 164.98 34.5352C166.348 33.6602 168.303 33.2227 170.846 33.2227H171.488V31.4316C171.488 29.709 170.604 28.8477 168.836 28.8477C167.414 28.8477 165.878 29.2852 164.229 30.1602V27.9316C166.042 27.1934 167.742 26.8242 169.328 26.8242C170.987 26.8242 172.208 27.1979 172.992 27.9453C173.785 28.6927 174.182 29.8548 174.182 31.4316V38.1582C174.182 39.6986 174.656 40.4688 175.604 40.4688C175.722 40.4688 175.895 40.4505 176.123 40.4141L176.314 41.9043C175.704 42.196 175.029 42.3418 174.291 42.3418C173.033 42.3418 172.231 41.599 171.885 40.1133ZM171.488 38.6504V34.8086L170.586 34.7812C169.109 34.7812 167.915 35.0638 167.004 35.6289C166.092 36.1849 165.637 36.9186 165.637 37.8301C165.637 38.4772 165.865 39.0241 166.32 39.4707C166.776 39.9173 167.332 40.1406 167.988 40.1406C169.109 40.1406 170.276 39.6439 171.488 38.6504ZM179.705 42V27.1523H182.398V29.9414C183.465 27.8633 185.014 26.8242 187.047 26.8242C187.32 26.8242 187.607 26.847 187.908 26.8926V29.4082C187.443 29.2533 187.033 29.1758 186.678 29.1758C184.973 29.1758 183.547 30.1875 182.398 32.2109V42H179.705ZM191.162 42V27.1523H193.855V42H191.162ZM191.162 24.459V21.7656H193.855V24.459H191.162ZM203.713 42.3418C202.346 42.3418 201.279 41.9499 200.514 41.166C199.748 40.3822 199.365 39.293 199.365 37.8984V29.1758H197.506V27.1523H199.365V24.459L202.059 24.1992V27.1523H205.941V29.1758H202.059V37.4062C202.059 39.3477 202.897 40.3184 204.574 40.3184C204.93 40.3184 205.363 40.2591 205.873 40.1406V42C205.044 42.2279 204.324 42.3418 203.713 42.3418ZM210.59 47.4004L212.996 42L207.254 27.1523H210.166L214.418 38.3359L218.957 27.1523H221.5L213.393 47.4004H210.59ZM224.275 42V21.7656H231.002C233.007 21.7656 234.625 21.9889 235.855 22.4355C237.095 22.8822 238.166 23.6387 239.068 24.7051C240.499 26.4004 241.215 28.6335 241.215 31.4043C241.215 34.7676 240.326 37.3743 238.549 39.2246C236.771 41.0749 234.27 42 231.043 42H224.275ZM227.146 39.8535H230.824C233.449 39.8535 235.309 39.1471 236.402 37.7344C237.578 36.2305 238.166 34.2116 238.166 31.6777C238.166 29.2988 237.587 27.4303 236.43 26.0723C235.728 25.2428 234.889 24.6777 233.914 24.377C232.939 24.0671 231.471 23.9121 229.512 23.9121H227.146V39.8535ZM255.502 34.2617L252.057 25.5391L248.598 34.2617H255.502ZM258.537 42L256.336 36.3945H247.764L245.535 42H242.869L250.895 21.7656H253.738L261.641 42H258.537ZM272.729 42.5059C269.921 42.5059 267.661 41.5352 265.947 39.5938C264.243 37.6432 263.391 35.0684 263.391 31.8691C263.391 28.6517 264.247 26.0814 265.961 24.1582C267.684 22.2259 269.98 21.2598 272.852 21.2598C275.714 21.2598 278.006 22.2214 279.729 24.1445C281.451 26.0677 282.312 28.6335 282.312 31.8418C282.312 35.1139 281.451 37.7116 279.729 39.6348C278.006 41.5488 275.673 42.5059 272.729 42.5059ZM272.77 40.3594C274.839 40.3594 276.438 39.6165 277.568 38.1309C278.699 36.6361 279.264 34.5306 279.264 31.8145C279.264 29.1803 278.694 27.1204 277.555 25.6348C276.424 24.1491 274.857 23.4062 272.852 23.4062C270.837 23.4062 269.265 24.1536 268.135 25.6484C267.005 27.1341 266.439 29.2031 266.439 31.8555C266.439 34.4987 267 36.5768 268.121 38.0898C269.242 39.6029 270.792 40.3594 272.77 40.3594Z" fill="url(#paint52_linear)"/>
<defs>
<linearGradient id="paint0_linear" x1="0.959527" y1="31.0032" x2="61.0399" y2="31.0032" gradientUnits="userSpaceOnUse">
<stop stop-color="#201EDF"/>
<stop offset="0.55" stop-color="#27E4CA"/>
<stop offset="0.87" stop-color="#E5C500"/>
<stop offset="0.99" stop-color="#E25900"/>
<stop offset="1" stop-color="#E25900"/>
</linearGradient>
<linearGradient id="paint1_linear" x1="1.54364" y1="31.1655" x2="60.6895" y2="31.1655" gradientUnits="userSpaceOnUse">
<stop stop-color="#201EDF"/>
<stop offset="0.55" stop-color="#27E4CA"/>
<stop offset="0.87" stop-color="#E5C500"/>
<stop offset="0.99" stop-color="#E25900"/>
<stop offset="1" stop-color="#E25900"/>
</linearGradient>
<linearGradient id="paint2_linear" x1="2.11642" y1="31.329" x2="60.3406" y2="31.329" gradientUnits="userSpaceOnUse">
<stop stop-color="#201EDF"/>
<stop offset="0.55" stop-color="#27E4CA"/>
<stop offset="0.87" stop-color="#E5C500"/>
<stop offset="0.99" stop-color="#E25900"/>
<stop offset="1" stop-color="#E25900"/>
</linearGradient>
<linearGradient id="paint3_linear" x1="2.6949" y1="31.4941" x2="60.0065" y2="31.4941" gradientUnits="userSpaceOnUse">
<stop stop-color="#201EDF"/>
<stop offset="0.55" stop-color="#27E4CA"/>
<stop offset="0.87" stop-color="#E5C500"/>
<stop offset="0.99" stop-color="#E25900"/>
<stop offset="1" stop-color="#E25900"/>
</linearGradient>
<linearGradient id="paint4_linear" x1="3.26008" y1="31.6603" x2="59.6678" y2="31.6603" gradientUnits="userSpaceOnUse">
<stop stop-color="#201EDF"/>
<stop offset="0.55" stop-color="#27E4CA"/>
<stop offset="0.87" stop-color="#E5C500"/>
<stop offset="0.99" stop-color="#E25900"/>
<stop offset="1" stop-color="#E25900"/>
</linearGradient>
<linearGradient id="paint5_linear" x1="3.83109" y1="31.8262" x2="59.3431" y2="31.8262" gradientUnits="userSpaceOnUse">
<stop stop-color="#201EDF"/>
<stop offset="0.55" stop-color="#27E4CA"/>
<stop offset="0.87" stop-color="#E5C500"/>
<stop offset="0.99" stop-color="#E25900"/>
<stop offset="1" stop-color="#E25900"/>
</linearGradient>
<linearGradient id="paint6_linear" x1="4.39559" y1="31.9919" x2="59.0198" y2="31.9919" gradientUnits="userSpaceOnUse">
<stop stop-color="#201EDF"/>
<stop offset="0.55" stop-color="#27E4CA"/>
<stop offset="0.87" stop-color="#E5C500"/>
<stop offset="0.99" stop-color="#E25900"/>
<stop offset="1" stop-color="#E25900"/>
</linearGradient>
<linearGradient id="paint7_linear" x1="4.96008" y1="32.1554" x2="58.7043" y2="32.1554" gradientUnits="userSpaceOnUse">
<stop stop-color="#201EDF"/>
<stop offset="0.55" stop-color="#27E4CA"/>
<stop offset="0.87" stop-color="#E5C500"/>
<stop offset="0.99" stop-color="#E25900"/>
<stop offset="1" stop-color="#E25900"/>
</linearGradient>
<linearGradient id="paint8_linear" x1="5.52454" y1="32.3173" x2="58.3968" y2="32.3173" gradientUnits="userSpaceOnUse">
<stop stop-color="#201EDF"/>
<stop offset="0.55" stop-color="#27E4CA"/>
<stop offset="0.87" stop-color="#E5C500"/>
<stop offset="0.99" stop-color="#E25900"/>
<stop offset="1" stop-color="#E25900"/>
</linearGradient>
<linearGradient id="paint9_linear" x1="6.08231" y1="32.4762" x2="58.0907" y2="32.4762" gradientUnits="userSpaceOnUse">
<stop stop-color="#201EDF"/>
<stop offset="0.55" stop-color="#27E4CA"/>
<stop offset="0.87" stop-color="#E5C500"/>
<stop offset="0.99" stop-color="#E25900"/>
<stop offset="1" stop-color="#E25900"/>
</linearGradient>
<linearGradient id="paint10_linear" x1="6.64595" y1="32.6304" x2="57.7986" y2="32.6304" gradientUnits="userSpaceOnUse">
<stop stop-color="#201EDF"/>
<stop offset="0.55" stop-color="#27E4CA"/>
<stop offset="0.87" stop-color="#E5C500"/>
<stop offset="0.99" stop-color="#E25900"/>
<stop offset="1" stop-color="#E25900"/>
</linearGradient>
<linearGradient id="paint11_linear" x1="7.21039" y1="32.7793" x2="57.516" y2="32.7793" gradientUnits="userSpaceOnUse">
<stop stop-color="#201EDF"/>
<stop offset="0.55" stop-color="#27E4CA"/>
<stop offset="0.87" stop-color="#E5C500"/>
<stop offset="0.99" stop-color="#E25900"/>
<stop offset="1" stop-color="#E25900"/>
</linearGradient>
<linearGradient id="paint12_linear" x1="7.76829" y1="32.923" x2="57.2357" y2="32.923" gradientUnits="userSpaceOnUse">
<stop stop-color="#201EDF"/>
<stop offset="0.55" stop-color="#27E4CA"/>
<stop offset="0.87" stop-color="#E5C500"/>
<stop offset="0.99" stop-color="#E25900"/>
<stop offset="1" stop-color="#E25900"/>
</linearGradient>
<linearGradient id="paint13_linear" x1="8.33189" y1="33.058" x2="56.9701" y2="33.058" gradientUnits="userSpaceOnUse">
<stop stop-color="#201EDF"/>
<stop offset="0.55" stop-color="#27E4CA"/>
<stop offset="0.87" stop-color="#E5C500"/>
<stop offset="0.99" stop-color="#E25900"/>
<stop offset="1" stop-color="#E25900"/>
</linearGradient>
<linearGradient id="paint14_linear" x1="8.88885" y1="33.1856" x2="56.7075" y2="33.1856" gradientUnits="userSpaceOnUse">
<stop stop-color="#201EDF"/>
<stop offset="0.55" stop-color="#27E4CA"/>
<stop offset="0.87" stop-color="#E5C500"/>
<stop offset="0.99" stop-color="#E25900"/>
<stop offset="1" stop-color="#E25900"/>
</linearGradient>
<linearGradient id="paint15_linear" x1="9.44668" y1="33.3042" x2="56.4557" y2="33.3042" gradientUnits="userSpaceOnUse">
<stop stop-color="#201EDF"/>
<stop offset="0.55" stop-color="#27E4CA"/>
<stop offset="0.87" stop-color="#E5C500"/>
<stop offset="0.99" stop-color="#E25900"/>
<stop offset="1" stop-color="#E25900"/>
</linearGradient>
<linearGradient id="paint16_linear" x1="10.0103" y1="33.4122" x2="56.2201" y2="33.4122" gradientUnits="userSpaceOnUse">
<stop stop-color="#201EDF"/>
<stop offset="0.55" stop-color="#27E4CA"/>
<stop offset="0.87" stop-color="#E5C500"/>
<stop offset="0.99" stop-color="#E25900"/>
<stop offset="1" stop-color="#E25900"/>
</linearGradient>
<linearGradient id="paint17_linear" x1="10.5674" y1="33.5081" x2="55.9887" y2="33.5081" gradientUnits="userSpaceOnUse">
<stop stop-color="#201EDF"/>
<stop offset="0.55" stop-color="#27E4CA"/>
<stop offset="0.87" stop-color="#E5C500"/>
<stop offset="0.99" stop-color="#E25900"/>
<stop offset="1" stop-color="#E25900"/>
</linearGradient>
<linearGradient id="paint18_linear" x1="11.1252" y1="33.5924" x2="55.7696" y2="33.5924" gradientUnits="userSpaceOnUse">
<stop stop-color="#201EDF"/>
<stop offset="0.55" stop-color="#27E4CA"/>
<stop offset="0.87" stop-color="#E5C500"/>
<stop offset="0.99" stop-color="#E25900"/>
<stop offset="1" stop-color="#E25900"/>
</linearGradient>
<linearGradient id="paint19_linear" x1="11.6888" y1="33.6639" x2="55.5683" y2="33.6639" gradientUnits="userSpaceOnUse">
<stop stop-color="#201EDF"/>
<stop offset="0.55" stop-color="#27E4CA"/>
<stop offset="0.87" stop-color="#E5C500"/>
<stop offset="0.99" stop-color="#E25900"/>
<stop offset="1" stop-color="#E25900"/>
</linearGradient>
<linearGradient id="paint20_linear" x1="12.2459" y1="33.7222" x2="55.3731" y2="33.7222" gradientUnits="userSpaceOnUse">
<stop stop-color="#201EDF"/>
<stop offset="0.55" stop-color="#27E4CA"/>
<stop offset="0.87" stop-color="#E5C500"/>
<stop offset="0.99" stop-color="#E25900"/>
<stop offset="1" stop-color="#E25900"/>
</linearGradient>
<linearGradient id="paint21_linear" x1="12.8038" y1="33.7665" x2="55.192" y2="33.7665" gradientUnits="userSpaceOnUse">
<stop stop-color="#201EDF"/>
<stop offset="0.55" stop-color="#27E4CA"/>
<stop offset="0.87" stop-color="#E5C500"/>
<stop offset="0.99" stop-color="#E25900"/>
<stop offset="1" stop-color="#E25900"/>
</linearGradient>
<linearGradient id="paint22_linear" x1="13.3673" y1="33.7964" x2="55.0209" y2="33.7964" gradientUnits="userSpaceOnUse">
<stop stop-color="#201EDF"/>
<stop offset="0.55" stop-color="#27E4CA"/>
<stop offset="0.87" stop-color="#E5C500"/>
<stop offset="0.99" stop-color="#E25900"/>
<stop offset="1" stop-color="#E25900"/>
</linearGradient>
<linearGradient id="paint23_linear" x1="13.9252" y1="33.8124" x2="54.8689" y2="33.8124" gradientUnits="userSpaceOnUse">
<stop stop-color="#201EDF"/>
<stop offset="0.55" stop-color="#27E4CA"/>
<stop offset="0.87" stop-color="#E5C500"/>
<stop offset="0.99" stop-color="#E25900"/>
<stop offset="1" stop-color="#E25900"/>
</linearGradient>
<linearGradient id="paint24_linear" x1="14.4888" y1="33.8147" x2="54.7388" y2="33.8147" gradientUnits="userSpaceOnUse">
<stop stop-color="#201EDF"/>
<stop offset="0.55" stop-color="#27E4CA"/>
<stop offset="0.87" stop-color="#E5C500"/>
<stop offset="0.99" stop-color="#E25900"/>
<stop offset="1" stop-color="#E25900"/>
</linearGradient>
<linearGradient id="paint25_linear" x1="15.0458" y1="33.8038" x2="54.6195" y2="33.8038" gradientUnits="userSpaceOnUse">
<stop stop-color="#201EDF"/>
<stop offset="0.55" stop-color="#27E4CA"/>
<stop offset="0.87" stop-color="#E5C500"/>
<stop offset="0.99" stop-color="#E25900"/>
<stop offset="1" stop-color="#E25900"/>
</linearGradient>
<linearGradient id="paint26_linear" x1="15.6037" y1="33.7814" x2="54.5195" y2="33.7814" gradientUnits="userSpaceOnUse">
<stop stop-color="#201EDF"/>
<stop offset="0.55" stop-color="#27E4CA"/>
<stop offset="0.87" stop-color="#E5C500"/>
<stop offset="0.99" stop-color="#E25900"/>
<stop offset="1" stop-color="#E25900"/>
</linearGradient>
<linearGradient id="paint27_linear" x1="16.1672" y1="33.7458" x2="54.445" y2="33.7458" gradientUnits="userSpaceOnUse">
<stop stop-color="#201EDF"/>
<stop offset="0.55" stop-color="#27E4CA"/>
<stop offset="0.87" stop-color="#E5C500"/>
<stop offset="0.99" stop-color="#E25900"/>
<stop offset="1" stop-color="#E25900"/>
</linearGradient>
<linearGradient id="paint28_linear" x1="16.7251" y1="33.6998" x2="54.3861" y2="33.6998" gradientUnits="userSpaceOnUse">
<stop stop-color="#201EDF"/>
<stop offset="0.55" stop-color="#27E4CA"/>
<stop offset="0.87" stop-color="#E5C500"/>
<stop offset="0.99" stop-color="#E25900"/>
<stop offset="1" stop-color="#E25900"/>
</linearGradient>
<linearGradient id="paint29_linear" x1="17.2887" y1="33.6432" x2="54.3556" y2="33.6432" gradientUnits="userSpaceOnUse">
<stop stop-color="#201EDF"/>
<stop offset="0.55" stop-color="#27E4CA"/>
<stop offset="0.87" stop-color="#E5C500"/>
<stop offset="0.99" stop-color="#E25900"/>
<stop offset="1" stop-color="#E25900"/>
</linearGradient>
<linearGradient id="paint30_linear" x1="17.8465" y1="33.5779" x2="54.3436" y2="33.5779" gradientUnits="userSpaceOnUse">
<stop stop-color="#201EDF"/>
<stop offset="0.55" stop-color="#27E4CA"/>
<stop offset="0.87" stop-color="#E5C500"/>
<stop offset="0.99" stop-color="#E25900"/>
<stop offset="1" stop-color="#E25900"/>
</linearGradient>
<linearGradient id="paint31_linear" x1="18.4101" y1="33.5034" x2="54.3633" y2="33.5034" gradientUnits="userSpaceOnUse">
<stop stop-color="#201EDF"/>
<stop offset="0.55" stop-color="#27E4CA"/>
<stop offset="0.87" stop-color="#E5C500"/>
<stop offset="0.99" stop-color="#E25900"/>
<stop offset="1" stop-color="#E25900"/>
</linearGradient>
<linearGradient id="paint32_linear" x1="18.9671" y1="33.4228" x2="54.4038" y2="33.4228" gradientUnits="userSpaceOnUse">
<stop stop-color="#201EDF"/>
<stop offset="0.55" stop-color="#27E4CA"/>
<stop offset="0.87" stop-color="#E5C500"/>
<stop offset="0.99" stop-color="#E25900"/>
<stop offset="1" stop-color="#E25900"/>
</linearGradient>
<linearGradient id="paint33_linear" x1="19.5317" y1="33.3336" x2="54.4809" y2="33.3336" gradientUnits="userSpaceOnUse">
<stop stop-color="#201EDF"/>
<stop offset="0.55" stop-color="#27E4CA"/>
<stop offset="0.87" stop-color="#E5C500"/>
<stop offset="0.99" stop-color="#E25900"/>
<stop offset="1" stop-color="#E25900"/>
</linearGradient>
<linearGradient id="paint34_linear" x1="20.0886" y1="33.2389" x2="54.5806" y2="33.2389" gradientUnits="userSpaceOnUse">
<stop stop-color="#201EDF"/>
<stop offset="0.55" stop-color="#27E4CA"/>
<stop offset="0.87" stop-color="#E5C500"/>
<stop offset="0.99" stop-color="#E25900"/>
<stop offset="1" stop-color="#E25900"/>
</linearGradient>
<linearGradient id="paint35_linear" x1="20.6465" y1="33.1387" x2="54.7128" y2="33.1387" gradientUnits="userSpaceOnUse">
<stop stop-color="#201EDF"/>
<stop offset="0.55" stop-color="#27E4CA"/>
<stop offset="0.87" stop-color="#E5C500"/>
<stop offset="0.99" stop-color="#E25900"/>
<stop offset="1" stop-color="#E25900"/>
</linearGradient>
<linearGradient id="paint36_linear" x1="20.5714" y1="33.0325" x2="54.8844" y2="33.0325" gradientUnits="userSpaceOnUse">
<stop stop-color="#201EDF"/>
<stop offset="0.55" stop-color="#27E4CA"/>
<stop offset="0.87" stop-color="#E5C500"/>
<stop offset="0.99" stop-color="#E25900"/>
<stop offset="1" stop-color="#E25900"/>
</linearGradient>
<linearGradient id="paint37_linear" x1="20.3857" y1="32.9222" x2="55.0861" y2="32.9222" gradientUnits="userSpaceOnUse">
<stop stop-color="#201EDF"/>
<stop offset="0.55" stop-color="#27E4CA"/>
<stop offset="0.87" stop-color="#E5C500"/>
<stop offset="0.99" stop-color="#E25900"/>
<stop offset="1" stop-color="#E25900"/>
</linearGradient>
<linearGradient id="paint38_linear" x1="20.1852" y1="32.807" x2="55.3213" y2="32.807" gradientUnits="userSpaceOnUse">
<stop stop-color="#201EDF"/>
<stop offset="0.55" stop-color="#27E4CA"/>
<stop offset="0.87" stop-color="#E5C500"/>
<stop offset="0.99" stop-color="#E25900"/>
<stop offset="1" stop-color="#E25900"/>
</linearGradient>
<linearGradient id="paint39_linear" x1="19.9773" y1="32.6875" x2="55.589" y2="32.6875" gradientUnits="userSpaceOnUse">
<stop stop-color="#201EDF"/>
<stop offset="0.55" stop-color="#27E4CA"/>
<stop offset="0.87" stop-color="#E5C500"/>
<stop offset="0.99" stop-color="#E25900"/>
<stop offset="1" stop-color="#E25900"/>
</linearGradient>
<linearGradient id="paint40_linear" x1="19.7544" y1="32.5651" x2="55.8852" y2="32.5651" gradientUnits="userSpaceOnUse">
<stop stop-color="#201EDF"/>
<stop offset="0.55" stop-color="#27E4CA"/>
<stop offset="0.87" stop-color="#E5C500"/>
<stop offset="0.99" stop-color="#E25900"/>
<stop offset="1" stop-color="#E25900"/>
</linearGradient>
<linearGradient id="paint41_linear" x1="19.5252" y1="32.4384" x2="56.2174" y2="32.4384" gradientUnits="userSpaceOnUse">
<stop stop-color="#201EDF"/>
<stop offset="0.55" stop-color="#27E4CA"/>
<stop offset="0.87" stop-color="#E5C500"/>
<stop offset="0.99" stop-color="#E25900"/>
<stop offset="1" stop-color="#E25900"/>
</linearGradient>
<linearGradient id="paint42_linear" x1="19.2873" y1="32.3079" x2="56.5816" y2="32.3079" gradientUnits="userSpaceOnUse">
<stop stop-color="#201EDF"/>
<stop offset="0.55" stop-color="#27E4CA"/>
<stop offset="0.87" stop-color="#E5C500"/>
<stop offset="0.99" stop-color="#E25900"/>
<stop offset="1" stop-color="#E25900"/>
</linearGradient>
<linearGradient id="paint43_linear" x1="19.0415" y1="32.1742" x2="56.9769" y2="32.1742" gradientUnits="userSpaceOnUse">
<stop stop-color="#201EDF"/>
<stop offset="0.55" stop-color="#27E4CA"/>
<stop offset="0.87" stop-color="#E5C500"/>
<stop offset="0.99" stop-color="#E25900"/>
<stop offset="1" stop-color="#E25900"/>
</linearGradient>
<linearGradient id="paint44_linear" x1="18.7888" y1="32.0378" x2="57.4025" y2="32.0378" gradientUnits="userSpaceOnUse">
<stop stop-color="#201EDF"/>
<stop offset="0.55" stop-color="#27E4CA"/>
<stop offset="0.87" stop-color="#E5C500"/>
<stop offset="0.99" stop-color="#E25900"/>
<stop offset="1" stop-color="#E25900"/>
</linearGradient>
<linearGradient id="paint45_linear" x1="18.5224" y1="31.8984" x2="57.8496" y2="31.8984" gradientUnits="userSpaceOnUse">
<stop stop-color="#201EDF"/>
<stop offset="0.55" stop-color="#27E4CA"/>
<stop offset="0.87" stop-color="#E5C500"/>
<stop offset="0.99" stop-color="#E25900"/>
<stop offset="1" stop-color="#E25900"/>
</linearGradient>
<linearGradient id="paint46_linear" x1="18.2542" y1="31.7555" x2="58.3278" y2="31.7555" gradientUnits="userSpaceOnUse">
<stop stop-color="#201EDF"/>
<stop offset="0.55" stop-color="#27E4CA"/>
<stop offset="0.87" stop-color="#E5C500"/>
<stop offset="0.99" stop-color="#E25900"/>
<stop offset="1" stop-color="#E25900"/>
</linearGradient>
<linearGradient id="paint47_linear" x1="17.9793" y1="31.61" x2="58.8303" y2="31.61" gradientUnits="userSpaceOnUse">
<stop stop-color="#201EDF"/>
<stop offset="0.55" stop-color="#27E4CA"/>
<stop offset="0.87" stop-color="#E5C500"/>
<stop offset="0.99" stop-color="#E25900"/>
<stop offset="1" stop-color="#E25900"/>
</linearGradient>
<linearGradient id="paint48_linear" x1="17.6973" y1="31.4619" x2="59.3547" y2="31.4619" gradientUnits="userSpaceOnUse">
<stop stop-color="#201EDF"/>
<stop offset="0.55" stop-color="#27E4CA"/>
<stop offset="0.87" stop-color="#E5C500"/>
<stop offset="0.99" stop-color="#E25900"/>
<stop offset="1" stop-color="#E25900"/>
</linearGradient>
<linearGradient id="paint49_linear" x1="17.4075" y1="31.3113" x2="59.8984" y2="31.3113" gradientUnits="userSpaceOnUse">
<stop stop-color="#201EDF"/>
<stop offset="0.55" stop-color="#27E4CA"/>
<stop offset="0.87" stop-color="#E5C500"/>
<stop offset="0.99" stop-color="#E25900"/>
<stop offset="1" stop-color="#E25900"/>
</linearGradient>
<linearGradient id="paint50_linear" x1="17.1105" y1="31.1586" x2="60.46" y2="31.1586" gradientUnits="userSpaceOnUse">
<stop stop-color="#201EDF"/>
<stop offset="0.55" stop-color="#27E4CA"/>
<stop offset="0.87" stop-color="#E5C500"/>
<stop offset="0.99" stop-color="#E25900"/>
<stop offset="1" stop-color="#E25900"/>
</linearGradient>
<linearGradient id="paint51_linear" x1="16.8043" y1="31.0038" x2="61.036" y2="31.0038" gradientUnits="userSpaceOnUse">
<stop stop-color="#201EDF"/>
<stop offset="0.55" stop-color="#27E4CA"/>
<stop offset="0.87" stop-color="#E5C500"/>
<stop offset="0.99" stop-color="#E25900"/>
<stop offset="1" stop-color="#E25900"/>
</linearGradient>
<linearGradient id="paint52_linear" x1="181" y1="17" x2="181" y2="45" gradientUnits="userSpaceOnUse">
<stop stop-color="white"/>
<stop offset="1" stop-color="white" stop-opacity="0"/>
</linearGradient>
</defs>
</svg>
