<svg width="284" height="62" viewBox="0 0 284 62" fill="none" xmlns="http://www.w3.org/2000/svg">
<path d="M60.9994 31.003C60.9994 47.5713 47.5681 61.0027 30.9997 61.0027C14.4314 61.0027 1.00002 47.5713 1.00002 31.003C1.00002 14.4347 14.4314 1.00331 30.9997 1.00331C47.5681 1.00331 60.9994 14.4347 60.9994 31.003Z" stroke="url(#paint0_linear)" stroke-width="0.2" stroke-miterlimit="10"/>
<path d="M31.5877 1.59198C47.8306 1.87493 60.8541 15.2081 60.6467 31.5425C60.5745 37.3063 58.8549 42.6731 55.9348 47.1957C50.6152 55.489 41.2154 60.9672 30.7233 60.7359C21.576 60.5342 13.6828 56.3931 8.39084 49.4956C4.33022 44.2029 1.4655 37.4909 1.58807 30.4152C1.91296 14.1717 15.3434 1.30903 31.5877 1.59198Z" stroke="url(#paint1_linear)" stroke-width="0.2" stroke-miterlimit="10"/>
<path d="M32.1718 2.17992C48.0877 2.74574 60.7051 15.9809 60.2901 32.0812C60.1457 37.762 58.3659 43.0306 55.432 47.4716C50.0733 55.5831 40.7046 60.9313 30.4432 60.4685C21.4983 60.0652 14.0654 56.0645 8.98282 48.9724C5.10773 43.5653 1.90822 36.7602 2.17219 29.8267C2.77849 13.9064 16.25 1.61393 32.1718 2.17992Z" stroke="url(#paint2_linear)" stroke-width="0.2" stroke-miterlimit="10"/>
<path d="M32.7656 2.76822C48.3529 3.61667 60.5656 16.754 59.9432 32.6203C59.7266 38.2181 57.8936 43.3927 54.9389 47.7478C49.5537 55.6852 40.2018 60.8956 30.1726 60.2015C21.4289 59.5964 14.4579 55.7394 9.58433 48.4496C5.89461 42.9304 2.36996 36.0296 2.76591 29.2385C3.67545 13.6408 17.1645 1.91904 32.7656 2.76822Z" stroke="url(#paint3_linear)" stroke-width="0.2" stroke-miterlimit="10"/>
<path d="M33.3492 3.35637C48.6066 4.4872 60.416 17.527 59.5862 33.1594C59.2974 38.6741 57.4113 43.7545 54.4356 48.0239C49.0244 55.7871 39.6876 60.8596 29.8918 59.9343C21.3478 59.1274 14.8401 55.4174 10.1758 47.9266C6.67087 42.2978 2.82174 35.2985 3.34952 28.6502C4.56244 13.3742 18.0671 2.22375 33.3492 3.35637Z" stroke="url(#paint4_linear)" stroke-width="0.2" stroke-miterlimit="10"/>
<path d="M33.9408 3.94457C48.8666 5.3573 60.2745 18.3 59.2371 33.6985C58.8761 39.1301 56.9372 44.1164 53.9402 48.3C48.5036 55.889 39.1798 60.8232 29.6191 59.6671C21.2732 58.658 15.23 55.0984 10.7753 47.4036C7.45438 41.6676 3.2815 34.567 3.94118 28.0619C5.45766 13.1066 18.9757 2.52811 33.9408 3.94457Z" stroke="url(#paint5_linear)" stroke-width="0.2" stroke-miterlimit="10"/>
<path d="M34.5276 4.53285C49.1202 6.22691 60.1282 19.0731 58.8832 34.2375C58.4501 39.5862 56.4588 44.4783 53.4401 48.5761C47.9786 55.9909 38.6657 60.7865 29.3416 59.4002C21.1922 58.1884 15.6145 54.7824 11.3699 46.8808C8.2322 41.0397 3.73677 33.8352 4.52803 27.4738C6.34848 12.8381 19.8776 2.83206 34.5276 4.53285Z" stroke="url(#paint6_linear)" stroke-width="0.2" stroke-miterlimit="10"/>
<path d="M35.1159 5.12064C49.3732 7.0953 59.9832 19.8457 58.5307 34.7761C58.0254 40.0418 55.9818 44.8394 52.9413 48.8518C47.4552 56.0922 38.1511 60.7485 29.0655 59.1325C21.111 57.7178 15.9993 54.4687 11.9659 46.3574C9.01016 40.4135 4.19349 33.1024 5.11617 26.885C7.24098 12.5678 20.7787 3.13487 35.1159 5.12064Z" stroke="url(#paint7_linear)" stroke-width="0.2" stroke-miterlimit="10"/>
<path d="M35.7051 5.70915C49.6256 7.96352 59.8392 20.6191 58.1792 35.3156C57.6018 40.4982 55.5061 45.2013 52.4437 49.1283C46.9335 56.1941 37.636 60.7105 28.7904 58.8658C21.0291 57.2472 16.384 54.1585 12.563 45.8349C9.78802 39.7899 4.65149 32.37 5.70542 26.2971C8.13509 12.2973 21.6787 3.43767 35.7051 5.70915Z" stroke="url(#paint8_linear)" stroke-width="0.2" stroke-miterlimit="10"/>
<path d="M36.2886 6.2977C49.8704 8.83064 59.6896 21.3925 57.8221 35.8549C57.1725 40.9545 55.025 45.5632 51.9403 49.4048C46.4067 56.296 37.1135 60.6713 28.5096 58.599C20.9398 56.7756 16.7615 53.8507 13.1543 45.3123C10.5587 39.1683 5.10415 31.637 6.28901 25.7093C9.0241 12.0256 22.5709 3.73938 36.2886 6.2977Z" stroke="url(#paint9_linear)" stroke-width="0.2" stroke-miterlimit="10"/>
<path d="M36.8786 6.88599C50.1197 9.69612 59.5464 22.1656 57.4715 36.394C56.7496 41.4106 54.5508 45.9247 51.4434 49.681C45.8869 56.3977 36.5958 60.6305 28.2353 58.3319C20.8552 56.3028 17.1439 53.5449 13.7522 44.7894C11.3343 38.548 5.56352 30.9035 6.87898 25.121C9.92023 11.7525 23.4672 4.03976 36.8786 6.88599Z" stroke="url(#paint10_linear)" stroke-width="0.2" stroke-miterlimit="10"/>
<path d="M37.4702 7.47396C50.3686 10.5597 59.4047 22.9384 57.1222 36.9329C56.3283 41.8664 54.0782 46.2859 50.9479 49.9568C45.3692 56.4992 36.0779 60.5878 27.9624 58.0646C20.7703 55.8284 17.5259 53.2408 14.3515 44.2663C12.1099 37.9289 6.0248 30.169 7.47047 24.5326C10.8188 11.4779 24.3628 4.33829 37.4702 7.47396Z" stroke="url(#paint11_linear)" stroke-width="0.2" stroke-miterlimit="10"/>
<path d="M38.0554 8.06284C50.6096 11.4222 59.2569 23.7121 56.7668 37.4726C55.9007 42.3231 53.5999 46.648 50.4463 50.2337C44.8459 56.6016 35.5523 60.5441 27.6834 57.7982C20.6776 55.3534 17.8997 52.9395 14.9446 43.744C12.8776 37.3121 6.48037 29.435 8.05575 23.945C11.7121 11.2031 25.2499 4.63619 38.0554 8.06284Z" stroke="url(#paint12_linear)" stroke-width="0.2" stroke-miterlimit="10"/>
<path d="M38.6469 8.65019C50.8548 12.2812 59.1151 24.4843 56.4176 38.0108C55.4793 42.7782 53.1281 47.0085 49.9508 50.5089C44.3295 56.7024 35.0314 60.4965 27.4105 57.5302C20.5895 54.8751 18.2775 52.6382 15.5439 43.2202C13.6498 36.6949 6.94269 28.6991 8.64721 23.3559C12.6128 10.9256 26.1409 4.93061 38.6469 8.65019Z" stroke="url(#paint13_linear)" stroke-width="0.2" stroke-miterlimit="10"/>
<path d="M39.232 9.23859C51.0921 13.1387 58.967 25.2576 56.0621 38.55C55.0516 43.2345 52.6502 47.37 49.449 50.7853C43.8072 56.8043 34.5029 60.4477 27.1314 57.2632C20.4936 54.3957 18.6468 52.3392 16.1368 42.6975C14.414 36.0796 7.39915 27.9639 9.23241 22.7679C13.5083 10.6482 27.0233 5.22381 39.232 9.23859Z" stroke="url(#paint14_linear)" stroke-width="0.2" stroke-miterlimit="10"/>
<path d="M39.8182 9.82699C51.3288 13.9935 58.82 26.0308 55.7076 39.0893C54.6249 43.6907 52.1737 47.7316 48.9483 51.0616C43.2869 56.9065 33.9744 60.3961 26.8532 56.9963C20.3976 53.9142 19.0148 52.0415 16.7309 42.1747C15.1776 35.465 7.8574 27.2283 9.8186 22.1798C14.4065 10.3697 27.9048 5.51465 39.8182 9.82699Z" stroke="url(#paint15_linear)" stroke-width="0.2" stroke-miterlimit="10"/>
<path d="M40.4105 10.4154C51.5699 14.8452 58.679 26.8039 55.3591 39.6285C54.2043 44.1468 51.7036 48.0933 48.4535 51.3378C42.7731 57.0088 33.4511 60.3414 26.581 56.7293C20.3065 53.4302 19.3866 51.7445 17.3309 41.652C15.9456 34.8512 8.32237 26.4922 10.4108 21.5917C15.3122 10.0903 28.7903 5.80262 40.4105 10.4154Z" stroke="url(#paint16_linear)" stroke-width="0.2" stroke-miterlimit="10"/>
<path d="M40.9961 11.003C51.8035 15.6929 58.5315 27.5765 55.0042 40.167C53.7771 44.6024 51.2274 48.4542 47.9523 51.6134C42.2535 57.1105 32.9208 60.283 26.3024 56.4617C20.2081 52.943 19.7496 51.4476 17.9244 41.1285C16.7054 34.2371 8.78166 25.7553 10.9964 21.0029C16.2132 9.80957 29.6675 6.0869 40.9961 11.003Z" stroke="url(#paint17_linear)" stroke-width="0.2" stroke-miterlimit="10"/>
<path d="M41.5826 11.5912C52.0367 16.5376 58.3848 28.3495 54.65 40.706C53.3507 45.0584 50.7524 48.8158 47.4519 51.8895C41.7355 57.213 32.3912 60.2217 26.0246 56.1945C20.1102 52.4533 20.111 51.1516 18.5187 40.6056C17.4645 33.6238 9.24255 25.0186 11.583 20.4146C17.1168 9.5287 30.5441 6.36829 41.5826 11.5912Z" stroke="url(#paint18_linear)" stroke-width="0.2" stroke-miterlimit="10"/>
<path d="M42.1749 12.1795C52.2752 17.3785 58.2441 29.1227 54.3016 41.2452C52.9302 45.5145 50.2837 49.1777 46.9573 52.1658C41.224 57.3161 31.8677 60.1573 25.7526 55.9275C20.0181 51.961 20.4762 50.8561 19.1189 40.0828C18.228 33.0109 9.71021 24.282 12.1753 19.8265C18.0284 9.24757 31.4253 6.64625 42.1749 12.1795Z" stroke="url(#paint19_linear)" stroke-width="0.2" stroke-miterlimit="10"/>
<path d="M42.7607 12.7684C52.5068 18.216 58.0966 29.8963 53.9467 41.7848C52.5031 45.9712 49.8087 49.5401 46.4561 52.4425C40.7068 57.4198 31.3383 60.0899 25.474 55.661C19.9198 51.4662 20.8323 50.5613 19.7124 39.5605C18.9834 32.3986 10.1722 23.5459 12.7611 19.2389C18.9355 8.96679 32.2991 6.92075 42.7607 12.7684Z" stroke="url(#paint20_linear)" stroke-width="0.2" stroke-miterlimit="10"/>
<path d="M43.3472 13.3567C52.739 19.0487 57.9499 30.6695 53.5925 42.324C52.0767 46.4272 49.3349 49.9022 45.9556 52.7188C40.191 57.5235 30.8106 60.0187 25.1962 55.394C19.8229 50.9679 21.1871 50.2659 20.3068 39.0376C19.7381 31.7857 10.636 22.8092 13.3475 18.6507C19.8456 8.68553 33.1732 7.19062 43.3472 13.3567Z" stroke="url(#paint21_linear)" stroke-width="0.2" stroke-miterlimit="10"/>
<path d="M43.9394 13.9448C52.9774 19.8768 57.7857 31.4332 53.244 42.863C51.6479 46.8799 48.8672 50.2643 45.4609 52.9947C39.6816 57.6274 30.29 59.9441 24.924 55.1267C19.7329 50.4664 21.5455 49.9701 20.9067 38.5146C20.4974 31.1725 11.1063 22.0726 13.9398 18.0624C20.7636 8.40444 34.0532 7.45605 43.9394 13.9448Z" stroke="url(#paint22_linear)" stroke-width="0.2" stroke-miterlimit="10"/>
<path d="M44.5256 14.5329C53.2109 20.7006 57.6385 32.2053 52.8896 43.402C51.2212 47.3356 48.394 50.6267 44.9602 53.2708C39.167 57.7317 29.7654 59.8665 24.6459 54.8596C19.6386 49.9623 21.896 49.6741 21.5009 37.9916C21.2495 30.5591 11.5717 21.3363 14.526 17.474C21.6779 8.12394 34.9278 7.71704 44.5256 14.5329Z" stroke="url(#paint23_linear)" stroke-width="0.2" stroke-miterlimit="10"/>
<path d="M45.1177 15.1207C53.4514 21.5197 57.4971 32.9772 52.5409 43.9406C50.8002 47.7909 47.9269 50.9891 44.4653 53.5466C38.6589 57.8363 29.2485 59.7859 24.3736 54.592C19.5521 49.4551 22.2503 49.3774 22.1007 37.4682C22.0062 29.9452 12.0439 20.6001 15.118 16.8853C22.6002 7.84403 35.8093 7.97334 45.1177 15.1207Z" stroke="url(#paint24_linear)" stroke-width="0.2" stroke-miterlimit="10"/>
<path d="M45.7029 15.7088C53.6871 22.3351 57.349 33.7495 52.1855 44.4795C50.3726 48.2467 47.4534 51.352 43.9636 53.8226C38.1448 57.9418 28.7274 59.7031 24.0945 54.3247C19.4612 48.9461 22.596 49.0806 22.6937 36.9453C22.755 29.3312 12.5102 19.8646 15.7032 16.297C23.518 7.56567 36.6859 8.22543 45.7029 15.7088Z" stroke="url(#paint25_linear)" stroke-width="0.2" stroke-miterlimit="10"/>
<path d="M46.2888 16.298C53.9257 23.1473 57.2018 34.5228 51.8307 45.0196C49.9457 48.7034 46.9811 51.7164 43.4625 54.0997C37.6319 58.049 28.2096 59.6193 23.8162 54.0586C19.3736 48.4359 22.9407 48.7841 23.2875 36.4233C23.5037 28.7179 12.9781 19.1309 16.2891 15.7098C24.4385 7.28984 37.5655 8.47421 46.2888 16.298Z" stroke="url(#paint26_linear)" stroke-width="0.2" stroke-miterlimit="10"/>
<path d="M46.8804 16.8857C54.1726 23.9543 57.0604 35.2947 51.4817 45.5581C49.5246 49.1587 46.5148 52.0798 42.9673 54.3753C37.1255 58.1554 27.7002 59.5326 23.5434 53.7911C19.2947 47.9226 23.2894 48.4857 23.887 35.8999C24.2571 28.1028 13.4523 18.3964 16.8808 15.1211C25.3666 7.01422 38.4538 8.71736 46.8804 16.8857Z" stroke="url(#paint27_linear)" stroke-width="0.2" stroke-miterlimit="10"/>
<path d="M47.4661 17.4739C54.4168 24.7585 56.9133 36.0671 51.1268 46.0972C49.0975 49.6146 46.043 52.444 42.4661 54.6514C36.6139 58.263 27.1879 59.4451 23.2648 53.5239C19.213 47.4084 23.6307 48.187 24.4805 35.377C25.0039 27.4877 13.9214 17.6632 17.4665 14.5328C26.2905 6.74108 39.3398 8.95716 47.4661 17.4739Z" stroke="url(#paint28_linear)" stroke-width="0.2" stroke-miterlimit="10"/>
<path d="M48.0577 18.062C54.6702 25.5594 56.7719 36.8394 50.7774 46.636C48.6762 50.0701 45.5774 52.8085 41.9706 54.9274C36.1084 58.3712 26.6842 59.3567 22.992 53.2567C19.1401 46.893 23.9764 47.8873 25.0798 34.8538C25.7555 26.8719 14.3969 16.9306 18.058 13.9444C27.2217 6.46994 40.2356 9.19311 48.0577 18.062Z" stroke="url(#paint29_linear)" stroke-width="0.2" stroke-miterlimit="10"/>
<path d="M48.6433 18.6507C54.9215 26.3585 56.6249 37.6124 50.4225 47.1756C48.2492 50.5264 45.1061 53.1742 41.4692 55.2041C35.5978 58.481 26.1776 59.2686 22.7132 52.99C19.0648 46.3779 24.3148 47.5876 25.6732 34.3315C26.5007 26.2564 14.8669 16.1996 18.6436 13.3566C28.1483 6.20175 41.1302 9.42666 48.6433 18.6507Z" stroke="url(#paint30_linear)" stroke-width="0.2" stroke-miterlimit="10"/>
<path d="M49.2347 19.2382C55.1825 27.1543 56.4836 38.3842 50.0731 47.7139C47.8279 50.9817 44.641 53.5393 40.9738 55.4794C35.0934 58.5905 25.6796 59.1792 22.4403 52.7221C18.9984 45.8612 24.6578 47.2859 26.2724 33.8078C27.251 25.6391 15.3431 15.4685 19.2351 12.7677C29.0815 5.93483 42.0355 9.65636 49.2347 19.2382Z" stroke="url(#paint31_linear)" stroke-width="0.2" stroke-miterlimit="10"/>
<path d="M49.8195 19.8276C55.4411 27.9507 56.336 39.1582 49.7173 48.2542C47.4001 51.4388 44.1696 53.9068 40.4717 55.7568C34.583 58.7027 25.1777 59.0922 22.1608 52.4563C18.9286 45.3467 24.9931 46.9855 26.8651 33.2862C27.9943 25.0232 15.8129 14.7402 19.8199 12.1806C30.0089 5.67242 42.9394 9.88595 49.8195 19.8276Z" stroke="url(#paint32_linear)" stroke-width="0.2" stroke-miterlimit="10"/>
<path d="M50.4119 20.4152C55.7114 28.7443 56.196 39.9302 49.369 48.7926C46.9799 51.8941 43.706 54.2732 39.9771 56.0323C34.0804 58.8142 24.6859 59.0039 21.8888 52.1885C18.8692 44.8306 25.3349 46.6822 27.4653 32.7626C28.7444 24.405 16.2904 14.0109 20.4122 11.5918C30.9442 5.41056 43.8564 10.112 50.4119 20.4152Z" stroke="url(#paint33_linear)" stroke-width="0.2" stroke-miterlimit="10"/>
<path d="M50.9968 21.0035C55.9783 29.5381 56.0485 40.7032 49.0132 49.3318C46.5523 52.3501 43.2351 54.6408 39.4751 56.3085C33.5707 58.9272 24.1888 58.9173 21.6094 51.9215C18.8051 44.3159 25.6682 46.3789 28.058 32.2398C29.4867 23.7869 16.7604 13.2833 20.9971 11.0036C31.8721 5.15203 44.7716 10.338 50.9968 21.0035Z" stroke="url(#paint34_linear)" stroke-width="0.2" stroke-miterlimit="10"/>
<path d="M51.5827 21.5922C56.2503 30.3326 55.9022 41.4766 48.6584 49.8713C46.1256 52.8066 42.7654 55.0096 38.974 56.5851C33.0621 59.0417 23.695 58.8322 21.3309 51.6548C18.7447 43.8027 26.0016 46.075 28.6518 31.7173C30.2296 23.1688 17.2313 12.557 21.5831 10.4158C32.8009 4.89631 45.6933 10.564 51.5827 21.5922Z" stroke="url(#paint35_linear)" stroke-width="0.2" stroke-miterlimit="10"/>
<path d="M52.1755 22.18C56.5333 31.1268 55.763 42.2493 48.3106 50.41C45.706 53.2623 42.3028 55.3783 38.4799 56.8609C32.5607 59.1566 23.21 58.7475 21.0594 51.3873C18.6935 43.2897 26.3412 45.7696 29.2524 31.1941C30.979 22.5493 17.709 11.8308 22.1759 9.82724C33.7362 4.64204 46.6275 10.7894 52.1755 22.18Z" stroke="url(#paint36_linear)" stroke-width="0.2" stroke-miterlimit="10"/>
<path d="M52.7653 22.7683C56.8168 31.9226 55.6205 43.0226 47.9596 50.9492C45.2833 53.7184 41.8371 55.7481 37.9827 57.1371C32.0563 59.2727 22.7235 58.6647 20.7848 51.1203C18.6413 42.7785 26.6769 45.4638 29.8499 30.6712C31.725 21.9297 18.1832 11.1057 22.7656 9.23905C34.6677 4.3905 47.5639 11.016 52.7653 22.7683Z" stroke="url(#paint37_linear)" stroke-width="0.2" stroke-miterlimit="10"/>
<path d="M53.3515 23.3561C57.1003 32.7192 55.4898 43.811 47.6051 51.4877C44.8623 54.1795 41.3679 56.1181 37.482 57.4128C31.5484 59.3895 22.235 58.5829 20.5067 50.8528C18.5874 42.2681 27.0083 45.1567 30.444 30.1478C32.4672 21.3091 18.6535 10.381 23.3518 8.65039C35.595 4.14044 48.5017 11.2434 53.3515 23.3561Z" stroke="url(#paint38_linear)" stroke-width="0.2" stroke-miterlimit="10"/>
<path d="M53.9408 23.9442C57.3901 33.518 55.346 44.584 47.2538 52.0267C44.4388 54.6354 40.902 56.4893 36.9844 57.6888C31.0435 59.5077 21.7508 58.5031 20.2317 50.5855C18.5382 41.7595 27.3423 44.8491 31.0411 29.6248C33.2123 20.6883 19.1266 9.6573 23.9411 8.06205C36.5245 3.89265 49.4474 11.4729 53.9408 23.9442Z" stroke="url(#paint39_linear)" stroke-width="0.2" stroke-miterlimit="10"/>
<path d="M54.5254 24.5329C57.6782 34.3195 55.1975 45.3575 46.8978 52.5663C44.0105 55.0921 40.4311 56.862 36.482 57.9655C30.5338 59.6277 21.2631 58.4253 19.952 50.3189C18.4857 41.2531 27.671 44.5414 31.6335 29.1024C33.9524 20.0677 19.5946 8.93475 24.5258 7.47432C37.4481 3.64717 50.3927 11.705 54.5254 24.5329Z" stroke="url(#paint40_linear)" stroke-width="0.2" stroke-miterlimit="10"/>
<path d="M55.113 25.1211C57.9721 35.1228 55.0519 46.1306 46.5447 53.1054C43.5853 55.548 39.9632 57.2348 35.9828 58.2417C30.0268 59.7482 20.7792 58.3487 19.6753 50.0519C18.4373 40.7477 28.0022 44.2323 32.229 28.5795C34.6953 19.446 20.065 8.21234 25.1134 6.88609C38.3736 3.40265 51.3449 11.939 55.113 25.1211Z" stroke="url(#paint41_linear)" stroke-width="0.2" stroke-miterlimit="10"/>
<path d="M55.7014 25.7092C58.2687 35.9285 54.9071 46.9035 46.1924 53.6442C43.1608 56.0038 39.4957 57.6083 35.4842 58.5176C29.5202 59.8695 20.2968 58.2734 19.3993 49.7845C18.3906 40.2436 28.3337 43.9224 32.8252 28.0564C35.4388 18.8238 20.5355 7.49012 25.7017 6.29764C39.2986 3.15929 52.3014 12.1755 55.7014 25.7092Z" stroke="url(#paint42_linear)" stroke-width="0.2" stroke-miterlimit="10"/>
<path d="M56.2902 26.2972C58.5679 36.7365 54.7627 47.6763 45.8405 54.1831C42.7367 56.4596 39.0286 57.9824 34.9861 58.7935C29.0136 59.9917 19.8153 58.1996 19.1237 49.5172C18.3451 39.741 28.6652 43.6117 33.4218 27.5333C36.1825 18.2012 21.006 6.76826 26.2905 5.70922C40.2226 2.9171 53.2612 12.4147 56.2902 26.2972Z" stroke="url(#paint43_linear)" stroke-width="0.2" stroke-miterlimit="10"/>
<path d="M56.8805 26.8857C58.8703 37.5478 54.6198 48.4497 45.4902 54.7225C42.3142 56.916 38.5626 58.3579 34.4894 59.0699C28.508 60.1155 19.3359 58.1276 18.8498 49.2504C18.3017 39.2402 28.9979 43.3009 34.0199 27.0107C36.9277 17.5786 21.4776 6.04733 26.8809 5.12133C41.1469 2.67633 54.2251 12.6573 56.8805 26.8857Z" stroke="url(#paint44_linear)" stroke-width="0.2" stroke-miterlimit="10"/>
<path d="M57.4647 27.4743C59.168 38.3617 54.4709 49.223 45.1336 55.2618C41.8855 57.3724 38.0903 58.7341 33.9867 59.3464C27.9957 60.2404 18.8505 58.0572 18.5696 48.9836C18.2525 38.7409 29.3241 42.9894 34.6119 26.4881C37.6666 16.9556 21.9423 5.32666 27.4651 4.53337C42.0637 2.43646 55.1851 12.903 57.4647 27.4743Z" stroke="url(#paint45_linear)" stroke-width="0.2" stroke-miterlimit="10"/>
<path d="M58.0547 28.0625C59.4726 39.1778 54.3277 49.996 44.783 55.8009C41.4627 57.8284 37.6233 59.1107 33.4898 59.6226C27.4886 60.3656 18.3713 57.9878 18.2953 48.7164C18.2094 38.2426 29.6558 42.6769 35.2098 25.9652C38.4114 16.3318 22.4124 4.6059 28.0551 3.94516C42.9851 2.19675 56.1527 13.1513 58.0547 28.0625Z" stroke="url(#paint46_linear)" stroke-width="0.2" stroke-miterlimit="10"/>
<path d="M58.6451 28.6505C59.7784 39.9965 54.1849 50.7689 44.4327 56.3398C41.0401 58.2843 37.1563 59.4879 32.9932 59.8985C26.981 60.4915 17.8925 57.9195 18.0213 48.4492C18.1669 37.7454 29.9877 42.3636 35.8079 25.4421C39.1562 15.7076 22.8824 3.88509 28.6454 3.35667C43.9055 1.95748 57.122 13.4023 58.6451 28.6505Z" stroke="url(#paint47_linear)" stroke-width="0.2" stroke-miterlimit="10"/>
<path d="M59.2348 29.2387C60.0843 40.8178 54.0413 51.5419 44.0817 56.8788C40.617 58.7403 36.6882 59.8657 32.496 60.1746C26.4721 60.6184 17.4131 57.8524 17.7467 48.1821C18.1238 37.2495 30.3187 42.0498 36.4055 24.9191C39.9004 15.083 23.3511 3.16468 29.2352 2.76849C44.824 1.71878 58.0917 13.6564 59.2348 29.2387Z" stroke="url(#paint48_linear)" stroke-width="0.2" stroke-miterlimit="10"/>
<path d="M59.8235 29.8269C60.3896 41.6414 53.8968 52.315 43.7297 57.4179C40.1929 59.1963 36.2184 60.2442 31.9977 60.4507C25.9613 60.746 16.9327 57.7866 17.4711 47.9149C18.0797 36.7546 30.6484 41.7355 37.0021 24.3962C40.6435 14.4582 23.8184 2.44427 29.8239 2.18014C45.7404 1.48022 59.0611 13.9133 59.8235 29.8269Z" stroke="url(#paint49_linear)" stroke-width="0.2" stroke-miterlimit="10"/>
<path d="M60.4111 30.4149C60.694 42.4671 53.7512 53.0878 43.3767 57.9567C39.7675 59.652 35.7471 60.6231 31.4984 60.7266C25.4485 60.874 16.4511 57.7214 17.1943 47.6476C18.0344 36.2607 30.9527 41.4113 37.5974 23.873C41.3717 13.8275 24.2843 1.73325 30.4114 1.5917C46.6549 1.2668 60.0298 14.1726 60.4111 30.4149Z" stroke="url(#paint50_linear)" stroke-width="0.2" stroke-miterlimit="10"/>
<path d="M60.9954 31.0036C60.9954 47.5719 47.5642 61.0033 30.9958 61.0033C24.9314 61.0033 15.9661 57.658 16.9144 47.381C17.9857 35.7683 31.3019 41.1055 38.1896 23.3506C42.1243 13.2077 24.7461 1.00391 30.9958 1.00391C47.5642 1.00391 60.9954 14.4353 60.9954 31.0036Z" stroke="url(#paint51_linear)" stroke-width="0.2" stroke-miterlimit="10"/>
<path d="M84.5762 42.5059C83.2181 42.5059 81.4818 42.2096 79.3672 41.6172V38.7734C81.6458 39.8307 83.5189 40.3594 84.9863 40.3594C86.1165 40.3594 87.0234 40.0632 87.707 39.4707C88.3997 38.8783 88.7461 38.099 88.7461 37.1328C88.7461 36.3398 88.5182 35.6654 88.0625 35.1094C87.6159 34.5534 86.7865 33.9336 85.5742 33.25L84.1797 32.4434C82.457 31.459 81.2402 30.5339 80.5293 29.668C79.8275 28.793 79.4766 27.7767 79.4766 26.6191C79.4766 25.0605 80.0417 23.7799 81.1719 22.7773C82.3021 21.7656 83.7422 21.2598 85.4922 21.2598C87.0508 21.2598 88.696 21.5195 90.4277 22.0391V24.6641C88.2949 23.8255 86.7044 23.4062 85.6562 23.4062C84.6628 23.4062 83.8424 23.6706 83.1953 24.1992C82.5482 24.7279 82.2246 25.3932 82.2246 26.1953C82.2246 26.8698 82.4616 27.4668 82.9355 27.9863C83.4095 28.5059 84.2754 29.1257 85.5332 29.8457L86.9824 30.666C88.7324 31.6595 89.9538 32.5983 90.6465 33.4824C91.3392 34.3665 91.6855 35.4284 91.6855 36.668C91.6855 38.4271 91.0339 39.8398 89.7305 40.9062C88.4362 41.9727 86.7181 42.5059 84.5762 42.5059ZM95.7871 42V27.1523H98.4805V42H95.7871ZM95.7871 24.459V21.7656H98.4805V24.459H95.7871ZM103.881 42V27.1523H106.574V29.9414C107.996 27.8633 109.737 26.8242 111.797 26.8242C113.082 26.8242 114.107 27.2344 114.873 28.0547C115.639 28.8659 116.021 29.9596 116.021 31.3359V42H113.328V32.2109C113.328 31.1081 113.164 30.3242 112.836 29.8594C112.517 29.3854 111.984 29.1484 111.236 29.1484C109.587 29.1484 108.033 30.2285 106.574 32.3887V42H103.881ZM121.326 46.9355L121.641 44.5977C123.199 45.3359 124.735 45.7051 126.248 45.7051C129.283 45.7051 130.801 44.0964 130.801 40.8789V38.541C129.807 40.6191 128.176 41.6582 125.906 41.6582C124.129 41.6582 122.716 41.0111 121.668 39.7168C120.62 38.4225 120.096 36.6771 120.096 34.4805C120.096 32.2201 120.693 30.3789 121.887 28.957C123.081 27.5352 124.626 26.8242 126.521 26.8242C128.18 26.8242 129.607 27.4987 130.801 28.8477V27.1523H133.508V37.9531C133.508 40.2773 133.385 41.9954 133.139 43.1074C132.902 44.2285 132.451 45.1445 131.785 45.8555C130.609 47.1042 128.782 47.7285 126.303 47.7285C124.571 47.7285 122.912 47.4642 121.326 46.9355ZM130.801 36.8594V30.6934C129.616 29.4629 128.326 28.8477 126.932 28.8477C125.692 28.8477 124.721 29.3444 124.02 30.3379C123.318 31.3314 122.967 32.694 122.967 34.4258C122.967 37.6797 124.111 39.3066 126.398 39.3066C127.957 39.3066 129.424 38.4909 130.801 36.8594ZM148.027 42V39.2109C146.596 41.2982 144.86 42.3418 142.818 42.3418C141.524 42.3418 140.494 41.9362 139.729 41.125C138.963 40.3047 138.58 39.2018 138.58 37.8164V27.1523H141.273V36.9414C141.273 38.0534 141.433 38.8464 141.752 39.3203C142.08 39.7852 142.622 40.0176 143.379 40.0176C145.02 40.0176 146.569 38.9375 148.027 36.7773V27.1523H150.721V42H148.027ZM156.135 42V20.4121H158.828V42H156.135ZM171.885 40.1133C170.271 41.599 168.717 42.3418 167.223 42.3418C165.992 42.3418 164.971 41.959 164.16 41.1934C163.349 40.4186 162.943 39.4434 162.943 38.2676C162.943 36.6452 163.622 35.401 164.98 34.5352C166.348 33.6602 168.303 33.2227 170.846 33.2227H171.488V31.4316C171.488 29.709 170.604 28.8477 168.836 28.8477C167.414 28.8477 165.878 29.2852 164.229 30.1602V27.9316C166.042 27.1934 167.742 26.8242 169.328 26.8242C170.987 26.8242 172.208 27.1979 172.992 27.9453C173.785 28.6927 174.182 29.8548 174.182 31.4316V38.1582C174.182 39.6986 174.656 40.4688 175.604 40.4688C175.722 40.4688 175.895 40.4505 176.123 40.4141L176.314 41.9043C175.704 42.196 175.029 42.3418 174.291 42.3418C173.033 42.3418 172.231 41.599 171.885 40.1133ZM171.488 38.6504V34.8086L170.586 34.7812C169.109 34.7812 167.915 35.0638 167.004 35.6289C166.092 36.1849 165.637 36.9186 165.637 37.8301C165.637 38.4772 165.865 39.0241 166.32 39.4707C166.776 39.9173 167.332 40.1406 167.988 40.1406C169.109 40.1406 170.276 39.6439 171.488 38.6504ZM179.705 42V27.1523H182.398V29.9414C183.465 27.8633 185.014 26.8242 187.047 26.8242C187.32 26.8242 187.607 26.847 187.908 26.8926V29.4082C187.443 29.2533 187.033 29.1758 186.678 29.1758C184.973 29.1758 183.547 30.1875 182.398 32.2109V42H179.705ZM191.162 42V27.1523H193.855V42H191.162ZM191.162 24.459V21.7656H193.855V24.459H191.162ZM203.713 42.3418C202.346 42.3418 201.279 41.9499 200.514 41.166C199.748 40.3822 199.365 39.293 199.365 37.8984V29.1758H197.506V27.1523H199.365V24.459L202.059 24.1992V27.1523H205.941V29.1758H202.059V37.4062C202.059 39.3477 202.897 40.3184 204.574 40.3184C204.93 40.3184 205.363 40.2591 205.873 40.1406V42C205.044 42.2279 204.324 42.3418 203.713 42.3418ZM210.59 47.4004L212.996 42L207.254 27.1523H210.166L214.418 38.3359L218.957 27.1523H221.5L213.393 47.4004H210.59ZM224.275 42V21.7656H231.002C233.007 21.7656 234.625 21.9889 235.855 22.4355C237.095 22.8822 238.166 23.6387 239.068 24.7051C240.499 26.4004 241.215 28.6335 241.215 31.4043C241.215 34.7676 240.326 37.3743 238.549 39.2246C236.771 41.0749 234.27 42 231.043 42H224.275ZM227.146 39.8535H230.824C233.449 39.8535 235.309 39.1471 236.402 37.7344C237.578 36.2305 238.166 34.2116 238.166 31.6777C238.166 29.2988 237.587 27.4303 236.43 26.0723C235.728 25.2428 234.889 24.6777 233.914 24.377C232.939 24.0671 231.471 23.9121 229.512 23.9121H227.146V39.8535ZM255.502 34.2617L252.057 25.5391L248.598 34.2617H255.502ZM258.537 42L256.336 36.3945H247.764L245.535 42H242.869L250.895 21.7656H253.738L261.641 42H258.537ZM272.729 42.5059C269.921 42.5059 267.661 41.5352 265.947 39.5938C264.243 37.6432 263.391 35.0684 263.391 31.8691C263.391 28.6517 264.247 26.0814 265.961 24.1582C267.684 22.2259 269.98 21.2598 272.852 21.2598C275.714 21.2598 278.006 22.2214 279.729 24.1445C281.451 26.0677 282.312 28.6335 282.312 31.8418C282.312 35.1139 281.451 37.7116 279.729 39.6348C278.006 41.5488 275.673 42.5059 272.729 42.5059ZM272.77 40.3594C274.839 40.3594 276.438 39.6165 277.568 38.1309C278.699 36.6361 279.264 34.5306 279.264 31.8145C279.264 29.1803 278.694 27.1204 277.555 25.6348C276.424 24.1491 274.857 23.4062 272.852 23.4062C270.837 23.4062 269.265 24.1536 268.135 25.6484C267.005 27.1341 266.439 29.2031 266.439 31.8555C266.439 34.4987 267 36.5768 268.121 38.0898C269.242 39.6029 270.792 40.3594 272.77 40.3594Z" fill="black"/>
<defs>
<linearGradient id="paint0_linear" x1="0.959542" y1="31.003" x2="61.04" y2="31.003" gradientUnits="userSpaceOnUse">
<stop stop-color="#201EDF"/>
<stop offset="0.55" stop-color="#27E4CA"/>
<stop offset="0.87" stop-color="#E5C500"/>
<stop offset="0.99" stop-color="#E25900"/>
<stop offset="1" stop-color="#E25900"/>
</linearGradient>
<linearGradient id="paint1_linear" x1="1.5437" y1="31.1652" x2="60.6896" y2="31.1652" gradientUnits="userSpaceOnUse">
<stop stop-color="#201EDF"/>
<stop offset="0.55" stop-color="#27E4CA"/>
<stop offset="0.87" stop-color="#E5C500"/>
<stop offset="0.99" stop-color="#E25900"/>
<stop offset="1" stop-color="#E25900"/>
</linearGradient>
<linearGradient id="paint2_linear" x1="2.11638" y1="31.3287" x2="60.3406" y2="31.3287" gradientUnits="userSpaceOnUse">
<stop stop-color="#201EDF"/>
<stop offset="0.55" stop-color="#27E4CA"/>
<stop offset="0.87" stop-color="#E5C500"/>
<stop offset="0.99" stop-color="#E25900"/>
<stop offset="1" stop-color="#E25900"/>
</linearGradient>
<linearGradient id="paint3_linear" x1="2.69485" y1="31.4941" x2="60.0064" y2="31.4941" gradientUnits="userSpaceOnUse">
<stop stop-color="#201EDF"/>
<stop offset="0.55" stop-color="#27E4CA"/>
<stop offset="0.87" stop-color="#E5C500"/>
<stop offset="0.99" stop-color="#E25900"/>
<stop offset="1" stop-color="#E25900"/>
</linearGradient>
<linearGradient id="paint4_linear" x1="3.26012" y1="31.6601" x2="59.6678" y2="31.6601" gradientUnits="userSpaceOnUse">
<stop stop-color="#201EDF"/>
<stop offset="0.55" stop-color="#27E4CA"/>
<stop offset="0.87" stop-color="#E5C500"/>
<stop offset="0.99" stop-color="#E25900"/>
<stop offset="1" stop-color="#E25900"/>
</linearGradient>
<linearGradient id="paint5_linear" x1="3.83109" y1="31.8261" x2="59.3431" y2="31.8261" gradientUnits="userSpaceOnUse">
<stop stop-color="#201EDF"/>
<stop offset="0.55" stop-color="#27E4CA"/>
<stop offset="0.87" stop-color="#E5C500"/>
<stop offset="0.99" stop-color="#E25900"/>
<stop offset="1" stop-color="#E25900"/>
</linearGradient>
<linearGradient id="paint6_linear" x1="4.39564" y1="31.9917" x2="59.0198" y2="31.9917" gradientUnits="userSpaceOnUse">
<stop stop-color="#201EDF"/>
<stop offset="0.55" stop-color="#27E4CA"/>
<stop offset="0.87" stop-color="#E5C500"/>
<stop offset="0.99" stop-color="#E25900"/>
<stop offset="1" stop-color="#E25900"/>
</linearGradient>
<linearGradient id="paint7_linear" x1="4.96009" y1="32.1552" x2="58.7044" y2="32.1552" gradientUnits="userSpaceOnUse">
<stop stop-color="#201EDF"/>
<stop offset="0.55" stop-color="#27E4CA"/>
<stop offset="0.87" stop-color="#E5C500"/>
<stop offset="0.99" stop-color="#E25900"/>
<stop offset="1" stop-color="#E25900"/>
</linearGradient>
<linearGradient id="paint8_linear" x1="5.52452" y1="32.3172" x2="58.3968" y2="32.3172" gradientUnits="userSpaceOnUse">
<stop stop-color="#201EDF"/>
<stop offset="0.55" stop-color="#27E4CA"/>
<stop offset="0.87" stop-color="#E5C500"/>
<stop offset="0.99" stop-color="#E25900"/>
<stop offset="1" stop-color="#E25900"/>
</linearGradient>
<linearGradient id="paint9_linear" x1="6.08231" y1="32.4759" x2="58.0907" y2="32.4759" gradientUnits="userSpaceOnUse">
<stop stop-color="#201EDF"/>
<stop offset="0.55" stop-color="#27E4CA"/>
<stop offset="0.87" stop-color="#E5C500"/>
<stop offset="0.99" stop-color="#E25900"/>
<stop offset="1" stop-color="#E25900"/>
</linearGradient>
<linearGradient id="paint10_linear" x1="6.64592" y1="32.6303" x2="57.7986" y2="32.6303" gradientUnits="userSpaceOnUse">
<stop stop-color="#201EDF"/>
<stop offset="0.55" stop-color="#27E4CA"/>
<stop offset="0.87" stop-color="#E5C500"/>
<stop offset="0.99" stop-color="#E25900"/>
<stop offset="1" stop-color="#E25900"/>
</linearGradient>
<linearGradient id="paint11_linear" x1="7.21039" y1="32.7793" x2="57.516" y2="32.7793" gradientUnits="userSpaceOnUse">
<stop stop-color="#201EDF"/>
<stop offset="0.55" stop-color="#27E4CA"/>
<stop offset="0.87" stop-color="#E5C500"/>
<stop offset="0.99" stop-color="#E25900"/>
<stop offset="1" stop-color="#E25900"/>
</linearGradient>
<linearGradient id="paint12_linear" x1="7.76826" y1="32.923" x2="57.2356" y2="32.923" gradientUnits="userSpaceOnUse">
<stop stop-color="#201EDF"/>
<stop offset="0.55" stop-color="#27E4CA"/>
<stop offset="0.87" stop-color="#E5C500"/>
<stop offset="0.99" stop-color="#E25900"/>
<stop offset="1" stop-color="#E25900"/>
</linearGradient>
<linearGradient id="paint13_linear" x1="8.33189" y1="33.058" x2="56.9701" y2="33.058" gradientUnits="userSpaceOnUse">
<stop stop-color="#201EDF"/>
<stop offset="0.55" stop-color="#27E4CA"/>
<stop offset="0.87" stop-color="#E5C500"/>
<stop offset="0.99" stop-color="#E25900"/>
<stop offset="1" stop-color="#E25900"/>
</linearGradient>
<linearGradient id="paint14_linear" x1="8.88886" y1="33.1856" x2="56.7075" y2="33.1856" gradientUnits="userSpaceOnUse">
<stop stop-color="#201EDF"/>
<stop offset="0.55" stop-color="#27E4CA"/>
<stop offset="0.87" stop-color="#E5C500"/>
<stop offset="0.99" stop-color="#E25900"/>
<stop offset="1" stop-color="#E25900"/>
</linearGradient>
<linearGradient id="paint15_linear" x1="9.44665" y1="33.3041" x2="56.4556" y2="33.3041" gradientUnits="userSpaceOnUse">
<stop stop-color="#201EDF"/>
<stop offset="0.55" stop-color="#27E4CA"/>
<stop offset="0.87" stop-color="#E5C500"/>
<stop offset="0.99" stop-color="#E25900"/>
<stop offset="1" stop-color="#E25900"/>
</linearGradient>
<linearGradient id="paint16_linear" x1="10.0104" y1="33.4121" x2="56.2202" y2="33.4121" gradientUnits="userSpaceOnUse">
<stop stop-color="#201EDF"/>
<stop offset="0.55" stop-color="#27E4CA"/>
<stop offset="0.87" stop-color="#E5C500"/>
<stop offset="0.99" stop-color="#E25900"/>
<stop offset="1" stop-color="#E25900"/>
</linearGradient>
<linearGradient id="paint17_linear" x1="10.5674" y1="33.508" x2="55.9888" y2="33.508" gradientUnits="userSpaceOnUse">
<stop stop-color="#201EDF"/>
<stop offset="0.55" stop-color="#27E4CA"/>
<stop offset="0.87" stop-color="#E5C500"/>
<stop offset="0.99" stop-color="#E25900"/>
<stop offset="1" stop-color="#E25900"/>
</linearGradient>
<linearGradient id="paint18_linear" x1="11.1252" y1="33.5922" x2="55.7696" y2="33.5922" gradientUnits="userSpaceOnUse">
<stop stop-color="#201EDF"/>
<stop offset="0.55" stop-color="#27E4CA"/>
<stop offset="0.87" stop-color="#E5C500"/>
<stop offset="0.99" stop-color="#E25900"/>
<stop offset="1" stop-color="#E25900"/>
</linearGradient>
<linearGradient id="paint19_linear" x1="11.6888" y1="33.6638" x2="55.5683" y2="33.6638" gradientUnits="userSpaceOnUse">
<stop stop-color="#201EDF"/>
<stop offset="0.55" stop-color="#27E4CA"/>
<stop offset="0.87" stop-color="#E5C500"/>
<stop offset="0.99" stop-color="#E25900"/>
<stop offset="1" stop-color="#E25900"/>
</linearGradient>
<linearGradient id="paint20_linear" x1="12.2459" y1="33.7222" x2="55.3731" y2="33.7222" gradientUnits="userSpaceOnUse">
<stop stop-color="#201EDF"/>
<stop offset="0.55" stop-color="#27E4CA"/>
<stop offset="0.87" stop-color="#E5C500"/>
<stop offset="0.99" stop-color="#E25900"/>
<stop offset="1" stop-color="#E25900"/>
</linearGradient>
<linearGradient id="paint21_linear" x1="12.8038" y1="33.7663" x2="55.192" y2="33.7663" gradientUnits="userSpaceOnUse">
<stop stop-color="#201EDF"/>
<stop offset="0.55" stop-color="#27E4CA"/>
<stop offset="0.87" stop-color="#E5C500"/>
<stop offset="0.99" stop-color="#E25900"/>
<stop offset="1" stop-color="#E25900"/>
</linearGradient>
<linearGradient id="paint22_linear" x1="13.3674" y1="33.7963" x2="55.021" y2="33.7963" gradientUnits="userSpaceOnUse">
<stop stop-color="#201EDF"/>
<stop offset="0.55" stop-color="#27E4CA"/>
<stop offset="0.87" stop-color="#E5C500"/>
<stop offset="0.99" stop-color="#E25900"/>
<stop offset="1" stop-color="#E25900"/>
</linearGradient>
<linearGradient id="paint23_linear" x1="13.9252" y1="33.8124" x2="54.8689" y2="33.8124" gradientUnits="userSpaceOnUse">
<stop stop-color="#201EDF"/>
<stop offset="0.55" stop-color="#27E4CA"/>
<stop offset="0.87" stop-color="#E5C500"/>
<stop offset="0.99" stop-color="#E25900"/>
<stop offset="1" stop-color="#E25900"/>
</linearGradient>
<linearGradient id="paint24_linear" x1="14.4888" y1="33.8144" x2="54.7388" y2="33.8144" gradientUnits="userSpaceOnUse">
<stop stop-color="#201EDF"/>
<stop offset="0.55" stop-color="#27E4CA"/>
<stop offset="0.87" stop-color="#E5C500"/>
<stop offset="0.99" stop-color="#E25900"/>
<stop offset="1" stop-color="#E25900"/>
</linearGradient>
<linearGradient id="paint25_linear" x1="15.0458" y1="33.8036" x2="54.6195" y2="33.8036" gradientUnits="userSpaceOnUse">
<stop stop-color="#201EDF"/>
<stop offset="0.55" stop-color="#27E4CA"/>
<stop offset="0.87" stop-color="#E5C500"/>
<stop offset="0.99" stop-color="#E25900"/>
<stop offset="1" stop-color="#E25900"/>
</linearGradient>
<linearGradient id="paint26_linear" x1="15.6037" y1="33.7813" x2="54.5195" y2="33.7813" gradientUnits="userSpaceOnUse">
<stop stop-color="#201EDF"/>
<stop offset="0.55" stop-color="#27E4CA"/>
<stop offset="0.87" stop-color="#E5C500"/>
<stop offset="0.99" stop-color="#E25900"/>
<stop offset="1" stop-color="#E25900"/>
</linearGradient>
<linearGradient id="paint27_linear" x1="16.1673" y1="33.7457" x2="54.4451" y2="33.7457" gradientUnits="userSpaceOnUse">
<stop stop-color="#201EDF"/>
<stop offset="0.55" stop-color="#27E4CA"/>
<stop offset="0.87" stop-color="#E5C500"/>
<stop offset="0.99" stop-color="#E25900"/>
<stop offset="1" stop-color="#E25900"/>
</linearGradient>
<linearGradient id="paint28_linear" x1="16.7251" y1="33.6995" x2="54.3861" y2="33.6995" gradientUnits="userSpaceOnUse">
<stop stop-color="#201EDF"/>
<stop offset="0.55" stop-color="#27E4CA"/>
<stop offset="0.87" stop-color="#E5C500"/>
<stop offset="0.99" stop-color="#E25900"/>
<stop offset="1" stop-color="#E25900"/>
</linearGradient>
<linearGradient id="paint29_linear" x1="17.2887" y1="33.643" x2="54.3556" y2="33.643" gradientUnits="userSpaceOnUse">
<stop stop-color="#201EDF"/>
<stop offset="0.55" stop-color="#27E4CA"/>
<stop offset="0.87" stop-color="#E5C500"/>
<stop offset="0.99" stop-color="#E25900"/>
<stop offset="1" stop-color="#E25900"/>
</linearGradient>
<linearGradient id="paint30_linear" x1="17.8465" y1="33.5779" x2="54.3436" y2="33.5779" gradientUnits="userSpaceOnUse">
<stop stop-color="#201EDF"/>
<stop offset="0.55" stop-color="#27E4CA"/>
<stop offset="0.87" stop-color="#E5C500"/>
<stop offset="0.99" stop-color="#E25900"/>
<stop offset="1" stop-color="#E25900"/>
</linearGradient>
<linearGradient id="paint31_linear" x1="18.4101" y1="33.5032" x2="54.3633" y2="33.5032" gradientUnits="userSpaceOnUse">
<stop stop-color="#201EDF"/>
<stop offset="0.55" stop-color="#27E4CA"/>
<stop offset="0.87" stop-color="#E5C500"/>
<stop offset="0.99" stop-color="#E25900"/>
<stop offset="1" stop-color="#E25900"/>
</linearGradient>
<linearGradient id="paint32_linear" x1="18.9672" y1="33.4228" x2="54.4039" y2="33.4228" gradientUnits="userSpaceOnUse">
<stop stop-color="#201EDF"/>
<stop offset="0.55" stop-color="#27E4CA"/>
<stop offset="0.87" stop-color="#E5C500"/>
<stop offset="0.99" stop-color="#E25900"/>
<stop offset="1" stop-color="#E25900"/>
</linearGradient>
<linearGradient id="paint33_linear" x1="19.5317" y1="33.3335" x2="54.4808" y2="33.3335" gradientUnits="userSpaceOnUse">
<stop stop-color="#201EDF"/>
<stop offset="0.55" stop-color="#27E4CA"/>
<stop offset="0.87" stop-color="#E5C500"/>
<stop offset="0.99" stop-color="#E25900"/>
<stop offset="1" stop-color="#E25900"/>
</linearGradient>
<linearGradient id="paint34_linear" x1="20.0886" y1="33.2388" x2="54.5806" y2="33.2388" gradientUnits="userSpaceOnUse">
<stop stop-color="#201EDF"/>
<stop offset="0.55" stop-color="#27E4CA"/>
<stop offset="0.87" stop-color="#E5C500"/>
<stop offset="0.99" stop-color="#E25900"/>
<stop offset="1" stop-color="#E25900"/>
</linearGradient>
<linearGradient id="paint35_linear" x1="20.6465" y1="33.1386" x2="54.7128" y2="33.1386" gradientUnits="userSpaceOnUse">
<stop stop-color="#201EDF"/>
<stop offset="0.55" stop-color="#27E4CA"/>
<stop offset="0.87" stop-color="#E5C500"/>
<stop offset="0.99" stop-color="#E25900"/>
<stop offset="1" stop-color="#E25900"/>
</linearGradient>
<linearGradient id="paint36_linear" x1="20.5715" y1="33.0325" x2="54.8845" y2="33.0325" gradientUnits="userSpaceOnUse">
<stop stop-color="#201EDF"/>
<stop offset="0.55" stop-color="#27E4CA"/>
<stop offset="0.87" stop-color="#E5C500"/>
<stop offset="0.99" stop-color="#E25900"/>
<stop offset="1" stop-color="#E25900"/>
</linearGradient>
<linearGradient id="paint37_linear" x1="20.3857" y1="32.9221" x2="55.0861" y2="32.9221" gradientUnits="userSpaceOnUse">
<stop stop-color="#201EDF"/>
<stop offset="0.55" stop-color="#27E4CA"/>
<stop offset="0.87" stop-color="#E5C500"/>
<stop offset="0.99" stop-color="#E25900"/>
<stop offset="1" stop-color="#E25900"/>
</linearGradient>
<linearGradient id="paint38_linear" x1="20.1852" y1="32.8067" x2="55.3212" y2="32.8067" gradientUnits="userSpaceOnUse">
<stop stop-color="#201EDF"/>
<stop offset="0.55" stop-color="#27E4CA"/>
<stop offset="0.87" stop-color="#E5C500"/>
<stop offset="0.99" stop-color="#E25900"/>
<stop offset="1" stop-color="#E25900"/>
</linearGradient>
<linearGradient id="paint39_linear" x1="19.9772" y1="32.6874" x2="55.589" y2="32.6874" gradientUnits="userSpaceOnUse">
<stop stop-color="#201EDF"/>
<stop offset="0.55" stop-color="#27E4CA"/>
<stop offset="0.87" stop-color="#E5C500"/>
<stop offset="0.99" stop-color="#E25900"/>
<stop offset="1" stop-color="#E25900"/>
</linearGradient>
<linearGradient id="paint40_linear" x1="19.7544" y1="32.565" x2="55.8853" y2="32.565" gradientUnits="userSpaceOnUse">
<stop stop-color="#201EDF"/>
<stop offset="0.55" stop-color="#27E4CA"/>
<stop offset="0.87" stop-color="#E5C500"/>
<stop offset="0.99" stop-color="#E25900"/>
<stop offset="1" stop-color="#E25900"/>
</linearGradient>
<linearGradient id="paint41_linear" x1="19.5251" y1="32.4383" x2="56.2173" y2="32.4383" gradientUnits="userSpaceOnUse">
<stop stop-color="#201EDF"/>
<stop offset="0.55" stop-color="#27E4CA"/>
<stop offset="0.87" stop-color="#E5C500"/>
<stop offset="0.99" stop-color="#E25900"/>
<stop offset="1" stop-color="#E25900"/>
</linearGradient>
<linearGradient id="paint42_linear" x1="19.2874" y1="32.3079" x2="56.5817" y2="32.3079" gradientUnits="userSpaceOnUse">
<stop stop-color="#201EDF"/>
<stop offset="0.55" stop-color="#27E4CA"/>
<stop offset="0.87" stop-color="#E5C500"/>
<stop offset="0.99" stop-color="#E25900"/>
<stop offset="1" stop-color="#E25900"/>
</linearGradient>
<linearGradient id="paint43_linear" x1="19.0415" y1="32.1742" x2="56.9769" y2="32.1742" gradientUnits="userSpaceOnUse">
<stop stop-color="#201EDF"/>
<stop offset="0.55" stop-color="#27E4CA"/>
<stop offset="0.87" stop-color="#E5C500"/>
<stop offset="0.99" stop-color="#E25900"/>
<stop offset="1" stop-color="#E25900"/>
</linearGradient>
<linearGradient id="paint44_linear" x1="18.7889" y1="32.0377" x2="57.4025" y2="32.0377" gradientUnits="userSpaceOnUse">
<stop stop-color="#201EDF"/>
<stop offset="0.55" stop-color="#27E4CA"/>
<stop offset="0.87" stop-color="#E5C500"/>
<stop offset="0.99" stop-color="#E25900"/>
<stop offset="1" stop-color="#E25900"/>
</linearGradient>
<linearGradient id="paint45_linear" x1="18.5224" y1="31.8983" x2="57.8495" y2="31.8983" gradientUnits="userSpaceOnUse">
<stop stop-color="#201EDF"/>
<stop offset="0.55" stop-color="#27E4CA"/>
<stop offset="0.87" stop-color="#E5C500"/>
<stop offset="0.99" stop-color="#E25900"/>
<stop offset="1" stop-color="#E25900"/>
</linearGradient>
<linearGradient id="paint46_linear" x1="18.2542" y1="31.7555" x2="58.3278" y2="31.7555" gradientUnits="userSpaceOnUse">
<stop stop-color="#201EDF"/>
<stop offset="0.55" stop-color="#27E4CA"/>
<stop offset="0.87" stop-color="#E5C500"/>
<stop offset="0.99" stop-color="#E25900"/>
<stop offset="1" stop-color="#E25900"/>
</linearGradient>
<linearGradient id="paint47_linear" x1="17.9794" y1="31.6099" x2="58.8304" y2="31.6099" gradientUnits="userSpaceOnUse">
<stop stop-color="#201EDF"/>
<stop offset="0.55" stop-color="#27E4CA"/>
<stop offset="0.87" stop-color="#E5C500"/>
<stop offset="0.99" stop-color="#E25900"/>
<stop offset="1" stop-color="#E25900"/>
</linearGradient>
<linearGradient id="paint48_linear" x1="17.6972" y1="31.4618" x2="59.3546" y2="31.4618" gradientUnits="userSpaceOnUse">
<stop stop-color="#201EDF"/>
<stop offset="0.55" stop-color="#27E4CA"/>
<stop offset="0.87" stop-color="#E5C500"/>
<stop offset="0.99" stop-color="#E25900"/>
<stop offset="1" stop-color="#E25900"/>
</linearGradient>
<linearGradient id="paint49_linear" x1="17.4075" y1="31.3112" x2="59.8984" y2="31.3112" gradientUnits="userSpaceOnUse">
<stop stop-color="#201EDF"/>
<stop offset="0.55" stop-color="#27E4CA"/>
<stop offset="0.87" stop-color="#E5C500"/>
<stop offset="0.99" stop-color="#E25900"/>
<stop offset="1" stop-color="#E25900"/>
</linearGradient>
<linearGradient id="paint50_linear" x1="17.1105" y1="31.1586" x2="60.46" y2="31.1586" gradientUnits="userSpaceOnUse">
<stop stop-color="#201EDF"/>
<stop offset="0.55" stop-color="#27E4CA"/>
<stop offset="0.87" stop-color="#E5C500"/>
<stop offset="0.99" stop-color="#E25900"/>
<stop offset="1" stop-color="#E25900"/>
</linearGradient>
<linearGradient id="paint51_linear" x1="16.8043" y1="31.0036" x2="61.036" y2="31.0036" gradientUnits="userSpaceOnUse">
<stop stop-color="#201EDF"/>
<stop offset="0.55" stop-color="#27E4CA"/>
<stop offset="0.87" stop-color="#E5C500"/>
<stop offset="0.99" stop-color="#E25900"/>
<stop offset="1" stop-color="#E25900"/>
</linearGradient>
</defs>
</svg>
